999
dxflib 2.0.4.8
  0
SECTION
  2
HEADER
  9
$ACADVER
  1
AC1009
  9
$DIMASZ
 40
2.5
  9
$GRIDUNIT
 10
0.0
 20
0.0
  9
$DIMGAP
 40
0.625
  9
$SPLINESEGS
 70
8
  9
$AUPREC
 70
2
  9
$LUNITS
 70
2
  9
$DIMEXO
 40
0.625
  9
$DIMTXT
 40
2.5
  9
$GRIDMODE
 70
1
  9
$LUPREC
 70
4
  9
$DIMSTYLE
  2
Standard
  9
$PLIMMAX
 10
21.0
 20
29.6999999999999993
  9
$PLIMMIN
 10
0.0
 20
0.0
  9
$DIMEXE
 40
1.25
  9
$AUNITS
 70
0
  0
ENDSEC
  0
SECTION
  2
TABLES
  0
TABLE
  2
VPORT
 70
1
  0
VPORT
  2
*Active
 70
0
 10
0.0
 20
0.0
 11
1.0
 21
1.0
 12
286.3055555555554861
 22
148.5
 13
0.0
 23
0.0
 14
10.0
 24
10.0
 15
10.0
 25
10.0
 16
0.0
 26
0.0
 36
1.0
 17
0.0
 27
0.0
 37
0.0
 40
297.0
 41
1.92798353909465
 42
50.0
 43
0.0
 44
0.0
 50
0.0
 51
0.0
 71
0
 72
100
 73
1
 74
3
 75
1
 76
1
 77
0
 78
0
  0
ENDTAB
  0
TABLE
  2
LTYPE
 70
19
  0
LTYPE
  2
CONTINUOUS
 70
0
  3
Solid line
 72
65
 73
0
 40
0.0
  0
LTYPE
  2
DOT
 70
0
  3
Dot . . . . . . . . . . . . . . . . . . . . . .
 72
65
 73
2
 40
6.3499999999999996
 49
0.0
 49
-6.3499999999999996
  0
LTYPE
  2
DOT2
 70
0
  3
Dot (.5x) .....................................
 72
65
 73
2
 40
3.1749999999999998
 49
0.0
 49
-3.1749999999999998
  0
LTYPE
  2
DOTX2
 70
0
  3
Dot (2x) .  .  .  .  .  .  .  .  .  .  .  .  .
 72
65
 73
2
 40
12.6999999999999993
 49
0.0
 49
-12.6999999999999993
  0
LTYPE
  2
DASHED
 70
0
  3
Dashed __ __ __ __ __ __ __ __ __ __ __ __ __ _
 72
65
 73
2
 40
19.0500000000000007
 49
12.6999999999999993
 49
-6.3499999999999996
  0
LTYPE
  2
DASHED2
 70
0
  3
Dashed (.5x) _ _ _ _ _ _ _ _ _ _ _ _ _ _ _ _ _
 72
65
 73
2
 40
9.5250000000000004
 49
6.3499999999999996
 49
-3.1749999999999998
  0
LTYPE
  2
DASHEDX2
 70
0
  3
Dashed (2x) ____  ____  ____  ____  ____  ___
 72
65
 73
2
 40
38.1000000000000014
 49
25.3999999999999986
 49
-12.6999999999999993
  0
LTYPE
  2
DASHDOT
 70
0
  3
Dash dot __ . __ . __ . __ . __ . __ . __ . __
 72
65
 73
4
 40
25.3999999999999986
 49
12.6999999999999993
 49
-6.3499999999999996
 49
0.0
 49
-6.3499999999999996
  0
LTYPE
  2
DASHDOT2
 70
0
  3
Dash dot (.5x) _._._._._._._._._._._._._._._.
 72
65
 73
4
 40
12.6999999999999993
 49
6.3499999999999996
 49
-3.1749999999999998
 49
0.0
 49
-3.1749999999999998
  0
LTYPE
  2
DASHDOTX2
 70
0
  3
Dash dot (2x) ____  .  ____  .  ____  .  ___
 72
65
 73
4
 40
50.7999999999999972
 49
25.3999999999999986
 49
-12.6999999999999993
 49
0.0
 49
-12.6999999999999993
  0
LTYPE
  2
DIVIDE
 70
0
  3
Divide ____ . . ____ . . ____ . . ____ . . ____
 72
65
 73
6
 40
31.75
 49
12.6999999999999993
 49
-6.3499999999999996
 49
0.0
 49
-6.3499999999999996
 49
0.0
 49
-6.3499999999999996
  0
LTYPE
  2
DIVIDE2
 70
0
  3
Divide (.5x) __..__..__..__..__..__..__..__.._
 72
65
 73
6
 40
15.875
 49
6.3499999999999996
 49
-3.1749999999999998
 49
0.0
 49
-3.1749999999999998
 49
0.0
 49
-3.1749999999999998
  0
LTYPE
  2
DIVIDEX2
 70
0
  3
Divide (2x) ________  .  .  ________  .  .  _
 72
65
 73
6
 40
63.5
 49
25.3999999999999986
 49
-12.6999999999999993
 49
0.0
 49
-12.6999999999999993
 49
0.0
 49
-12.6999999999999993
  0
LTYPE
  2
CENTER
 70
0
  3
Center ____ _ ____ _ ____ _ ____ _ ____ _ ____
 72
65
 73
4
 40
50.7999999999999972
 49
31.75
 49
-6.3499999999999996
 49
6.3499999999999996
 49
-6.3499999999999996
  0
LTYPE
  2
CENTER2
 70
0
  3
Center (.5x) ___ _ ___ _ ___ _ ___ _ ___ _ ___
 72
65
 73
4
 40
28.5749999999999993
 49
19.0500000000000007
 49
-3.1749999999999998
 49
3.1749999999999998
 49
-3.1749999999999998
  0
LTYPE
  2
CENTERX2
 70
0
  3
Center (2x) ________  __  ________  __  _____
 72
65
 73
4
 40
101.5999999999999943
 49
63.5
 49
-12.6999999999999993
 49
12.6999999999999993
 49
-12.6999999999999993
  0
LTYPE
  2
BORDER
 70
0
  3
Border __ __ . __ __ . __ __ . __ __ . __ __ .
 72
65
 73
6
 40
44.4500000000000028
 49
12.6999999999999993
 49
-6.3499999999999996
 49
12.6999999999999993
 49
-6.3499999999999996
 49
0.0
 49
-6.3499999999999996
  0
LTYPE
  2
BORDER2
 70
0
  3
Border (.5x) __.__.__.__.__.__.__.__.__.__.__.
 72
65
 73
6
 40
22.2250000000000014
 49
6.3499999999999996
 49
-3.1749999999999998
 49
6.3499999999999996
 49
-3.1749999999999998
 49
0.0
 49
-3.1749999999999998
  0
LTYPE
  2
BORDERX2
 70
0
  3
Border (2x) ____  ____  .  ____  ____  .  ___
 72
65
 73
6
 40
88.9000000000000057
 49
25.3999999999999986
 49
-12.6999999999999993
 49
25.3999999999999986
 49
-12.6999999999999993
 49
0.0
 49
-12.6999999999999993
  0
ENDTAB
  0
TABLE
  2
LAYER
 70
13
  0
LAYER
  2
0
 70
0
 62
7
  6
CONTINUOUS
  0
LAYER
  2
outer_boundary
 70
0
 62
3
  6
CONTINUOUS
  0
LAYER
  2
cable_slot_center
 70
0
 62
4
  6
CONTINUOUS
  0
LAYER
  2
cable_slot_boundary
 70
0
 62
4
  6
CONTINUOUS
  0
LAYER
  2
bounding_box
 70
0
 62
9
  6
CONTINUOUS
  0
LAYER
  2
drill_4-40_tap
 70
0
 62
2
  6
CONTINUOUS
  0
LAYER
  2
drill_2-56_tap
 70
0
 62
6
  6
CONTINUOUS
  0
LAYER
  2
sensor_mount_lines
 70
0
 62
5
  6
CONTINUOUS
  0
LAYER
  2
drill_10-32_tap
 70
0
 62
161
  6
CONTINUOUS
  0
LAYER
  2
tube_clamp_pocket_left
 70
0
 62
40
  6
CONTINUOUS
  0
LAYER
  2
tube_clamp_pocket_right
 70
0
 62
32
  6
CONTINUOUS
  0
LAYER
  2
cover_plate_boundary
 70
0
 62
200
  6
CONTINUOUS
  0
LAYER
  2
drill_4-40_thru
 70
0
 62
113
  6
CONTINUOUS
  0
ENDTAB
  0
TABLE
  2
STYLE
 70
1
  0
STYLE
  2
Standard
 70
0
 40
0.0
 41
0.75
 50
0.0
 71
0
 42
2.5
  3
txt
  4

  0
ENDTAB
  0
TABLE
  2
VIEW
 70
0
  0
ENDTAB
  0
TABLE
  2
UCS
 70
0
  0
ENDTAB
  0
TABLE
  2
APPID
 70
1
  0
APPID
  2
ACAD
 70
0
  0
ENDTAB
  0
TABLE
  2
DIMSTYLE
 70
1
  0
DIMSTYLE
  2
Standard
  3

  4

  5

  6

  7

 40
1.0
 41
2.5
 42
0.625
 43
3.75
 44
1.25
 45
0.0
 46
0.0
 47
0.0
 48
0.0
 70
0
 71
0
 72
0
 73
0
 74
0
 75
0
 76
0
 77
1
 78
8
140
2.5
141
2.5
142
0.0
143
0.03937007874016
144
1.0
145
0.0
146
1.0
147
0.625
170
0
171
3
172
1
173
0
174
0
175
0
176
0
177
0
178
0
  0
ENDTAB
  0
ENDSEC
  0
SECTION
  2
BLOCKS
  0
ENDSEC
  0
SECTION
  2
ENTITIES
  0
LINE
  8
cable_slot_center
 10
8.4645669291338574
 20
1.5748031496062991
 30
0.0
 11
8.4645669291338574
 21
1.5748031496062991
 31
0.0
  0
LINE
  8
cable_slot_boundary
 10
0.7155511811023629
 20
1.6998031496062991
 30
0.0
 11
8.3395669291338574
 21
1.6998031496062991
 31
0.0
  0
LINE
  8
cable_slot_boundary
 10
0.5905511811023625
 20
1.4498031496062986
 30
0.0
 11
8.5895669291338592
 21
1.4498031496062986
 31
0.0
  0
ARC
  8
cable_slot_boundary
 10
0.5905511811023625
 20
1.5748031496062991
 30
0.0
 40
0.125
 50
180.0
 51
270.0
  0
CIRCLE
  8
drill_4-40_tap
 10
0.3543307086614176
 20
5.9055118110236213
 30
0.0
 40
0.0444881889763779
  0
CIRCLE
  8
drill_4-40_tap
 10
0.3543307086614176
 20
3.5433070866141732
 30
0.0
 40
0.0444881889763779
  0
LINE
  8
cable_slot_center
 10
0.5905511811023625
 20
1.5748031496062991
 30
0.0
 11
8.4645669291338574
 21
1.5748031496062991
 31
0.0
  0
CIRCLE
  8
drill_4-40_tap
 10
3.3464566929133861
 20
1.3385826771653542
 30
0.0
 40
0.0444881889763779
  0
CIRCLE
  8
drill_4-40_tap
 10
5.7086614173228343
 20
1.3385826771653542
 30
0.0
 40
0.0444881889763779
  0
CIRCLE
  8
drill_4-40_tap
 10
3.3464566929133861
 20
1.811023622047244
 30
0.0
 40
0.0444881889763779
  0
CIRCLE
  8
drill_4-40_tap
 10
5.7086614173228343
 20
1.811023622047244
 30
0.0
 40
0.0444881889763779
  0
CIRCLE
  8
drill_4-40_tap
 10
0.984251968503937
 20
1.811023622047244
 30
0.0
 40
0.0444881889763779
  0
CIRCLE
  8
drill_4-40_tap
 10
8.0708661417322833
 20
1.811023622047244
 30
0.0
 40
0.0444881889763779
  0
CIRCLE
  8
drill_4-40_tap
 10
0.5905511811023625
 20
1.3385826771653542
 30
0.0
 40
0.0444881889763779
  0
CIRCLE
  8
drill_4-40_tap
 10
8.4645669291338574
 20
1.3385826771653542
 30
0.0
 40
0.0444881889763779
  0
CIRCLE
  8
drill_4-40_tap
 10
0.8267716535433074
 20
3.5433070866141732
 30
0.0
 40
0.0444881889763779
  0
CIRCLE
  8
drill_4-40_tap
 10
8.228346456692913
 20
5.9055118110236213
 30
0.0
 40
0.0444881889763779
  0
CIRCLE
  8
drill_4-40_tap
 10
8.7007874015748037
 20
5.9055118110236213
 30
0.0
 40
0.0444881889763779
  0
CIRCLE
  8
drill_4-40_tap
 10
8.228346456692913
 20
3.5433070866141732
 30
0.0
 40
0.0444881889763779
  0
CIRCLE
  8
drill_4-40_tap
 10
8.7007874015748037
 20
3.5433070866141732
 30
0.0
 40
0.0444881889763779
  0
CIRCLE
  8
drill_2-56_tap
 10
9.8385826771653537
 20
1.9148031496062989
 30
0.0
 40
0.035
  0
CIRCLE
  8
drill_2-56_tap
 10
9.8385826771653537
 20
1.2348031496062992
 30
0.0
 40
0.035
  0
CIRCLE
  8
drill_2-56_tap
 10
9.4393700787401578
 20
1.9148031496062989
 30
0.0
 40
0.035
  0
CIRCLE
  8
drill_2-56_tap
 10
9.4393700787401578
 20
1.2348031496062992
 30
0.0
 40
0.035
  0
LINE
  8
cable_slot_boundary
 10
0.465551181102362
 20
6.1023622047244093
 30
0.0
 11
0.465551181102362
 21
1.5748031496062991
 31
0.0
  0
LINE
  8
cable_slot_boundary
 10
0.7155511811023629
 20
6.1023622047244093
 30
0.0
 11
0.7155511811023629
 21
1.6998031496062991
 31
0.0
  0
ARC
  8
cable_slot_boundary
 62
4
  6
CONTINUOUS
 10
0.5905511811023625
 20
6.1023622047244093
 30
0.0
 40
0.125
 50
0.0
 51
180.0
  0
LINE
  8
cable_slot_center
 10
0.5905511811023625
 20
6.1023622047244093
 30
0.0
 11
0.5905511811023625
 21
1.5748031496062991
 31
0.0
  0
LINE
  8
cable_slot_boundary
 10
8.3395669291338574
 20
6.1023622047244093
 30
0.0
 11
8.3395669291338574
 21
1.6998031496062991
 31
0.0
  0
LINE
  8
cable_slot_boundary
 10
8.5895669291338592
 20
6.1023622047244093
 30
0.0
 11
8.58759842519685
 21
1.6998031496062991
 31
0.0
  0
LINE
  8
cable_slot_center
 10
8.4645669291338574
 20
1.5748031496062991
 30
0.0
 11
8.4645669291338574
 21
6.1023622047244093
 31
0.0
  0
ARC
  8
cable_slot_boundary
 62
4
  6
CONTINUOUS
 10
8.4645669291338574
 20
6.1023622047244093
 30
0.0
 40
0.125
 50
0.0
 51
180.0
  0
LINE
  8
bounding_box
 10
1.9685039370078741
 20
-0.0000000000000009
 30
0.0
 11
1.9685039370078741
 21
-0.0000000000000009
 31
0.0
  0
LINE
  8
cable_slot_center
 10
8.8582677165354333
 20
1.5748031496062991
 30
0.0
 11
8.4645669291338574
 21
1.5748031496062991
 31
0.0
  0
ARC
  8
cover_plate_boundary
 10
0.3100393700787407
 20
5.9498031496062982
 30
0.0
 40
0.0738188976377953
 50
90.0
 51
180.0
  0
LINE
  8
cover_plate_boundary
 10
0.3100393700787407
 20
6.0236220472440944
 30
0.0
 11
0.8710629921259847
 21
6.0236220472440944
 31
0.0
  0
ARC
  8
cover_plate_boundary
 10
0.8710629921259847
 20
5.9498031496062973
 30
0.0
 40
0.0738188976377953
 50
0.0
 51
90.0
  0
LINE
  8
cover_plate_boundary
 10
0.2362204724409454
 20
5.9498031496062982
 30
0.0
 11
0.2362204724409454
 21
1.2942913385826778
 31
0.0
  0
LINE
  8
cover_plate_boundary
 10
0.3100393700787407
 20
1.2204724409448815
 30
0.0
 11
8.5826771653543297
 21
1.2204724409448824
 31
0.0
  0
ARC
  8
cover_plate_boundary
 10
0.3100393700787407
 20
1.2942913385826778
 30
0.0
 40
0.0738188976377953
 50
180.0
 51
270.0
  0
LINE
  8
cover_plate_boundary
 10
0.9448818897637801
 20
2.0029527559055116
 30
0.0
 11
0.9448818897637801
 21
5.9498031496062973
 31
0.0
  0
ARC
  8
cover_plate_boundary
 10
1.018700787401575
 20
2.0029527559055116
 30
0.0
 40
0.0738188976377953
 50
180.0
 51
269.9999999999994316
  0
LINE
  8
cover_plate_boundary
 10
8.0364173228346463
 20
1.9291338582677167
 30
0.0
 11
1.0187007874015745
 21
1.9291338582677167
 31
0.0
  0
ARC
  8
cover_plate_boundary
 10
8.0364173228346463
 20
2.0029527559055116
 30
0.0
 40
0.0738188976377953
 50
270.0
 51
360.0
  0
LINE
  8
cover_plate_boundary
 10
8.7450787401574797
 20
1.2204724409448815
 30
0.0
 11
8.5826771653543297
 21
1.2204724409448815
 31
0.0
  0
ARC
  8
cover_plate_boundary
 10
8.7450787401574797
 20
1.2942913385826769
 30
0.0
 40
0.0738188976377953
 50
270.0
 51
0.0
  0
LINE
  8
cover_plate_boundary
 10
8.8188976377952741
 20
5.9498031496062982
 30
0.0
 11
8.8188976377952741
 21
1.2942913385826778
 31
0.0
  0
ARC
  8
cover_plate_boundary
 10
8.7450787401574797
 20
5.9498031496062982
 30
0.0
 40
0.0738188976377953
 50
0.0
 51
90.0
  0
LINE
  8
cover_plate_boundary
 10
8.184055118110237
 20
6.0236220472440944
 30
0.0
 11
8.7450787401574797
 21
6.0236220472440944
 31
0.0
  0
LINE
  8
cover_plate_boundary
 10
8.1102362204724407
 20
5.9498031496062982
 30
0.0
 11
8.1102362204724407
 21
2.0029527559055116
 31
0.0
  0
ARC
  8
cover_plate_boundary
 10
8.184055118110237
 20
5.9498031496062982
 30
0.0
 40
0.0738188976377953
 50
90.0
 51
180.0
  0
ARC
  8
cable_slot_boundary
 62
4
  6
CONTINUOUS
 10
9.0551181102362204
 20
1.5748031496062991
 30
0.0
 40
0.125
 50
270.0
 51
90.0
  0
LINE
  8
cable_slot_boundary
 10
8.58759842519685
 20
1.6998031496062991
 30
0.0
 11
9.0551181102362204
 21
1.6998031496062991
 31
0.0
  0
LINE
  8
cable_slot_boundary
 10
8.5895669291338592
 20
1.4498031496062986
 30
0.0
 11
9.0551181102362204
 21
1.4498031496062986
 31
0.0
  0
CIRCLE
  8
drill_4-40_tap
 10
0.8267716535433074
 20
5.9055118110236213
 30
0.0
 40
0.0444881889763779
  0
LINE
  8
sensor_mount_lines
 10
0.1968503937007879
 20
7.0866141732283463
 30
0.0
 11
0.5905511811023625
 21
7.0866141732283463
 31
0.0
  0
LINE
  8
sensor_mount_lines
 10
0.1968503937007879
 20
6.3366141732283463
 30
0.0
 11
0.5905511811023625
 21
6.3366141732283463
 31
0.0
  0
LINE
  8
sensor_mount_lines
 10
8.8582677165354333
 20
7.0866141732283463
 30
0.0
 11
8.4645669291338574
 21
7.0866141732283463
 31
0.0
  0
LINE
  8
sensor_mount_lines
 10
8.8582677165354333
 20
6.3366141732283463
 30
0.0
 11
8.4645669291338574
 21
6.3366141732283463
 31
0.0
  0
CIRCLE
  8
drill_4-40_thru
 10
0.5905511811023625
 20
6.6929133858267713
 30
0.0
 40
0.058
  0
CIRCLE
  8
drill_4-40_thru
 10
0.5905511811023625
 20
4.7244094488188972
 30
0.0
 40
0.058
  0
CIRCLE
  8
drill_4-40_thru
 10
0.5905511811023625
 20
1.9685039370078741
 30
0.0
 40
0.058
  0
CIRCLE
  8
drill_4-40_thru
 10
4.5275590551181102
 20
1.5748031496062991
 30
0.0
 40
0.058
  0
CIRCLE
  8
drill_4-40_thru
 10
8.4645669291338592
 20
1.9685039370078741
 30
0.0
 40
0.058
  0
CIRCLE
  8
drill_4-40_thru
 10
8.4645669291338574
 20
4.7244094488188972
 30
0.0
 40
0.058
  0
CIRCLE
  8
drill_4-40_thru
 10
8.4645669291338574
 20
6.6929133858267713
 30
0.0
 40
0.058
  0
ARC
  8
outer_boundary
 10
0.859251968503937
 20
7.1584645669291334
 30
0.0
 40
0.125
 50
0.0
 51
90.0
  0
LINE
  8
outer_boundary
 10
0.3218503937007879
 20
7.2834645669291334
 30
0.0
 11
0.859251968503937
 21
7.2834645669291334
 31
0.0
  0
ARC
  8
outer_boundary
 10
0.3218503937007879
 20
7.1584645669291334
 30
0.0
 40
0.125
 50
90.0
 51
180.0
  0
LINE
  8
outer_boundary
 10
0.984251968503937
 20
7.1584645669291334
 30
0.0
 11
0.984251968503937
 21
2.2903543307086625
 31
0.0
  0
ARC
  8
outer_boundary
 10
1.1092519685039375
 20
2.290354330708662
 30
0.0
 40
0.125
 50
180.0
 51
270.0
  0
LINE
  8
outer_boundary
 10
0.1968503937007879
 20
7.1584645669291334
 30
0.0
 11
0.1968503937007879
 21
1.1092519685039366
 31
0.0
  0
ARC
  8
outer_boundary
 10
0.3218503937007879
 20
1.1092519685039379
 30
0.0
 40
0.125
 50
180.0
 51
270.0
  0
LINE
  8
outer_boundary
 10
0.3218503937007879
 20
0.984251968503937
 30
0.0
 11
2.2372047244094491
 21
0.984251968503937
 31
0.0
  0
ARC
  8
outer_boundary
 10
2.2372047244094491
 20
0.8592519685039366
 30
0.0
 40
0.125
 50
0.0
 51
90.0
  0
ARC
  8
outer_boundary
 10
3.2746062992125982
 20
0.8592519685039366
 30
0.0
 40
0.125
 50
90.0
 51
180.0
  0
LINE
  8
outer_boundary
 10
2.3622047244094491
 20
0.518700787401575
 30
0.0
 11
2.3622047244094491
 21
0.8592519685039366
 31
0.0
  0
ARC
  8
outer_boundary
 10
2.4872047244094491
 20
0.518700787401575
 30
0.0
 40
0.125
 50
180.0
 51
270.0
  0
LINE
  8
outer_boundary
 10
3.0246062992125982
 20
0.3937007874015741
 30
0.0
 11
2.4872047244094491
 21
0.393700787401575
 31
0.0
  0
LINE
  8
outer_boundary
 10
3.1496062992125986
 20
0.8592519685039366
 30
0.0
 11
3.1496062992125986
 21
0.5187007874015741
 31
0.0
  0
ARC
  8
outer_boundary
 10
3.0246062992125986
 20
0.5187007874015741
 30
0.0
 40
0.125
 50
269.9999999999998863
 51
0.0
  0
LINE
  8
outer_boundary
 10
6.5679133858267722
 20
0.984251968503937
 30
0.0
 11
3.2746062992125982
 21
0.984251968503937
 31
0.0
  0
ARC
  8
outer_boundary
 10
6.5679133858267722
 20
0.8592519685039366
 30
0.0
 40
0.125
 50
0.0
 51
90.0
  0
LINE
  8
outer_boundary
 10
6.6929133858267713
 20
0.518700787401575
 30
0.0
 11
6.6929133858267722
 21
0.8592519685039366
 31
0.0
  0
ARC
  8
outer_boundary
 10
6.8179133858267713
 20
0.518700787401575
 30
0.0
 40
0.125
 50
180.0
 51
270.0
  0
LINE
  8
outer_boundary
 10
7.3553149606299213
 20
0.393700787401575
 30
0.0
 11
6.8179133858267713
 21
0.393700787401575
 31
0.0
  0
ARC
  8
outer_boundary
 10
7.3553149606299213
 20
0.518700787401575
 30
0.0
 40
0.125
 50
270.0
 51
0.0
  0
ARC
  8
outer_boundary
 10
9.9143700787401556
 20
1.109251968503937
 30
0.0
 40
0.125
 50
270.0
 51
0.0
  0
LINE
  8
outer_boundary
 10
10.0393700787401556
 20
2.0403543307086611
 30
0.0
 11
10.0393700787401556
 21
1.109251968503937
 31
0.0
  0
ARC
  8
outer_boundary
 10
9.9143700787401556
 20
2.0403543307086611
 30
0.0
 40
0.125
 50
0.0
 51
90.0
  0
LINE
  8
outer_boundary
 10
8.9832677165354333
 20
2.1653543307086611
 30
0.0
 11
9.9143700787401556
 21
2.1653543307086611
 31
0.0
  0
ARC
  8
outer_boundary
 10
8.9832677165354333
 20
2.2903543307086607
 30
0.0
 40
0.125
 50
180.0
 51
270.0
  0
LINE
  8
outer_boundary
 10
1.1092519685039375
 20
2.1653543307086611
 30
0.0
 11
7.9458661417322833
 21
2.1653543307086611
 31
0.0
  0
ARC
  8
outer_boundary
 10
7.9458661417322833
 20
2.2903543307086611
 30
0.0
 40
0.125
 50
270.0
 51
0.0
  0
LINE
  8
outer_boundary
 10
8.8582677165354333
 20
7.1584645669291334
 30
0.0
 11
8.8582677165354333
 21
2.2903543307086611
 31
0.0
  0
ARC
  8
outer_boundary
 10
8.7332677165354333
 20
7.1584645669291334
 30
0.0
 40
0.125
 50
0.0
 51
90.0
  0
LINE
  8
outer_boundary
 10
8.0708661417322833
 20
2.2903543307086611
 30
0.0
 11
8.0708661417322833
 21
7.1584645669291334
 31
0.0
  0
LINE
  8
outer_boundary
 10
8.1958661417322833
 20
7.2834645669291334
 30
0.0
 11
8.7332677165354333
 21
7.2834645669291334
 31
0.0
  0
ARC
  8
outer_boundary
 10
8.1958661417322833
 20
7.1584645669291334
 30
0.0
 40
0.125
 50
90.0
 51
180.0
  0
LINE
  8
outer_boundary
 10
7.4803149606299204
 20
0.8592519685039368
 30
0.0
 11
7.4803149606299213
 21
0.518700787401575
 31
0.0
  0
LINE
  8
outer_boundary
 10
9.9143700787401556
 20
0.984251968503937
 30
0.0
 11
7.6053149606299204
 21
0.984251968503937
 31
0.0
  0
ARC
  8
outer_boundary
 10
7.6053100000000002
 20
0.859252
 30
0.0
 40
0.125
 50
90.0
 51
180.0
  0
LINE
  8
tube_clamp_pocket_left
 10
2.5059100000000001
 20
1.1811
 30
0.0
 11
3.0059100000000001
 21
1.1811
 31
0.0
  0
LINE
  8
tube_clamp_pocket_right
 10
6.8366100000000003
 20
1.1811
 30
0.0
 11
7.3366100000000003
 21
1.1811
 31
0.0
  0
CIRCLE
  8
drill_10-32_tap
 10
7.0866141732283463
 20
0.753700787401575
 30
0.0
 40
0.0795
  0
CIRCLE
  8
drill_10-32_tap
 10
2.7559055118110236
 20
0.7537007874015745
 30
0.0
 40
0.0795
  0
LINE
  8
tube_clamp_pocket_left
 10
2.5059100000000001
 20
1.1811
 30
0.0
 11
2.5059100000000001
 21
0.125
 31
0.0
  0
LINE
  8
tube_clamp_pocket_left
 10
3.0059100000000001
 20
1.1811
 30
0.0
 11
3.0059100000000001
 21
0.125
 31
0.0
  0
LINE
  8
tube_clamp_pocket_left
 10
2.5059100000000001
 20
0.125
 30
0.0
 11
3.0059100000000001
 21
0.125
 31
0.0
  0
LINE
  8
tube_clamp_pocket_right
 10
6.8366100000000003
 20
0.125
 30
0.0
 11
7.3366100000000003
 21
0.125
 31
0.0
  0
LINE
  8
tube_clamp_pocket_right
 10
6.8366100000000003
 20
1.1811
 30
0.0
 11
6.8366100000000003
 21
0.125
 31
0.0
  0
LINE
  8
tube_clamp_pocket_right
 10
7.3366100000000003
 20
0.125
 30
0.0
 11
7.3366100000000003
 21
1.1811
 31
0.0
  0
LINE
  8
cable_slot_center
 10
1.9354330708661402
 20
8.5251968503936979
 30
0.0
 11
1.9354330708661402
 21
8.5251968503936979
 31
0.0
  0
LINE
  8
cable_slot_boundary
 10
9.6844488188976356
 20
8.4001968503936979
 30
0.0
 11
2.0604330708661402
 21
8.4001968503936979
 31
0.0
  0
LINE
  8
cable_slot_boundary
 10
9.8094488188976356
 20
8.6501968503937015
 30
0.0
 11
1.8104330708661402
 21
8.6501968503936979
 31
0.0
  0
ARC
  8
cable_slot_boundary
 10
9.8094488188976356
 20
8.5251968503936979
 30
0.0
 40
0.125
 50
360.0
 51
90.0
  0
CIRCLE
  8
drill_4-40_tap
 10
10.0456692913385837
 20
4.1944881889763765
 30
0.0
 40
0.0444881889763779
  0
CIRCLE
  8
drill_4-40_tap
 10
10.0456692913385801
 20
6.5566929133858247
 30
0.0
 40
0.0444881889763779
  0
LINE
  8
cable_slot_center
 10
9.8094488188976356
 20
8.5251968503936979
 30
0.0
 11
1.9354330708661402
 21
8.5251968503936979
 31
0.0
  0
CIRCLE
  8
drill_4-40_tap
 10
7.0535433070866143
 20
8.7614173228346459
 30
0.0
 40
0.0444881889763779
  0
CIRCLE
  8
drill_4-40_tap
 10
4.6913385826771661
 20
8.7614173228346495
 30
0.0
 40
0.0444881889763779
  0
CIRCLE
  8
drill_4-40_tap
 10
7.0535433070866143
 20
8.2889763779527534
 30
0.0
 40
0.0444881889763779
  0
CIRCLE
  8
drill_4-40_tap
 10
4.6913385826771652
 20
8.288976377952757
 30
0.0
 40
0.0444881889763779
  0
CIRCLE
  8
drill_4-40_tap
 10
9.4157480314960615
 20
8.2889763779527534
 30
0.0
 40
0.0444881889763779
  0
CIRCLE
  8
drill_4-40_tap
 10
2.3291338582677179
 20
8.2889763779527605
 30
0.0
 40
0.0444881889763779
  0
CIRCLE
  8
drill_4-40_tap
 10
9.8094488188976356
 20
8.7614173228346459
 30
0.0
 40
0.0444881889763779
  0
CIRCLE
  8
drill_4-40_tap
 10
1.9354330708661402
 20
8.7614173228346424
 30
0.0
 40
0.0444881889763779
  0
CIRCLE
  8
drill_4-40_tap
 10
9.5732283464566912
 20
6.5566929133858247
 30
0.0
 40
0.0444881889763779
  0
CIRCLE
  8
drill_4-40_tap
 10
2.1716535433070847
 20
4.1944881889763801
 30
0.0
 40
0.0444881889763779
  0
CIRCLE
  8
drill_4-40_tap
 10
1.699212598425194
 20
4.1944881889763801
 30
0.0
 40
0.0444881889763779
  0
CIRCLE
  8
drill_4-40_tap
 10
2.1716535433070883
 20
6.5566929133858283
 30
0.0
 40
0.0444881889763779
  0
CIRCLE
  8
drill_4-40_tap
 10
1.6992125984251958
 20
6.5566929133858229
 30
0.0
 40
0.0444881889763779
  0
CIRCLE
  8
drill_2-56_tap
 10
0.561417322834644
 20
8.185196850393698
 30
0.0
 40
0.035
  0
CIRCLE
  8
drill_2-56_tap
 10
0.561417322834644
 20
8.8651968503936907
 30
0.0
 40
0.035
  0
CIRCLE
  8
drill_2-56_tap
 10
0.9606299212598417
 20
8.1851968503937016
 30
0.0
 40
0.035
  0
CIRCLE
  8
drill_2-56_tap
 10
0.9606299212598417
 20
8.8651968503937013
 30
0.0
 40
0.035
  0
LINE
  8
cable_slot_boundary
 10
9.9344488188976392
 20
3.9976377952755913
 30
0.0
 11
9.9344488188976392
 21
8.5251968503936979
 31
0.0
  0
LINE
  8
cable_slot_boundary
 10
9.6844488188976356
 20
3.9976377952755913
 30
0.0
 11
9.6844488188976356
 21
8.4001968503936979
 31
0.0
  0
ARC
  8
cable_slot_boundary
 62
4
  6
CONTINUOUS
 10
9.8094488188976356
 20
3.9976377952755913
 30
0.0
 40
0.125
 50
180.0
 51
360.0
  0
LINE
  8
cable_slot_center
 10
9.8094488188976356
 20
3.9976377952755913
 30
0.0
 11
9.8094488188976356
 21
8.5251968503936979
 31
0.0
  0
LINE
  8
cable_slot_boundary
 10
2.0604330708661367
 20
3.9976377952755957
 30
0.0
 11
2.0604330708661402
 21
8.4001968503936979
 31
0.0
  0
LINE
  8
cable_slot_boundary
 10
1.8104330708661385
 20
3.9976377952755939
 30
0.0
 11
1.8124015748031477
 21
8.4001968503937015
 31
0.0
  0
LINE
  8
cable_slot_center
 10
1.9354330708661402
 20
8.5251968503936979
 30
0.0
 11
1.9354330708661385
 21
3.997637795275593
 31
0.0
  0
ARC
  8
cable_slot_boundary
 62
4
  6
CONTINUOUS
 10
1.9354330708661385
 20
3.997637795275593
 30
0.0
 40
0.125
 50
180.0
 51
360.0
  0
LINE
  8
cable_slot_center
 10
1.5417322834645661
 20
8.5251968503936979
 30
0.0
 11
1.9354330708661402
 21
8.5251968503936979
 31
0.0
  0
ARC
  8
cover_plate_boundary
 10
10.0899606299212543
 20
4.1501968503937023
 30
0.0
 40
0.0738188976377953
 50
270.0
 51
360.0
  0
LINE
  8
cover_plate_boundary
 10
10.0899606299212543
 20
4.0763779527559025
 30
0.0
 11
9.5289370078740099
 21
4.0763779527559025
 31
0.0
  0
ARC
  8
cover_plate_boundary
 10
9.5289370078740099
 20
4.1501968503937023
 30
0.0
 40
0.0738188976377953
 50
180.0
 51
270.0
  0
LINE
  8
cover_plate_boundary
 10
10.1637795275590541
 20
4.1501968503937023
 30
0.0
 11
10.1637795275590541
 21
8.8057086614173201
 31
0.0
  0
LINE
  8
cover_plate_boundary
 10
10.0899606299212579
 20
8.8795275590551164
 30
0.0
 11
1.8173228346456698
 21
8.8795275590551164
 31
0.0
  0
ARC
  8
cover_plate_boundary
 10
10.0899606299212579
 20
8.8057086614173201
 30
0.0
 40
0.0738188976377953
 50
360.0
 51
90.0
  0
LINE
  8
cover_plate_boundary
 10
9.4551181102362207
 20
8.0970472440944867
 30
0.0
 11
9.4551181102362172
 21
4.1501968503937023
 31
0.0
  0
ARC
  8
cover_plate_boundary
 10
9.3812992125984245
 20
8.0970472440944867
 30
0.0
 40
0.0738188976377953
 50
360.0
 51
89.9999999999994458
  0
LINE
  8
cover_plate_boundary
 10
2.363582677165355
 20
8.1708661417322865
 30
0.0
 11
9.3812992125984245
 21
8.170866141732283
 31
0.0
  0
ARC
  8
cover_plate_boundary
 10
2.363582677165355
 20
8.0970472440944903
 30
0.0
 40
0.0738188976377953
 50
90.0
 51
180.0
  0
LINE
  8
cover_plate_boundary
 10
1.654921259842518
 20
8.8795275590551164
 30
0.0
 11
1.8173228346456698
 21
8.8795275590551164
 31
0.0
  0
ARC
  8
cover_plate_boundary
 10
1.654921259842518
 20
8.8057086614173237
 30
0.0
 40
0.0738188976377953
 50
90.0
 51
180.0
  0
LINE
  8
cover_plate_boundary
 10
1.5811023622047253
 20
4.1501968503937041
 30
0.0
 11
1.5811023622047253
 21
8.8057086614173237
 31
0.0
  0
ARC
  8
cover_plate_boundary
 10
1.6549212598425163
 20
4.1501968503937059
 30
0.0
 40
0.0738188976377953
 50
180.0
 51
270.0
  0
LINE
  8
cover_plate_boundary
 10
2.2159448818897625
 20
4.0763779527559034
 30
0.0
 11
1.654921259842518
 21
4.0763779527559016
 31
0.0
  0
LINE
  8
cover_plate_boundary
 10
2.2897637795275587
 20
4.1501968503937041
 30
0.0
 11
2.2897637795275587
 21
8.0970472440944903
 31
0.0
  0
ARC
  8
cover_plate_boundary
 10
2.2159448818897625
 20
4.1501968503937023
 30
0.0
 40
0.0738188976377953
 50
270.0
 51
360.0
  0
ARC
  8
cable_slot_boundary
 62
4
  6
CONTINUOUS
 10
1.3448818897637773
 20
8.525196850393705
 30
0.0
 40
0.125
 50
90.0
 51
270.0
  0
LINE
  8
cable_slot_boundary
 10
1.8124015748031477
 20
8.4001968503937015
 30
0.0
 11
1.3448818897637773
 21
8.4001968503937015
 31
0.0
  0
LINE
  8
cable_slot_boundary
 10
1.8104330708661402
 20
8.6501968503936979
 30
0.0
 11
1.3448818897637773
 21
8.6501968503936979
 31
0.0
  0
CIRCLE
  8
drill_4-40_tap
 10
9.5732283464566912
 20
4.1944881889763765
 30
0.0
 40
0.0444881889763779
  0
LINE
  8
sensor_mount_lines
 10
10.2031496062992098
 20
3.0133858267716507
 30
0.0
 11
9.8094488188976356
 21
3.0133858267716516
 31
0.0
  0
LINE
  8
sensor_mount_lines
 10
10.2031496062992133
 20
3.7633858267716507
 30
0.0
 11
9.8094488188976392
 21
3.7633858267716507
 31
0.0
  0
LINE
  8
sensor_mount_lines
 10
1.5417322834645661
 20
3.0133858267716516
 30
0.0
 11
1.9354330708661402
 21
3.0133858267716507
 31
0.0
  0
LINE
  8
sensor_mount_lines
 10
1.5417322834645644
 20
3.7633858267716516
 30
0.0
 11
1.9354330708661385
 21
3.7633858267716516
 31
0.0
  0
CIRCLE
  8
drill_4-40_thru
 10
9.8094488188976321
 20
3.4070866141732292
 30
0.0
 40
0.058
  0
CIRCLE
  8
drill_4-40_thru
 10
9.8094488188976356
 20
5.3755905511811024
 30
0.0
 40
0.058
  0
CIRCLE
  8
drill_4-40_thru
 10
9.8094488188976356
 20
8.1314960629921238
 30
0.0
 40
0.058
  0
CIRCLE
  8
drill_4-40_thru
 10
5.8724409448818884
 20
8.5251968503936979
 30
0.0
 40
0.058
  0
CIRCLE
  8
drill_4-40_thru
 10
1.9354330708661402
 20
8.1314960629921238
 30
0.0
 40
0.058
  0
CIRCLE
  8
drill_4-40_thru
 10
1.9354330708661402
 20
5.3755905511811024
 30
0.0
 40
0.058
  0
CIRCLE
  8
drill_4-40_thru
 10
1.9354330708661402
 20
3.4070866141732283
 30
0.0
 40
0.058
  0
ARC
  8
outer_boundary
 10
9.5407480314960615
 20
2.9415354330708654
 30
0.0
 40
0.125
 50
180.0
 51
270.0
  0
LINE
  8
outer_boundary
 10
10.0781496062992133
 20
2.8165354330708654
 30
0.0
 11
9.5407480314960615
 21
2.8165354330708654
 31
0.0
  0
ARC
  8
outer_boundary
 10
10.0781496062992098
 20
2.9415354330708654
 30
0.0
 40
0.125
 50
270.0
 51
360.0
  0
LINE
  8
outer_boundary
 10
9.4157480314960615
 20
2.9415354330708654
 30
0.0
 11
9.4157480314960615
 21
7.8096456692913359
 31
0.0
  0
ARC
  8
outer_boundary
 10
9.2907480314960615
 20
7.8096456692913359
 30
0.0
 40
0.125
 50
360.0
 51
90.0
  0
LINE
  8
outer_boundary
 10
10.2031496062992133
 20
2.9415354330708654
 30
0.0
 11
10.2031496062992133
 21
8.9907480314960608
 31
0.0
  0
ARC
  8
outer_boundary
 10
10.0781496062992133
 20
8.9907480314960608
 30
0.0
 40
0.125
 50
360.0
 51
90.0
  0
LINE
  8
outer_boundary
 10
10.0781496062992133
 20
9.1157480314960608
 30
0.0
 11
8.1627952755905504
 21
9.1157480314960608
 31
0.0
  0
ARC
  8
outer_boundary
 10
8.1627952755905504
 20
9.2407480314960608
 30
0.0
 40
0.125
 50
180.0
 51
270.0
  0
ARC
  8
outer_boundary
 10
7.1253937007873995
 20
9.2407480314960608
 30
0.0
 40
0.125
 50
270.0
 51
360.0
  0
LINE
  8
outer_boundary
 10
8.0377952755905504
 20
9.5812992125984273
 30
0.0
 11
8.0377952755905504
 21
9.2407480314960644
 31
0.0
  0
ARC
  8
outer_boundary
 10
7.9127952755905513
 20
9.5812992125984238
 30
0.0
 40
0.125
 50
360.0
 51
90.0
  0
LINE
  8
outer_boundary
 10
7.3753937007873995
 20
9.7062992125984238
 30
0.0
 11
7.9127952755905513
 21
9.7062992125984273
 31
0.0
  0
LINE
  8
outer_boundary
 10
7.2503937007873995
 20
9.2407480314960608
 30
0.0
 11
7.2503937007873995
 21
9.5812992125984273
 31
0.0
  0
ARC
  8
outer_boundary
 10
7.3753937007873995
 20
9.5812992125984273
 30
0.0
 40
0.125
 50
89.9999999999999005
 51
180.0
  0
LINE
  8
outer_boundary
 10
3.832086614173229
 20
9.1157480314960679
 30
0.0
 11
7.1253937007873995
 21
9.1157480314960608
 31
0.0
  0
ARC
  8
outer_boundary
 10
3.832086614173229
 20
9.2407480314960608
 30
0.0
 40
0.125
 50
180.0
 51
270.0
  0
LINE
  8
outer_boundary
 10
3.707086614173229
 20
9.5812992125984167
 30
0.0
 11
3.707086614173229
 21
9.2407480314960608
 31
0.0
  0
ARC
  8
outer_boundary
 10
3.582086614173229
 20
9.5812992125984238
 30
0.0
 40
0.125
 50
360.0
 51
90.0
  0
LINE
  8
outer_boundary
 10
3.0446850393700773
 20
9.7062992125984202
 30
0.0
 11
3.582086614173229
 21
9.7062992125984344
 31
0.0
  0
ARC
  8
outer_boundary
 10
3.0446850393700773
 20
9.5812992125984273
 30
0.0
 40
0.125
 50
90.0
 51
180.0
  0
ARC
  8
outer_boundary
 10
0.4856299212598438
 20
8.9907480314960608
 30
0.0
 40
0.125
 50
90.0
 51
180.0
  0
LINE
  8
outer_boundary
 10
0.3606299212598438
 20
8.0596456692913385
 30
0.0
 11
0.3606299212598438
 21
8.9907480314960679
 31
0.0
  0
ARC
  8
outer_boundary
 10
0.4856299212598438
 20
8.0596456692913385
 30
0.0
 40
0.125
 50
180.0
 51
270.0
  0
LINE
  8
outer_boundary
 10
1.4167322834645661
 20
7.9346456692913376
 30
0.0
 11
0.4856299212598438
 21
7.9346456692913394
 31
0.0
  0
ARC
  8
outer_boundary
 10
1.4167322834645661
 20
7.8096456692913394
 30
0.0
 40
0.125
 50
360.0
 51
90.0
  0
LINE
  8
outer_boundary
 10
9.2907480314960615
 20
7.9346456692913394
 30
0.0
 11
2.4541338582677179
 21
7.9346456692913376
 31
0.0
  0
ARC
  8
outer_boundary
 10
2.4541338582677179
 20
7.8096456692913412
 30
0.0
 40
0.125
 50
90.0
 51
180.0
  0
LINE
  8
outer_boundary
 10
1.5417322834645644
 20
2.9415354330708672
 30
0.0
 11
1.5417322834645661
 21
7.8096456692913376
 31
0.0
  0
ARC
  8
outer_boundary
 10
1.6667322834645661
 20
2.9415354330708663
 30
0.0
 40
0.125
 50
180.0
 51
270.0
  0
LINE
  8
outer_boundary
 10
2.3291338582677179
 20
7.8096456692913394
 30
0.0
 11
2.3291338582677179
 21
2.9415354330708636
 31
0.0
  0
LINE
  8
outer_boundary
 10
2.2041338582677197
 20
2.8165354330708645
 30
0.0
 11
1.6667322834645644
 21
2.8165354330708681
 31
0.0
  0
ARC
  8
outer_boundary
 10
2.2041338582677161
 20
2.9415354330708663
 30
0.0
 40
0.125
 50
270.0
 51
360.0
  0
LINE
  8
outer_boundary
 10
2.9196850393700808
 20
9.2407480314960679
 30
0.0
 11
2.9196850393700773
 21
9.5812992125984238
 31
0.0
  0
LINE
  8
outer_boundary
 10
0.4856299212598438
 20
9.1157480314960644
 30
0.0
 11
2.7946850393700808
 21
9.1157480314960679
 31
0.0
  0
ARC
  8
outer_boundary
 10
2.7946900000000001
 20
9.240748
 30
0.0
 40
0.125
 50
270.0
 51
360.0
  0
LINE
  8
tube_clamp_pocket_left
 10
7.8940899999999994
 20
8.9188999999999972
 30
0.0
 11
7.3940899999999994
 21
8.9188999999999972
 31
0.0
  0
LINE
  8
tube_clamp_pocket_right
 10
3.5633899999999992
 20
8.9189000000000007
 30
0.0
 11
3.0633899999999992
 21
8.9189000000000007
 31
0.0
  0
CIRCLE
  8
drill_10-32_tap
 10
3.3133858267716514
 20
9.3462992125984208
 30
0.0
 40
0.0795
  0
CIRCLE
  8
drill_10-32_tap
 10
7.6440944881889754
 20
9.3462992125984243
 30
0.0
 40
0.0795
  0
LINE
  8
tube_clamp_pocket_left
 10
7.8940899999999994
 20
8.9188999999999972
 30
0.0
 11
7.8940899999999994
 21
9.9749999999999979
 31
0.0
  0
LINE
  8
tube_clamp_pocket_left
 10
7.3940899999999994
 20
8.9188999999999972
 30
0.0
 11
7.3940899999999994
 21
9.9749999999999979
 31
0.0
  0
LINE
  8
tube_clamp_pocket_left
 10
7.8940899999999994
 20
9.9749999999999979
 30
0.0
 11
7.3940899999999994
 21
9.9749999999999979
 31
0.0
  0
LINE
  8
tube_clamp_pocket_right
 10
3.5633899999999992
 20
9.9749999999999908
 30
0.0
 11
3.0633899999999992
 21
9.9750000000000156
 31
0.0
  0
LINE
  8
tube_clamp_pocket_right
 10
3.5633899999999992
 20
8.9189000000000007
 30
0.0
 11
3.5633899999999992
 21
9.9749999999999908
 31
0.0
  0
LINE
  8
tube_clamp_pocket_right
 10
3.0633899999999992
 20
9.9750000000000156
 30
0.0
 11
3.0633899999999992
 21
8.9189000000000007
 31
0.0
  0
ENDSEC
  0
EOF
