999
dxflib 2.0.4.8
  0
SECTION
  2
HEADER
  9
$ACADVER
  1
AC1015
  9
$HANDSEED
  5
FFFF
  9
$DIMASZ
 40
2.5
  9
$DIMGAP
 40
0.625
  9
$DIMEXO
 40
0.625
  9
$INSUNITS
 70
4
  9
$DIMTXT
 40
2.5
  9
$DIMSTYLE
  2
Standard
  9
$PLIMMAX
 10
210.0
 20
297.0
  9
$PLIMMIN
 10
0.0
 20
0.0
  9
$DIMEXE
 40
1.25
  0
ENDSEC
  0
SECTION
  2
TABLES
  0
TABLE
  2
VPORT
  5
8
100
AcDbSymbolTable
 70
1
  0
VPORT
  5
30
100
AcDbSymbolTableRecord
100
AcDbViewportTableRecord
  2
*Active
 70
0
 10
0.0
 20
0.0
 11
1.0
 21
1.0
 12
286.3055555555554861
 22
148.5
 13
0.0
 23
0.0
 14
10.0
 24
10.0
 15
10.0
 25
10.0
 16
0.0
 26
0.0
 36
1.0
 17
0.0
 27
0.0
 37
0.0
 40
297.0
 41
1.92798353909465
 42
50.0
 43
0.0
 44
0.0
 50
0.0
 51
0.0
 71
0
 72
100
 73
1
 74
3
 75
1
 76
1
 77
0
 78
0
281
0
 65
1
110
0.0
120
0.0
130
0.0
111
1.0
121
0.0
131
0.0
112
0.0
122
1.0
132
0.0
 79
0
146
0.0
  0
ENDTAB
  0
TABLE
  2
LTYPE
  5
5
100
AcDbSymbolTable
 70
21
  0
LTYPE
  5
14
100
AcDbSymbolTableRecord
100
AcDbLinetypeTableRecord
  2
ByBlock
 70
0
  3

 72
65
 73
0
 40
0.0
  0
LTYPE
  5
15
100
AcDbSymbolTableRecord
100
AcDbLinetypeTableRecord
  2
ByLayer
 70
0
  3

 72
65
 73
0
 40
0.0
  0
LTYPE
  5
16
100
AcDbSymbolTableRecord
100
AcDbLinetypeTableRecord
  2
CONTINUOUS
 70
0
  3
Solid line
 72
65
 73
0
 40
0.0
  0
LTYPE
  5
31
100
AcDbSymbolTableRecord
100
AcDbLinetypeTableRecord
  2
DOT
 70
0
  3
Dot . . . . . . . . . . . . . . . . . . . . . .
 72
65
 73
2
 40
6.3499999999999996
 49
0.0
 74
0
 49
-6.3499999999999996
 74
0
  0
LTYPE
  5
32
100
AcDbSymbolTableRecord
100
AcDbLinetypeTableRecord
  2
DOT2
 70
0
  3
Dot (.5x) .....................................
 72
65
 73
2
 40
3.1749999999999998
 49
0.0
 74
0
 49
-3.1749999999999998
 74
0
  0
LTYPE
  5
33
100
AcDbSymbolTableRecord
100
AcDbLinetypeTableRecord
  2
DOTX2
 70
0
  3
Dot (2x) .  .  .  .  .  .  .  .  .  .  .  .  .
 72
65
 73
2
 40
12.6999999999999993
 49
0.0
 74
0
 49
-12.6999999999999993
 74
0
  0
LTYPE
  5
34
100
AcDbSymbolTableRecord
100
AcDbLinetypeTableRecord
  2
DASHED
 70
0
  3
Dashed __ __ __ __ __ __ __ __ __ __ __ __ __ _
 72
65
 73
2
 40
19.0500000000000007
 49
12.6999999999999993
 74
0
 49
-6.3499999999999996
 74
0
  0
LTYPE
  5
35
100
AcDbSymbolTableRecord
100
AcDbLinetypeTableRecord
  2
DASHED2
 70
0
  3
Dashed (.5x) _ _ _ _ _ _ _ _ _ _ _ _ _ _ _ _ _
 72
65
 73
2
 40
9.5250000000000004
 49
6.3499999999999996
 74
0
 49
-3.1749999999999998
 74
0
  0
LTYPE
  5
36
100
AcDbSymbolTableRecord
100
AcDbLinetypeTableRecord
  2
DASHEDX2
 70
0
  3
Dashed (2x) ____  ____  ____  ____  ____  ___
 72
65
 73
2
 40
38.1000000000000014
 49
25.3999999999999986
 74
0
 49
-12.6999999999999993
 74
0
  0
LTYPE
  5
37
100
AcDbSymbolTableRecord
100
AcDbLinetypeTableRecord
  2
DASHDOT
 70
0
  3
Dash dot __ . __ . __ . __ . __ . __ . __ . __
 72
65
 73
4
 40
25.3999999999999986
 49
12.6999999999999993
 74
0
 49
-6.3499999999999996
 74
0
 49
0.0
 74
0
 49
-6.3499999999999996
 74
0
  0
LTYPE
  5
38
100
AcDbSymbolTableRecord
100
AcDbLinetypeTableRecord
  2
DASHDOT2
 70
0
  3
Dash dot (.5x) _._._._._._._._._._._._._._._.
 72
65
 73
4
 40
12.6999999999999993
 49
6.3499999999999996
 74
0
 49
-3.1749999999999998
 74
0
 49
0.0
 74
0
 49
-3.1749999999999998
 74
0
  0
LTYPE
  5
39
100
AcDbSymbolTableRecord
100
AcDbLinetypeTableRecord
  2
DASHDOTX2
 70
0
  3
Dash dot (2x) ____  .  ____  .  ____  .  ___
 72
65
 73
4
 40
50.7999999999999972
 49
25.3999999999999986
 74
0
 49
-12.6999999999999993
 74
0
 49
0.0
 74
0
 49
-12.6999999999999993
 74
0
  0
LTYPE
  5
3A
100
AcDbSymbolTableRecord
100
AcDbLinetypeTableRecord
  2
DIVIDE
 70
0
  3
Divide ____ . . ____ . . ____ . . ____ . . ____
 72
65
 73
6
 40
31.75
 49
12.6999999999999993
 74
0
 49
-6.3499999999999996
 74
0
 49
0.0
 74
0
 49
-6.3499999999999996
 74
0
 49
0.0
 74
0
 49
-6.3499999999999996
 74
0
  0
LTYPE
  5
3B
100
AcDbSymbolTableRecord
100
AcDbLinetypeTableRecord
  2
DIVIDE2
 70
0
  3
Divide (.5x) __..__..__..__..__..__..__..__.._
 72
65
 73
6
 40
15.875
 49
6.3499999999999996
 74
0
 49
-3.1749999999999998
 74
0
 49
0.0
 74
0
 49
-3.1749999999999998
 74
0
 49
0.0
 74
0
 49
-3.1749999999999998
 74
0
  0
LTYPE
  5
3C
100
AcDbSymbolTableRecord
100
AcDbLinetypeTableRecord
  2
DIVIDEX2
 70
0
  3
Divide (2x) ________  .  .  ________  .  .  _
 72
65
 73
6
 40
63.5
 49
25.3999999999999986
 74
0
 49
-12.6999999999999993
 74
0
 49
0.0
 74
0
 49
-12.6999999999999993
 74
0
 49
0.0
 74
0
 49
-12.6999999999999993
 74
0
  0
LTYPE
  5
3D
100
AcDbSymbolTableRecord
100
AcDbLinetypeTableRecord
  2
CENTER
 70
0
  3
Center ____ _ ____ _ ____ _ ____ _ ____ _ ____
 72
65
 73
4
 40
50.7999999999999972
 49
31.75
 74
0
 49
-6.3499999999999996
 74
0
 49
6.3499999999999996
 74
0
 49
-6.3499999999999996
 74
0
  0
LTYPE
  5
3E
100
AcDbSymbolTableRecord
100
AcDbLinetypeTableRecord
  2
CENTER2
 70
0
  3
Center (.5x) ___ _ ___ _ ___ _ ___ _ ___ _ ___
 72
65
 73
4
 40
28.5749999999999993
 49
19.0500000000000007
 74
0
 49
-3.1749999999999998
 74
0
 49
3.1749999999999998
 74
0
 49
-3.1749999999999998
 74
0
  0
LTYPE
  5
3F
100
AcDbSymbolTableRecord
100
AcDbLinetypeTableRecord
  2
CENTERX2
 70
0
  3
Center (2x) ________  __  ________  __  _____
 72
65
 73
4
 40
101.5999999999999943
 49
63.5
 74
0
 49
-12.6999999999999993
 74
0
 49
12.6999999999999993
 74
0
 49
-12.6999999999999993
 74
0
  0
LTYPE
  5
40
100
AcDbSymbolTableRecord
100
AcDbLinetypeTableRecord
  2
BORDER
 70
0
  3
Border __ __ . __ __ . __ __ . __ __ . __ __ .
 72
65
 73
6
 40
44.4500000000000028
 49
12.6999999999999993
 74
0
 49
-6.3499999999999996
 74
0
 49
12.6999999999999993
 74
0
 49
-6.3499999999999996
 74
0
 49
0.0
 74
0
 49
-6.3499999999999996
 74
0
  0
LTYPE
  5
41
100
AcDbSymbolTableRecord
100
AcDbLinetypeTableRecord
  2
BORDER2
 70
0
  3
Border (.5x) __.__.__.__.__.__.__.__.__.__.__.
 72
65
 73
6
 40
22.2250000000000014
 49
6.3499999999999996
 74
0
 49
-3.1749999999999998
 74
0
 49
6.3499999999999996
 74
0
 49
-3.1749999999999998
 74
0
 49
0.0
 74
0
 49
-3.1749999999999998
 74
0
  0
LTYPE
  5
42
100
AcDbSymbolTableRecord
100
AcDbLinetypeTableRecord
  2
BORDERX2
 70
0
  3
Border (2x) ____  ____  .  ____  ____  .  ___
 72
65
 73
6
 40
88.9000000000000057
 49
25.3999999999999986
 74
0
 49
-12.6999999999999993
 74
0
 49
25.3999999999999986
 74
0
 49
-12.6999999999999993
 74
0
 49
0.0
 74
0
 49
-12.6999999999999993
 74
0
  0
ENDTAB
  0
TABLE
  2
LAYER
  5
2
100
AcDbSymbolTable
 70
1
  0
LAYER
  5
10
100
AcDbSymbolTableRecord
100
AcDbLayerTableRecord
  2
0
 70
0
 62
7
  6
CONTINUOUS
370
0
390
F
  0
ENDTAB
  0
TABLE
  2
STYLE
  5
3
100
AcDbSymbolTable
 70
1
  0
STYLE
  5
11
100
AcDbSymbolTableRecord
100
AcDbTextStyleTableRecord
  2
Standard
 70
0
 40
0.0
 41
0.75
 50
0.0
 71
0
 42
2.5
  3
txt
  4

  0
ENDTAB
  0
TABLE
  2
VIEW
  5
6
100
AcDbSymbolTable
 70
0
  0
ENDTAB
  0
TABLE
  2
UCS
  5
7
100
AcDbSymbolTable
 70
0
  0
ENDTAB
  0
TABLE
  2
APPID
  5
9
100
AcDbSymbolTable
 70
1
  0
APPID
  5
12
100
AcDbSymbolTableRecord
100
AcDbRegAppTableRecord
  2
ACAD
 70
0
  0
ENDTAB
  0
TABLE
  2
DIMSTYLE
  5
A
100
AcDbSymbolTable
 70
1
100
AcDbDimStyleTable
 71
0
  0
DIMSTYLE
105
27
100
AcDbSymbolTableRecord
100
AcDbDimStyleTableRecord
  2
Standard
 41
2.5
 42
0.625
 43
3.75
 44
1.25
 70
0
 73
0
 74
0
 77
1
 78
8
140
2.5
141
2.5
143
0.03937007874016
147
0.625
171
3
172
1
271
2
272
2
274
3
278
44
283
0
284
8
340
11
  0
ENDTAB
  0
TABLE
  2
BLOCK_RECORD
  5
1
100
AcDbSymbolTable
 70
1
  0
BLOCK_RECORD
  5
1F
100
AcDbSymbolTableRecord
100
AcDbBlockTableRecord
  2
*Model_Space
340
22
  0
BLOCK_RECORD
  5
1B
100
AcDbSymbolTableRecord
100
AcDbBlockTableRecord
  2
*Paper_Space
340
1E
  0
BLOCK_RECORD
  5
23
100
AcDbSymbolTableRecord
100
AcDbBlockTableRecord
  2
*Paper_Space0
340
26
  0
ENDTAB
  0
ENDSEC
  0
SECTION
  2
BLOCKS
  0
BLOCK
  5
20
100
AcDbEntity
  8
0
100
AcDbBlockBegin
  2
*Model_Space
 70
0
 10
0.0
 20
0.0
 30
0.0
  3
*Model_Space
  1

  0
ENDBLK
  5
21
100
AcDbEntity
  8
0
100
AcDbBlockEnd
  0
BLOCK
  5
1C
100
AcDbEntity
 67
1
  8
0
100
AcDbBlockBegin
  2
*Paper_Space
 70
0
 10
0.0
 20
0.0
 30
0.0
  3
*Paper_Space
  1

  0
ENDBLK
  5
1D
100
AcDbEntity
 67
1
  8
0
100
AcDbBlockEnd
  0
BLOCK
  5
24
100
AcDbEntity
  8
0
100
AcDbBlockBegin
  2
*Paper_Space0
 70
0
 10
0.0
 20
0.0
 30
0.0
  3
*Paper_Space0
  1

  0
ENDBLK
  5
25
100
AcDbEntity
  8
0
100
AcDbBlockEnd
  0
ENDSEC
  0
SECTION
  2
ENTITIES
  0
LINE
  5
43
100
AcDbEntity
100
AcDbLine
  8
0
 62
256
370
-1
  6
ByLayer
 10
-12.6999999999999993
 20
-5.0800000000000001
 30
0.0
 11
-12.6999999999999993
 21
5.0800000000000001
 31
0.0
  0
LINE
  5
44
100
AcDbEntity
100
AcDbLine
  8
0
 62
256
370
-1
  6
ByLayer
 10
-12.6999999999999993
 20
5.0800000000000001
 30
0.0
 11
-12.6950000000000003
 21
5.2389999999999999
 31
0.0
  0
LINE
  5
45
100
AcDbEntity
100
AcDbLine
  8
0
 62
256
370
-1
  6
ByLayer
 10
-12.6950000000000003
 20
5.2389999999999999
 30
0.0
 11
-12.6799999999999997
 21
5.3979999999999997
 31
0.0
  0
LINE
  5
46
100
AcDbEntity
100
AcDbLine
  8
0
 62
256
370
-1
  6
ByLayer
 10
-12.6799999999999997
 20
5.3979999999999997
 30
0.0
 11
-12.6549999999999994
 21
5.556
 31
0.0
  0
LINE
  5
47
100
AcDbEntity
100
AcDbLine
  8
0
 62
256
370
-1
  6
ByLayer
 10
-12.6549999999999994
 20
5.556
 30
0.0
 11
-12.6199999999999992
 21
5.7119999999999997
 31
0.0
  0
LINE
  5
48
100
AcDbEntity
100
AcDbLine
  8
0
 62
256
370
-1
  6
ByLayer
 10
-12.6199999999999992
 20
5.7119999999999997
 30
0.0
 11
-12.5760000000000005
 21
5.8650000000000002
 31
0.0
  0
LINE
  5
49
100
AcDbEntity
100
AcDbLine
  8
0
 62
256
370
-1
  6
ByLayer
 10
-12.5760000000000005
 20
5.8650000000000002
 30
0.0
 11
-12.5220000000000002
 21
6.0149999999999997
 31
0.0
  0
LINE
  5
4A
100
AcDbEntity
100
AcDbLine
  8
0
 62
256
370
-1
  6
ByLayer
 10
-12.5220000000000002
 20
6.0149999999999997
 30
0.0
 11
-12.4580000000000002
 21
6.1609999999999996
 31
0.0
  0
LINE
  5
4B
100
AcDbEntity
100
AcDbLine
  8
0
 62
256
370
-1
  6
ByLayer
 10
-12.4580000000000002
 20
6.1609999999999996
 30
0.0
 11
-12.3859999999999992
 21
6.3040000000000003
 31
0.0
  0
LINE
  5
4C
100
AcDbEntity
100
AcDbLine
  8
0
 62
256
370
-1
  6
ByLayer
 10
-12.3859999999999992
 20
6.3040000000000003
 30
0.0
 11
-12.3049999999999997
 21
6.4409999999999998
 31
0.0
  0
LINE
  5
4D
100
AcDbEntity
100
AcDbLine
  8
0
 62
256
370
-1
  6
ByLayer
 10
-12.3049999999999997
 20
6.4409999999999998
 30
0.0
 11
-12.2149999999999999
 21
6.5730000000000004
 31
0.0
  0
LINE
  5
4E
100
AcDbEntity
100
AcDbLine
  8
0
 62
256
370
-1
  6
ByLayer
 10
-12.2149999999999999
 20
6.5730000000000004
 30
0.0
 11
-12.1170000000000009
 21
6.6989999999999998
 31
0.0
  0
LINE
  5
4F
100
AcDbEntity
100
AcDbLine
  8
0
 62
256
370
-1
  6
ByLayer
 10
-12.1170000000000009
 20
6.6989999999999998
 30
0.0
 11
-12.0120000000000005
 21
6.819
 31
0.0
  0
LINE
  5
50
100
AcDbEntity
100
AcDbLine
  8
0
 62
256
370
-1
  6
ByLayer
 10
-12.0120000000000005
 20
6.819
 30
0.0
 11
-11.8989999999999991
 21
6.9320000000000004
 31
0.0
  0
LINE
  5
51
100
AcDbEntity
100
AcDbLine
  8
0
 62
256
370
-1
  6
ByLayer
 10
-11.8989999999999991
 20
6.9320000000000004
 30
0.0
 11
-11.7789999999999999
 21
7.0369999999999999
 31
0.0
  0
LINE
  5
52
100
AcDbEntity
100
AcDbLine
  8
0
 62
256
370
-1
  6
ByLayer
 10
-11.7789999999999999
 20
7.0369999999999999
 30
0.0
 11
-11.6530000000000005
 21
7.1349999999999998
 31
0.0
  0
LINE
  5
53
100
AcDbEntity
100
AcDbLine
  8
0
 62
256
370
-1
  6
ByLayer
 10
-11.6530000000000005
 20
7.1349999999999998
 30
0.0
 11
-11.5210000000000008
 21
7.2249999999999996
 31
0.0
  0
LINE
  5
54
100
AcDbEntity
100
AcDbLine
  8
0
 62
256
370
-1
  6
ByLayer
 10
-11.5210000000000008
 20
7.2249999999999996
 30
0.0
 11
-11.3840000000000003
 21
7.306
 31
0.0
  0
LINE
  5
55
100
AcDbEntity
100
AcDbLine
  8
0
 62
256
370
-1
  6
ByLayer
 10
-11.3840000000000003
 20
7.306
 30
0.0
 11
-11.2409999999999997
 21
7.3780000000000001
 31
0.0
  0
LINE
  5
56
100
AcDbEntity
100
AcDbLine
  8
0
 62
256
370
-1
  6
ByLayer
 10
-11.2409999999999997
 20
7.3780000000000001
 30
0.0
 11
-11.0950000000000006
 21
7.4420000000000002
 31
0.0
  0
LINE
  5
57
100
AcDbEntity
100
AcDbLine
  8
0
 62
256
370
-1
  6
ByLayer
 10
-11.0950000000000006
 20
7.4420000000000002
 30
0.0
 11
-10.9450000000000003
 21
7.4960000000000004
 31
0.0
  0
LINE
  5
58
100
AcDbEntity
100
AcDbLine
  8
0
 62
256
370
-1
  6
ByLayer
 10
-10.9450000000000003
 20
7.4960000000000004
 30
0.0
 11
-10.7919999999999998
 21
7.54
 31
0.0
  0
LINE
  5
59
100
AcDbEntity
100
AcDbLine
  8
0
 62
256
370
-1
  6
ByLayer
 10
-10.7919999999999998
 20
7.54
 30
0.0
 11
-10.6359999999999992
 21
7.5750000000000002
 31
0.0
  0
LINE
  5
5A
100
AcDbEntity
100
AcDbLine
  8
0
 62
256
370
-1
  6
ByLayer
 10
-10.6359999999999992
 20
7.5750000000000002
 30
0.0
 11
-10.4779999999999998
 21
7.5999999999999996
 31
0.0
  0
LINE
  5
5B
100
AcDbEntity
100
AcDbLine
  8
0
 62
256
370
-1
  6
ByLayer
 10
-10.4779999999999998
 20
7.5999999999999996
 30
0.0
 11
-10.3190000000000008
 21
7.6150000000000002
 31
0.0
  0
LINE
  5
5C
100
AcDbEntity
100
AcDbLine
  8
0
 62
256
370
-1
  6
ByLayer
 10
-10.3190000000000008
 20
7.6150000000000002
 30
0.0
 11
-10.1600000000000001
 21
7.6200000000000001
 31
0.0
  0
LINE
  5
5D
100
AcDbEntity
100
AcDbLine
  8
0
 62
256
370
-1
  6
ByLayer
 10
-10.1600000000000001
 20
7.6200000000000001
 30
0.0
 11
10.1600000000000001
 21
7.6200000000000001
 31
0.0
  0
LINE
  5
5E
100
AcDbEntity
100
AcDbLine
  8
0
 62
256
370
-1
  6
ByLayer
 10
10.1600000000000001
 20
7.6200000000000001
 30
0.0
 11
10.3190000000000008
 21
7.6150000000000002
 31
0.0
  0
LINE
  5
5F
100
AcDbEntity
100
AcDbLine
  8
0
 62
256
370
-1
  6
ByLayer
 10
10.3190000000000008
 20
7.6150000000000002
 30
0.0
 11
10.4779999999999998
 21
7.5999999999999996
 31
0.0
  0
LINE
  5
60
100
AcDbEntity
100
AcDbLine
  8
0
 62
256
370
-1
  6
ByLayer
 10
10.4779999999999998
 20
7.5999999999999996
 30
0.0
 11
10.6359999999999992
 21
7.5750000000000002
 31
0.0
  0
LINE
  5
61
100
AcDbEntity
100
AcDbLine
  8
0
 62
256
370
-1
  6
ByLayer
 10
10.6359999999999992
 20
7.5750000000000002
 30
0.0
 11
10.7919999999999998
 21
7.54
 31
0.0
  0
LINE
  5
62
100
AcDbEntity
100
AcDbLine
  8
0
 62
256
370
-1
  6
ByLayer
 10
10.7919999999999998
 20
7.54
 30
0.0
 11
10.9450000000000003
 21
7.4960000000000004
 31
0.0
  0
LINE
  5
63
100
AcDbEntity
100
AcDbLine
  8
0
 62
256
370
-1
  6
ByLayer
 10
10.9450000000000003
 20
7.4960000000000004
 30
0.0
 11
11.0950000000000006
 21
7.4420000000000002
 31
0.0
  0
LINE
  5
64
100
AcDbEntity
100
AcDbLine
  8
0
 62
256
370
-1
  6
ByLayer
 10
11.0950000000000006
 20
7.4420000000000002
 30
0.0
 11
11.2409999999999997
 21
7.3780000000000001
 31
0.0
  0
LINE
  5
65
100
AcDbEntity
100
AcDbLine
  8
0
 62
256
370
-1
  6
ByLayer
 10
11.2409999999999997
 20
7.3780000000000001
 30
0.0
 11
11.3840000000000003
 21
7.306
 31
0.0
  0
LINE
  5
66
100
AcDbEntity
100
AcDbLine
  8
0
 62
256
370
-1
  6
ByLayer
 10
11.3840000000000003
 20
7.306
 30
0.0
 11
11.5210000000000008
 21
7.2249999999999996
 31
0.0
  0
LINE
  5
67
100
AcDbEntity
100
AcDbLine
  8
0
 62
256
370
-1
  6
ByLayer
 10
11.5210000000000008
 20
7.2249999999999996
 30
0.0
 11
11.6530000000000005
 21
7.1349999999999998
 31
0.0
  0
LINE
  5
68
100
AcDbEntity
100
AcDbLine
  8
0
 62
256
370
-1
  6
ByLayer
 10
11.6530000000000005
 20
7.1349999999999998
 30
0.0
 11
11.7789999999999999
 21
7.0369999999999999
 31
0.0
  0
LINE
  5
69
100
AcDbEntity
100
AcDbLine
  8
0
 62
256
370
-1
  6
ByLayer
 10
11.7789999999999999
 20
7.0369999999999999
 30
0.0
 11
11.8989999999999991
 21
6.9320000000000004
 31
0.0
  0
LINE
  5
6A
100
AcDbEntity
100
AcDbLine
  8
0
 62
256
370
-1
  6
ByLayer
 10
11.8989999999999991
 20
6.9320000000000004
 30
0.0
 11
12.0120000000000005
 21
6.819
 31
0.0
  0
LINE
  5
6B
100
AcDbEntity
100
AcDbLine
  8
0
 62
256
370
-1
  6
ByLayer
 10
12.0120000000000005
 20
6.819
 30
0.0
 11
12.1170000000000009
 21
6.6989999999999998
 31
0.0
  0
LINE
  5
6C
100
AcDbEntity
100
AcDbLine
  8
0
 62
256
370
-1
  6
ByLayer
 10
12.1170000000000009
 20
6.6989999999999998
 30
0.0
 11
12.2149999999999999
 21
6.5730000000000004
 31
0.0
  0
LINE
  5
6D
100
AcDbEntity
100
AcDbLine
  8
0
 62
256
370
-1
  6
ByLayer
 10
12.2149999999999999
 20
6.5730000000000004
 30
0.0
 11
12.3049999999999997
 21
6.4409999999999998
 31
0.0
  0
LINE
  5
6E
100
AcDbEntity
100
AcDbLine
  8
0
 62
256
370
-1
  6
ByLayer
 10
12.3049999999999997
 20
6.4409999999999998
 30
0.0
 11
12.3859999999999992
 21
6.3040000000000003
 31
0.0
  0
LINE
  5
6F
100
AcDbEntity
100
AcDbLine
  8
0
 62
256
370
-1
  6
ByLayer
 10
12.3859999999999992
 20
6.3040000000000003
 30
0.0
 11
12.4580000000000002
 21
6.1609999999999996
 31
0.0
  0
LINE
  5
70
100
AcDbEntity
100
AcDbLine
  8
0
 62
256
370
-1
  6
ByLayer
 10
12.4580000000000002
 20
6.1609999999999996
 30
0.0
 11
12.5220000000000002
 21
6.0149999999999997
 31
0.0
  0
LINE
  5
71
100
AcDbEntity
100
AcDbLine
  8
0
 62
256
370
-1
  6
ByLayer
 10
12.5220000000000002
 20
6.0149999999999997
 30
0.0
 11
12.5760000000000005
 21
5.8650000000000002
 31
0.0
  0
LINE
  5
72
100
AcDbEntity
100
AcDbLine
  8
0
 62
256
370
-1
  6
ByLayer
 10
12.5760000000000005
 20
5.8650000000000002
 30
0.0
 11
12.6199999999999992
 21
5.7119999999999997
 31
0.0
  0
LINE
  5
73
100
AcDbEntity
100
AcDbLine
  8
0
 62
256
370
-1
  6
ByLayer
 10
12.6199999999999992
 20
5.7119999999999997
 30
0.0
 11
12.6549999999999994
 21
5.556
 31
0.0
  0
LINE
  5
74
100
AcDbEntity
100
AcDbLine
  8
0
 62
256
370
-1
  6
ByLayer
 10
12.6549999999999994
 20
5.556
 30
0.0
 11
12.6799999999999997
 21
5.3979999999999997
 31
0.0
  0
LINE
  5
75
100
AcDbEntity
100
AcDbLine
  8
0
 62
256
370
-1
  6
ByLayer
 10
12.6799999999999997
 20
5.3979999999999997
 30
0.0
 11
12.6950000000000003
 21
5.2389999999999999
 31
0.0
  0
LINE
  5
76
100
AcDbEntity
100
AcDbLine
  8
0
 62
256
370
-1
  6
ByLayer
 10
12.6950000000000003
 20
5.2389999999999999
 30
0.0
 11
12.6999999999999993
 21
5.0800000000000001
 31
0.0
  0
LINE
  5
77
100
AcDbEntity
100
AcDbLine
  8
0
 62
256
370
-1
  6
ByLayer
 10
12.6999999999999993
 20
5.0800000000000001
 30
0.0
 11
12.6999999999999993
 21
-5.0800000000000001
 31
0.0
  0
LINE
  5
78
100
AcDbEntity
100
AcDbLine
  8
0
 62
256
370
-1
  6
ByLayer
 10
12.6999999999999993
 20
-5.0800000000000001
 30
0.0
 11
12.6950000000000003
 21
-5.2389999999999999
 31
0.0
  0
LINE
  5
79
100
AcDbEntity
100
AcDbLine
  8
0
 62
256
370
-1
  6
ByLayer
 10
12.6950000000000003
 20
-5.2389999999999999
 30
0.0
 11
12.6799999999999997
 21
-5.3979999999999997
 31
0.0
  0
LINE
  5
7A
100
AcDbEntity
100
AcDbLine
  8
0
 62
256
370
-1
  6
ByLayer
 10
12.6799999999999997
 20
-5.3979999999999997
 30
0.0
 11
12.6549999999999994
 21
-5.556
 31
0.0
  0
LINE
  5
7B
100
AcDbEntity
100
AcDbLine
  8
0
 62
256
370
-1
  6
ByLayer
 10
12.6549999999999994
 20
-5.556
 30
0.0
 11
12.6199999999999992
 21
-5.7119999999999997
 31
0.0
  0
LINE
  5
7C
100
AcDbEntity
100
AcDbLine
  8
0
 62
256
370
-1
  6
ByLayer
 10
12.6199999999999992
 20
-5.7119999999999997
 30
0.0
 11
12.5760000000000005
 21
-5.8650000000000002
 31
0.0
  0
LINE
  5
7D
100
AcDbEntity
100
AcDbLine
  8
0
 62
256
370
-1
  6
ByLayer
 10
12.5760000000000005
 20
-5.8650000000000002
 30
0.0
 11
12.5220000000000002
 21
-6.0149999999999997
 31
0.0
  0
LINE
  5
7E
100
AcDbEntity
100
AcDbLine
  8
0
 62
256
370
-1
  6
ByLayer
 10
12.5220000000000002
 20
-6.0149999999999997
 30
0.0
 11
12.4580000000000002
 21
-6.1609999999999996
 31
0.0
  0
LINE
  5
7F
100
AcDbEntity
100
AcDbLine
  8
0
 62
256
370
-1
  6
ByLayer
 10
12.4580000000000002
 20
-6.1609999999999996
 30
0.0
 11
12.3859999999999992
 21
-6.3040000000000003
 31
0.0
  0
LINE
  5
80
100
AcDbEntity
100
AcDbLine
  8
0
 62
256
370
-1
  6
ByLayer
 10
12.3859999999999992
 20
-6.3040000000000003
 30
0.0
 11
12.3049999999999997
 21
-6.4409999999999998
 31
0.0
  0
LINE
  5
81
100
AcDbEntity
100
AcDbLine
  8
0
 62
256
370
-1
  6
ByLayer
 10
12.3049999999999997
 20
-6.4409999999999998
 30
0.0
 11
12.2149999999999999
 21
-6.5730000000000004
 31
0.0
  0
LINE
  5
82
100
AcDbEntity
100
AcDbLine
  8
0
 62
256
370
-1
  6
ByLayer
 10
12.2149999999999999
 20
-6.5730000000000004
 30
0.0
 11
12.1170000000000009
 21
-6.6989999999999998
 31
0.0
  0
LINE
  5
83
100
AcDbEntity
100
AcDbLine
  8
0
 62
256
370
-1
  6
ByLayer
 10
12.1170000000000009
 20
-6.6989999999999998
 30
0.0
 11
12.0120000000000005
 21
-6.819
 31
0.0
  0
LINE
  5
84
100
AcDbEntity
100
AcDbLine
  8
0
 62
256
370
-1
  6
ByLayer
 10
12.0120000000000005
 20
-6.819
 30
0.0
 11
11.8989999999999991
 21
-6.9320000000000004
 31
0.0
  0
LINE
  5
85
100
AcDbEntity
100
AcDbLine
  8
0
 62
256
370
-1
  6
ByLayer
 10
11.8989999999999991
 20
-6.9320000000000004
 30
0.0
 11
11.7789999999999999
 21
-7.0369999999999999
 31
0.0
  0
LINE
  5
86
100
AcDbEntity
100
AcDbLine
  8
0
 62
256
370
-1
  6
ByLayer
 10
11.7789999999999999
 20
-7.0369999999999999
 30
0.0
 11
11.6530000000000005
 21
-7.1349999999999998
 31
0.0
  0
LINE
  5
87
100
AcDbEntity
100
AcDbLine
  8
0
 62
256
370
-1
  6
ByLayer
 10
11.6530000000000005
 20
-7.1349999999999998
 30
0.0
 11
11.5210000000000008
 21
-7.2249999999999996
 31
0.0
  0
LINE
  5
88
100
AcDbEntity
100
AcDbLine
  8
0
 62
256
370
-1
  6
ByLayer
 10
11.5210000000000008
 20
-7.2249999999999996
 30
0.0
 11
11.3840000000000003
 21
-7.306
 31
0.0
  0
LINE
  5
89
100
AcDbEntity
100
AcDbLine
  8
0
 62
256
370
-1
  6
ByLayer
 10
11.3840000000000003
 20
-7.306
 30
0.0
 11
11.2409999999999997
 21
-7.3780000000000001
 31
0.0
  0
LINE
  5
8A
100
AcDbEntity
100
AcDbLine
  8
0
 62
256
370
-1
  6
ByLayer
 10
11.2409999999999997
 20
-7.3780000000000001
 30
0.0
 11
11.0950000000000006
 21
-7.4420000000000002
 31
0.0
  0
LINE
  5
8B
100
AcDbEntity
100
AcDbLine
  8
0
 62
256
370
-1
  6
ByLayer
 10
11.0950000000000006
 20
-7.4420000000000002
 30
0.0
 11
10.9450000000000003
 21
-7.4960000000000004
 31
0.0
  0
LINE
  5
8C
100
AcDbEntity
100
AcDbLine
  8
0
 62
256
370
-1
  6
ByLayer
 10
10.9450000000000003
 20
-7.4960000000000004
 30
0.0
 11
10.7919999999999998
 21
-7.54
 31
0.0
  0
LINE
  5
8D
100
AcDbEntity
100
AcDbLine
  8
0
 62
256
370
-1
  6
ByLayer
 10
10.7919999999999998
 20
-7.54
 30
0.0
 11
10.6359999999999992
 21
-7.5750000000000002
 31
0.0
  0
LINE
  5
8E
100
AcDbEntity
100
AcDbLine
  8
0
 62
256
370
-1
  6
ByLayer
 10
10.6359999999999992
 20
-7.5750000000000002
 30
0.0
 11
10.4779999999999998
 21
-7.5999999999999996
 31
0.0
  0
LINE
  5
8F
100
AcDbEntity
100
AcDbLine
  8
0
 62
256
370
-1
  6
ByLayer
 10
10.4779999999999998
 20
-7.5999999999999996
 30
0.0
 11
10.3190000000000008
 21
-7.6150000000000002
 31
0.0
  0
LINE
  5
90
100
AcDbEntity
100
AcDbLine
  8
0
 62
256
370
-1
  6
ByLayer
 10
10.3190000000000008
 20
-7.6150000000000002
 30
0.0
 11
10.1600000000000001
 21
-7.6200000000000001
 31
0.0
  0
LINE
  5
91
100
AcDbEntity
100
AcDbLine
  8
0
 62
256
370
-1
  6
ByLayer
 10
10.1600000000000001
 20
-7.6200000000000001
 30
0.0
 11
-10.1600000000000001
 21
-7.6200000000000001
 31
0.0
  0
LINE
  5
92
100
AcDbEntity
100
AcDbLine
  8
0
 62
256
370
-1
  6
ByLayer
 10
-10.1600000000000001
 20
-7.6200000000000001
 30
0.0
 11
-10.3190000000000008
 21
-7.6150000000000002
 31
0.0
  0
LINE
  5
93
100
AcDbEntity
100
AcDbLine
  8
0
 62
256
370
-1
  6
ByLayer
 10
-10.3190000000000008
 20
-7.6150000000000002
 30
0.0
 11
-10.4779999999999998
 21
-7.5999999999999996
 31
0.0
  0
LINE
  5
94
100
AcDbEntity
100
AcDbLine
  8
0
 62
256
370
-1
  6
ByLayer
 10
-10.4779999999999998
 20
-7.5999999999999996
 30
0.0
 11
-10.6359999999999992
 21
-7.5750000000000002
 31
0.0
  0
LINE
  5
95
100
AcDbEntity
100
AcDbLine
  8
0
 62
256
370
-1
  6
ByLayer
 10
-10.6359999999999992
 20
-7.5750000000000002
 30
0.0
 11
-10.7919999999999998
 21
-7.54
 31
0.0
  0
LINE
  5
96
100
AcDbEntity
100
AcDbLine
  8
0
 62
256
370
-1
  6
ByLayer
 10
-10.7919999999999998
 20
-7.54
 30
0.0
 11
-10.9450000000000003
 21
-7.4960000000000004
 31
0.0
  0
LINE
  5
97
100
AcDbEntity
100
AcDbLine
  8
0
 62
256
370
-1
  6
ByLayer
 10
-10.9450000000000003
 20
-7.4960000000000004
 30
0.0
 11
-11.0950000000000006
 21
-7.4420000000000002
 31
0.0
  0
LINE
  5
98
100
AcDbEntity
100
AcDbLine
  8
0
 62
256
370
-1
  6
ByLayer
 10
-11.0950000000000006
 20
-7.4420000000000002
 30
0.0
 11
-11.2409999999999997
 21
-7.3780000000000001
 31
0.0
  0
LINE
  5
99
100
AcDbEntity
100
AcDbLine
  8
0
 62
256
370
-1
  6
ByLayer
 10
-11.2409999999999997
 20
-7.3780000000000001
 30
0.0
 11
-11.3840000000000003
 21
-7.306
 31
0.0
  0
LINE
  5
9A
100
AcDbEntity
100
AcDbLine
  8
0
 62
256
370
-1
  6
ByLayer
 10
-11.3840000000000003
 20
-7.306
 30
0.0
 11
-11.5210000000000008
 21
-7.2249999999999996
 31
0.0
  0
LINE
  5
9B
100
AcDbEntity
100
AcDbLine
  8
0
 62
256
370
-1
  6
ByLayer
 10
-11.5210000000000008
 20
-7.2249999999999996
 30
0.0
 11
-11.6530000000000005
 21
-7.1349999999999998
 31
0.0
  0
LINE
  5
9C
100
AcDbEntity
100
AcDbLine
  8
0
 62
256
370
-1
  6
ByLayer
 10
-11.6530000000000005
 20
-7.1349999999999998
 30
0.0
 11
-11.7789999999999999
 21
-7.0369999999999999
 31
0.0
  0
LINE
  5
9D
100
AcDbEntity
100
AcDbLine
  8
0
 62
256
370
-1
  6
ByLayer
 10
-11.7789999999999999
 20
-7.0369999999999999
 30
0.0
 11
-11.8989999999999991
 21
-6.9320000000000004
 31
0.0
  0
LINE
  5
9E
100
AcDbEntity
100
AcDbLine
  8
0
 62
256
370
-1
  6
ByLayer
 10
-11.8989999999999991
 20
-6.9320000000000004
 30
0.0
 11
-12.0120000000000005
 21
-6.819
 31
0.0
  0
LINE
  5
9F
100
AcDbEntity
100
AcDbLine
  8
0
 62
256
370
-1
  6
ByLayer
 10
-12.0120000000000005
 20
-6.819
 30
0.0
 11
-12.1170000000000009
 21
-6.6989999999999998
 31
0.0
  0
LINE
  5
A0
100
AcDbEntity
100
AcDbLine
  8
0
 62
256
370
-1
  6
ByLayer
 10
-12.1170000000000009
 20
-6.6989999999999998
 30
0.0
 11
-12.2149999999999999
 21
-6.5730000000000004
 31
0.0
  0
LINE
  5
A1
100
AcDbEntity
100
AcDbLine
  8
0
 62
256
370
-1
  6
ByLayer
 10
-12.2149999999999999
 20
-6.5730000000000004
 30
0.0
 11
-12.3049999999999997
 21
-6.4409999999999998
 31
0.0
  0
LINE
  5
A2
100
AcDbEntity
100
AcDbLine
  8
0
 62
256
370
-1
  6
ByLayer
 10
-12.3049999999999997
 20
-6.4409999999999998
 30
0.0
 11
-12.3859999999999992
 21
-6.3040000000000003
 31
0.0
  0
LINE
  5
A3
100
AcDbEntity
100
AcDbLine
  8
0
 62
256
370
-1
  6
ByLayer
 10
-12.3859999999999992
 20
-6.3040000000000003
 30
0.0
 11
-12.4580000000000002
 21
-6.1609999999999996
 31
0.0
  0
LINE
  5
A4
100
AcDbEntity
100
AcDbLine
  8
0
 62
256
370
-1
  6
ByLayer
 10
-12.4580000000000002
 20
-6.1609999999999996
 30
0.0
 11
-12.5220000000000002
 21
-6.0149999999999997
 31
0.0
  0
LINE
  5
A5
100
AcDbEntity
100
AcDbLine
  8
0
 62
256
370
-1
  6
ByLayer
 10
-12.5220000000000002
 20
-6.0149999999999997
 30
0.0
 11
-12.5760000000000005
 21
-5.8650000000000002
 31
0.0
  0
LINE
  5
A6
100
AcDbEntity
100
AcDbLine
  8
0
 62
256
370
-1
  6
ByLayer
 10
-12.5760000000000005
 20
-5.8650000000000002
 30
0.0
 11
-12.6199999999999992
 21
-5.7119999999999997
 31
0.0
  0
LINE
  5
A7
100
AcDbEntity
100
AcDbLine
  8
0
 62
256
370
-1
  6
ByLayer
 10
-12.6199999999999992
 20
-5.7119999999999997
 30
0.0
 11
-12.6549999999999994
 21
-5.556
 31
0.0
  0
LINE
  5
A8
100
AcDbEntity
100
AcDbLine
  8
0
 62
256
370
-1
  6
ByLayer
 10
-12.6549999999999994
 20
-5.556
 30
0.0
 11
-12.6799999999999997
 21
-5.3979999999999997
 31
0.0
  0
LINE
  5
A9
100
AcDbEntity
100
AcDbLine
  8
0
 62
256
370
-1
  6
ByLayer
 10
-12.6799999999999997
 20
-5.3979999999999997
 30
0.0
 11
-12.6950000000000003
 21
-5.2389999999999999
 31
0.0
  0
LINE
  5
AA
100
AcDbEntity
100
AcDbLine
  8
0
 62
256
370
-1
  6
ByLayer
 10
-12.6950000000000003
 20
-5.2389999999999999
 30
0.0
 11
-12.6999999999999993
 21
-5.0800000000000001
 31
0.0
  0
LINE
  5
AB
100
AcDbEntity
100
AcDbLine
  8
0
 62
256
370
-1
  6
ByLayer
 10
-10.9979999999999993
 20
3.79
 30
0.0
 11
-10.9949999999999992
 21
3.8820000000000001
 31
0.0
  0
LINE
  5
AC
100
AcDbEntity
100
AcDbLine
  8
0
 62
256
370
-1
  6
ByLayer
 10
-10.9949999999999992
 20
3.8820000000000001
 30
0.0
 11
-10.9870000000000001
 21
3.9740000000000002
 31
0.0
  0
LINE
  5
AD
100
AcDbEntity
100
AcDbLine
  8
0
 62
256
370
-1
  6
ByLayer
 10
-10.9870000000000001
 20
3.9740000000000002
 30
0.0
 11
-10.9719999999999995
 21
4.0659999999999998
 31
0.0
  0
LINE
  5
AE
100
AcDbEntity
100
AcDbLine
  8
0
 62
256
370
-1
  6
ByLayer
 10
-10.9719999999999995
 20
4.0659999999999998
 30
0.0
 11
-10.952
 21
4.1559999999999997
 31
0.0
  0
LINE
  5
AF
100
AcDbEntity
100
AcDbLine
  8
0
 62
256
370
-1
  6
ByLayer
 10
-10.952
 20
4.1559999999999997
 30
0.0
 11
-10.9260000000000002
 21
4.2450000000000001
 31
0.0
  0
LINE
  5
B0
100
AcDbEntity
100
AcDbLine
  8
0
 62
256
370
-1
  6
ByLayer
 10
-10.9260000000000002
 20
4.2450000000000001
 30
0.0
 11
-10.8949999999999996
 21
4.3319999999999999
 31
0.0
  0
LINE
  5
B1
100
AcDbEntity
100
AcDbLine
  8
0
 62
256
370
-1
  6
ByLayer
 10
-10.8949999999999996
 20
4.3319999999999999
 30
0.0
 11
-10.8580000000000005
 21
4.4169999999999998
 31
0.0
  0
LINE
  5
B2
100
AcDbEntity
100
AcDbLine
  8
0
 62
256
370
-1
  6
ByLayer
 10
-10.8580000000000005
 20
4.4169999999999998
 30
0.0
 11
-10.8160000000000007
 21
4.4989999999999997
 31
0.0
  0
LINE
  5
B3
100
AcDbEntity
100
AcDbLine
  8
0
 62
256
370
-1
  6
ByLayer
 10
-10.8160000000000007
 20
4.4989999999999997
 30
0.0
 11
-10.7690000000000001
 21
4.5789999999999997
 31
0.0
  0
LINE
  5
B4
100
AcDbEntity
100
AcDbLine
  8
0
 62
256
370
-1
  6
ByLayer
 10
-10.7690000000000001
 20
4.5789999999999997
 30
0.0
 11
-10.7170000000000005
 21
4.6559999999999997
 31
0.0
  0
LINE
  5
B5
100
AcDbEntity
100
AcDbLine
  8
0
 62
256
370
-1
  6
ByLayer
 10
-10.7170000000000005
 20
4.6559999999999997
 30
0.0
 11
-10.6600000000000001
 21
4.7290000000000001
 31
0.0
  0
LINE
  5
B6
100
AcDbEntity
100
AcDbLine
  8
0
 62
256
370
-1
  6
ByLayer
 10
-10.6600000000000001
 20
4.7290000000000001
 30
0.0
 11
-10.5990000000000002
 21
4.798
 31
0.0
  0
LINE
  5
B7
100
AcDbEntity
100
AcDbLine
  8
0
 62
256
370
-1
  6
ByLayer
 10
-10.5990000000000002
 20
4.798
 30
0.0
 11
-10.5329999999999995
 21
4.8639999999999999
 31
0.0
  0
LINE
  5
B8
100
AcDbEntity
100
AcDbLine
  8
0
 62
256
370
-1
  6
ByLayer
 10
-10.5329999999999995
 20
4.8639999999999999
 30
0.0
 11
-10.4640000000000004
 21
4.9249999999999998
 31
0.0
  0
LINE
  5
B9
100
AcDbEntity
100
AcDbLine
  8
0
 62
256
370
-1
  6
ByLayer
 10
-10.4640000000000004
 20
4.9249999999999998
 30
0.0
 11
-10.391
 21
4.9820000000000002
 31
0.0
  0
LINE
  5
BA
100
AcDbEntity
100
AcDbLine
  8
0
 62
256
370
-1
  6
ByLayer
 10
-10.391
 20
4.9820000000000002
 30
0.0
 11
-10.3140000000000001
 21
5.0339999999999998
 31
0.0
  0
LINE
  5
BB
100
AcDbEntity
100
AcDbLine
  8
0
 62
256
370
-1
  6
ByLayer
 10
-10.3140000000000001
 20
5.0339999999999998
 30
0.0
 11
-10.2349999999999994
 21
5.0810000000000004
 31
0.0
  0
LINE
  5
BC
100
AcDbEntity
100
AcDbLine
  8
0
 62
256
370
-1
  6
ByLayer
 10
-10.2349999999999994
 20
5.0810000000000004
 30
0.0
 11
-10.1519999999999992
 21
5.1230000000000002
 31
0.0
  0
LINE
  5
BD
100
AcDbEntity
100
AcDbLine
  8
0
 62
256
370
-1
  6
ByLayer
 10
-10.1519999999999992
 20
5.1230000000000002
 30
0.0
 11
-10.0670000000000002
 21
5.1589999999999998
 31
0.0
  0
LINE
  5
BE
100
AcDbEntity
100
AcDbLine
  8
0
 62
256
370
-1
  6
ByLayer
 10
-10.0670000000000002
 20
5.1589999999999998
 30
0.0
 11
-9.9800000000000004
 21
5.1909999999999998
 31
0.0
  0
LINE
  5
BF
100
AcDbEntity
100
AcDbLine
  8
0
 62
256
370
-1
  6
ByLayer
 10
-9.9800000000000004
 20
5.1909999999999998
 30
0.0
 11
-9.891
 21
5.2169999999999996
 31
0.0
  0
LINE
  5
C0
100
AcDbEntity
100
AcDbLine
  8
0
 62
256
370
-1
  6
ByLayer
 10
-9.891
 20
5.2169999999999996
 30
0.0
 11
-9.8010000000000002
 21
5.2370000000000001
 31
0.0
  0
LINE
  5
C1
100
AcDbEntity
100
AcDbLine
  8
0
 62
256
370
-1
  6
ByLayer
 10
-9.8010000000000002
 20
5.2370000000000001
 30
0.0
 11
-9.7100000000000009
 21
5.2510000000000003
 31
0.0
  0
LINE
  5
C2
100
AcDbEntity
100
AcDbLine
  8
0
 62
256
370
-1
  6
ByLayer
 10
-9.7100000000000009
 20
5.2510000000000003
 30
0.0
 11
-9.6180000000000003
 21
5.2599999999999998
 31
0.0
  0
LINE
  5
C3
100
AcDbEntity
100
AcDbLine
  8
0
 62
256
370
-1
  6
ByLayer
 10
-9.6180000000000003
 20
5.2599999999999998
 30
0.0
 11
-9.5250000000000004
 21
5.2629999999999999
 31
0.0
  0
LINE
  5
C4
100
AcDbEntity
100
AcDbLine
  8
0
 62
256
370
-1
  6
ByLayer
 10
-9.5250000000000004
 20
5.2629999999999999
 30
0.0
 11
-9.4320000000000004
 21
5.2599999999999998
 31
0.0
  0
LINE
  5
C5
100
AcDbEntity
100
AcDbLine
  8
0
 62
256
370
-1
  6
ByLayer
 10
-9.4320000000000004
 20
5.2599999999999998
 30
0.0
 11
-9.3399999999999999
 21
5.2510000000000003
 31
0.0
  0
LINE
  5
C6
100
AcDbEntity
100
AcDbLine
  8
0
 62
256
370
-1
  6
ByLayer
 10
-9.3399999999999999
 20
5.2510000000000003
 30
0.0
 11
-9.2490000000000006
 21
5.2370000000000001
 31
0.0
  0
LINE
  5
C7
100
AcDbEntity
100
AcDbLine
  8
0
 62
256
370
-1
  6
ByLayer
 10
-9.2490000000000006
 20
5.2370000000000001
 30
0.0
 11
-9.1590000000000007
 21
5.2169999999999996
 31
0.0
  0
LINE
  5
C8
100
AcDbEntity
100
AcDbLine
  8
0
 62
256
370
-1
  6
ByLayer
 10
-9.1590000000000007
 20
5.2169999999999996
 30
0.0
 11
-9.0700000000000003
 21
5.1909999999999998
 31
0.0
  0
LINE
  5
C9
100
AcDbEntity
100
AcDbLine
  8
0
 62
256
370
-1
  6
ByLayer
 10
-9.0700000000000003
 20
5.1909999999999998
 30
0.0
 11
-8.9830000000000005
 21
5.1589999999999998
 31
0.0
  0
LINE
  5
CA
100
AcDbEntity
100
AcDbLine
  8
0
 62
256
370
-1
  6
ByLayer
 10
-8.9830000000000005
 20
5.1589999999999998
 30
0.0
 11
-8.8979999999999997
 21
5.1230000000000002
 31
0.0
  0
LINE
  5
CB
100
AcDbEntity
100
AcDbLine
  8
0
 62
256
370
-1
  6
ByLayer
 10
-8.8979999999999997
 20
5.1230000000000002
 30
0.0
 11
-8.8149999999999995
 21
5.0810000000000004
 31
0.0
  0
LINE
  5
CC
100
AcDbEntity
100
AcDbLine
  8
0
 62
256
370
-1
  6
ByLayer
 10
-8.8149999999999995
 20
5.0810000000000004
 30
0.0
 11
-8.7360000000000007
 21
5.0339999999999998
 31
0.0
  0
LINE
  5
CD
100
AcDbEntity
100
AcDbLine
  8
0
 62
256
370
-1
  6
ByLayer
 10
-8.7360000000000007
 20
5.0339999999999998
 30
0.0
 11
-8.6590000000000007
 21
4.9820000000000002
 31
0.0
  0
LINE
  5
CE
100
AcDbEntity
100
AcDbLine
  8
0
 62
256
370
-1
  6
ByLayer
 10
-8.6590000000000007
 20
4.9820000000000002
 30
0.0
 11
-8.5860000000000003
 21
4.9249999999999998
 31
0.0
  0
LINE
  5
CF
100
AcDbEntity
100
AcDbLine
  8
0
 62
256
370
-1
  6
ByLayer
 10
-8.5860000000000003
 20
4.9249999999999998
 30
0.0
 11
-8.5169999999999995
 21
4.8639999999999999
 31
0.0
  0
LINE
  5
D0
100
AcDbEntity
100
AcDbLine
  8
0
 62
256
370
-1
  6
ByLayer
 10
-8.5169999999999995
 20
4.8639999999999999
 30
0.0
 11
-8.4510000000000005
 21
4.798
 31
0.0
  0
LINE
  5
D1
100
AcDbEntity
100
AcDbLine
  8
0
 62
256
370
-1
  6
ByLayer
 10
-8.4510000000000005
 20
4.798
 30
0.0
 11
-8.3900000000000006
 21
4.7290000000000001
 31
0.0
  0
LINE
  5
D2
100
AcDbEntity
100
AcDbLine
  8
0
 62
256
370
-1
  6
ByLayer
 10
-8.3900000000000006
 20
4.7290000000000001
 30
0.0
 11
-8.3330000000000002
 21
4.6559999999999997
 31
0.0
  0
LINE
  5
D3
100
AcDbEntity
100
AcDbLine
  8
0
 62
256
370
-1
  6
ByLayer
 10
-8.3330000000000002
 20
4.6559999999999997
 30
0.0
 11
-8.2810000000000006
 21
4.5789999999999997
 31
0.0
  0
LINE
  5
D4
100
AcDbEntity
100
AcDbLine
  8
0
 62
256
370
-1
  6
ByLayer
 10
-8.2810000000000006
 20
4.5789999999999997
 30
0.0
 11
-8.234
 21
4.4989999999999997
 31
0.0
  0
LINE
  5
D5
100
AcDbEntity
100
AcDbLine
  8
0
 62
256
370
-1
  6
ByLayer
 10
-8.234
 20
4.4989999999999997
 30
0.0
 11
-8.1920000000000002
 21
4.4169999999999998
 31
0.0
  0
LINE
  5
D6
100
AcDbEntity
100
AcDbLine
  8
0
 62
256
370
-1
  6
ByLayer
 10
-8.1920000000000002
 20
4.4169999999999998
 30
0.0
 11
-8.1549999999999994
 21
4.3319999999999999
 31
0.0
  0
LINE
  5
D7
100
AcDbEntity
100
AcDbLine
  8
0
 62
256
370
-1
  6
ByLayer
 10
-8.1549999999999994
 20
4.3319999999999999
 30
0.0
 11
-8.1240000000000006
 21
4.2450000000000001
 31
0.0
  0
LINE
  5
D8
100
AcDbEntity
100
AcDbLine
  8
0
 62
256
370
-1
  6
ByLayer
 10
-8.1240000000000006
 20
4.2450000000000001
 30
0.0
 11
-8.0980000000000008
 21
4.1559999999999997
 31
0.0
  0
LINE
  5
D9
100
AcDbEntity
100
AcDbLine
  8
0
 62
256
370
-1
  6
ByLayer
 10
-8.0980000000000008
 20
4.1559999999999997
 30
0.0
 11
-8.0779999999999994
 21
4.0659999999999998
 31
0.0
  0
LINE
  5
DA
100
AcDbEntity
100
AcDbLine
  8
0
 62
256
370
-1
  6
ByLayer
 10
-8.0779999999999994
 20
4.0659999999999998
 30
0.0
 11
-8.0630000000000006
 21
3.9740000000000002
 31
0.0
  0
LINE
  5
DB
100
AcDbEntity
100
AcDbLine
  8
0
 62
256
370
-1
  6
ByLayer
 10
-8.0630000000000006
 20
3.9740000000000002
 30
0.0
 11
-8.0549999999999997
 21
3.8820000000000001
 31
0.0
  0
LINE
  5
DC
100
AcDbEntity
100
AcDbLine
  8
0
 62
256
370
-1
  6
ByLayer
 10
-8.0549999999999997
 20
3.8820000000000001
 30
0.0
 11
-8.0519999999999996
 21
3.79
 31
0.0
  0
LINE
  5
DD
100
AcDbEntity
100
AcDbLine
  8
0
 62
256
370
-1
  6
ByLayer
 10
-8.0519999999999996
 20
3.79
 30
0.0
 11
-8.0549999999999997
 21
3.6970000000000001
 31
0.0
  0
LINE
  5
DE
100
AcDbEntity
100
AcDbLine
  8
0
 62
256
370
-1
  6
ByLayer
 10
-8.0549999999999997
 20
3.6970000000000001
 30
0.0
 11
-8.0630000000000006
 21
3.605
 31
0.0
  0
LINE
  5
DF
100
AcDbEntity
100
AcDbLine
  8
0
 62
256
370
-1
  6
ByLayer
 10
-8.0630000000000006
 20
3.605
 30
0.0
 11
-8.0779999999999994
 21
3.5139999999999998
 31
0.0
  0
LINE
  5
E0
100
AcDbEntity
100
AcDbLine
  8
0
 62
256
370
-1
  6
ByLayer
 10
-8.0779999999999994
 20
3.5139999999999998
 30
0.0
 11
-8.0980000000000008
 21
3.423
 31
0.0
  0
LINE
  5
E1
100
AcDbEntity
100
AcDbLine
  8
0
 62
256
370
-1
  6
ByLayer
 10
-8.0980000000000008
 20
3.423
 30
0.0
 11
-8.1240000000000006
 21
3.3340000000000001
 31
0.0
  0
LINE
  5
E2
100
AcDbEntity
100
AcDbLine
  8
0
 62
256
370
-1
  6
ByLayer
 10
-8.1240000000000006
 20
3.3340000000000001
 30
0.0
 11
-8.1549999999999994
 21
3.2469999999999999
 31
0.0
  0
LINE
  5
E3
100
AcDbEntity
100
AcDbLine
  8
0
 62
256
370
-1
  6
ByLayer
 10
-8.1549999999999994
 20
3.2469999999999999
 30
0.0
 11
-8.1920000000000002
 21
3.1619999999999999
 31
0.0
  0
LINE
  5
E4
100
AcDbEntity
100
AcDbLine
  8
0
 62
256
370
-1
  6
ByLayer
 10
-8.1920000000000002
 20
3.1619999999999999
 30
0.0
 11
-8.234
 21
3.0800000000000001
 31
0.0
  0
LINE
  5
E5
100
AcDbEntity
100
AcDbLine
  8
0
 62
256
370
-1
  6
ByLayer
 10
-8.234
 20
3.0800000000000001
 30
0.0
 11
-8.2810000000000006
 21
3.0
 31
0.0
  0
LINE
  5
E6
100
AcDbEntity
100
AcDbLine
  8
0
 62
256
370
-1
  6
ByLayer
 10
-8.2810000000000006
 20
3.0
 30
0.0
 11
-8.3330000000000002
 21
2.9239999999999999
 31
0.0
  0
LINE
  5
E7
100
AcDbEntity
100
AcDbLine
  8
0
 62
256
370
-1
  6
ByLayer
 10
-8.3330000000000002
 20
2.9239999999999999
 30
0.0
 11
-8.3900000000000006
 21
2.851
 31
0.0
  0
LINE
  5
E8
100
AcDbEntity
100
AcDbLine
  8
0
 62
256
370
-1
  6
ByLayer
 10
-8.3900000000000006
 20
2.851
 30
0.0
 11
-8.4510000000000005
 21
2.7810000000000001
 31
0.0
  0
LINE
  5
E9
100
AcDbEntity
100
AcDbLine
  8
0
 62
256
370
-1
  6
ByLayer
 10
-8.4510000000000005
 20
2.7810000000000001
 30
0.0
 11
-8.5169999999999995
 21
2.7160000000000002
 31
0.0
  0
LINE
  5
EA
100
AcDbEntity
100
AcDbLine
  8
0
 62
256
370
-1
  6
ByLayer
 10
-8.5169999999999995
 20
2.7160000000000002
 30
0.0
 11
-8.5860000000000003
 21
2.6549999999999998
 31
0.0
  0
LINE
  5
EB
100
AcDbEntity
100
AcDbLine
  8
0
 62
256
370
-1
  6
ByLayer
 10
-8.5860000000000003
 20
2.6549999999999998
 30
0.0
 11
-8.6590000000000007
 21
2.5979999999999999
 31
0.0
  0
LINE
  5
EC
100
AcDbEntity
100
AcDbLine
  8
0
 62
256
370
-1
  6
ByLayer
 10
-8.6590000000000007
 20
2.5979999999999999
 30
0.0
 11
-8.7360000000000007
 21
2.5459999999999998
 31
0.0
  0
LINE
  5
ED
100
AcDbEntity
100
AcDbLine
  8
0
 62
256
370
-1
  6
ByLayer
 10
-8.7360000000000007
 20
2.5459999999999998
 30
0.0
 11
-8.8149999999999995
 21
2.4990000000000001
 31
0.0
  0
LINE
  5
EE
100
AcDbEntity
100
AcDbLine
  8
0
 62
256
370
-1
  6
ByLayer
 10
-8.8149999999999995
 20
2.4990000000000001
 30
0.0
 11
-8.8979999999999997
 21
2.4569999999999999
 31
0.0
  0
LINE
  5
EF
100
AcDbEntity
100
AcDbLine
  8
0
 62
256
370
-1
  6
ByLayer
 10
-8.8979999999999997
 20
2.4569999999999999
 30
0.0
 11
-8.9830000000000005
 21
2.4199999999999999
 31
0.0
  0
LINE
  5
F0
100
AcDbEntity
100
AcDbLine
  8
0
 62
256
370
-1
  6
ByLayer
 10
-8.9830000000000005
 20
2.4199999999999999
 30
0.0
 11
-9.0700000000000003
 21
2.3889999999999998
 31
0.0
  0
LINE
  5
F1
100
AcDbEntity
100
AcDbLine
  8
0
 62
256
370
-1
  6
ByLayer
 10
-9.0700000000000003
 20
2.3889999999999998
 30
0.0
 11
-9.1590000000000007
 21
2.363
 31
0.0
  0
LINE
  5
F2
100
AcDbEntity
100
AcDbLine
  8
0
 62
256
370
-1
  6
ByLayer
 10
-9.1590000000000007
 20
2.363
 30
0.0
 11
-9.2490000000000006
 21
2.343
 31
0.0
  0
LINE
  5
F3
100
AcDbEntity
100
AcDbLine
  8
0
 62
256
370
-1
  6
ByLayer
 10
-9.2490000000000006
 20
2.343
 30
0.0
 11
-9.3399999999999999
 21
2.3279999999999998
 31
0.0
  0
LINE
  5
F4
100
AcDbEntity
100
AcDbLine
  8
0
 62
256
370
-1
  6
ByLayer
 10
-9.3399999999999999
 20
2.3279999999999998
 30
0.0
 11
-9.4320000000000004
 21
2.319
 31
0.0
  0
LINE
  5
F5
100
AcDbEntity
100
AcDbLine
  8
0
 62
256
370
-1
  6
ByLayer
 10
-9.4320000000000004
 20
2.319
 30
0.0
 11
-9.5250000000000004
 21
2.3159999999999998
 31
0.0
  0
LINE
  5
F6
100
AcDbEntity
100
AcDbLine
  8
0
 62
256
370
-1
  6
ByLayer
 10
-9.5250000000000004
 20
2.3159999999999998
 30
0.0
 11
-9.6180000000000003
 21
2.319
 31
0.0
  0
LINE
  5
F7
100
AcDbEntity
100
AcDbLine
  8
0
 62
256
370
-1
  6
ByLayer
 10
-9.6180000000000003
 20
2.319
 30
0.0
 11
-9.7100000000000009
 21
2.3279999999999998
 31
0.0
  0
LINE
  5
F8
100
AcDbEntity
100
AcDbLine
  8
0
 62
256
370
-1
  6
ByLayer
 10
-9.7100000000000009
 20
2.3279999999999998
 30
0.0
 11
-9.8010000000000002
 21
2.343
 31
0.0
  0
LINE
  5
F9
100
AcDbEntity
100
AcDbLine
  8
0
 62
256
370
-1
  6
ByLayer
 10
-9.8010000000000002
 20
2.343
 30
0.0
 11
-9.891
 21
2.363
 31
0.0
  0
LINE
  5
FA
100
AcDbEntity
100
AcDbLine
  8
0
 62
256
370
-1
  6
ByLayer
 10
-9.891
 20
2.363
 30
0.0
 11
-9.9800000000000004
 21
2.3889999999999998
 31
0.0
  0
LINE
  5
FB
100
AcDbEntity
100
AcDbLine
  8
0
 62
256
370
-1
  6
ByLayer
 10
-9.9800000000000004
 20
2.3889999999999998
 30
0.0
 11
-10.0670000000000002
 21
2.4199999999999999
 31
0.0
  0
LINE
  5
FC
100
AcDbEntity
100
AcDbLine
  8
0
 62
256
370
-1
  6
ByLayer
 10
-10.0670000000000002
 20
2.4199999999999999
 30
0.0
 11
-10.1519999999999992
 21
2.4569999999999999
 31
0.0
  0
LINE
  5
FD
100
AcDbEntity
100
AcDbLine
  8
0
 62
256
370
-1
  6
ByLayer
 10
-10.1519999999999992
 20
2.4569999999999999
 30
0.0
 11
-10.2349999999999994
 21
2.4990000000000001
 31
0.0
  0
LINE
  5
FE
100
AcDbEntity
100
AcDbLine
  8
0
 62
256
370
-1
  6
ByLayer
 10
-10.2349999999999994
 20
2.4990000000000001
 30
0.0
 11
-10.3140000000000001
 21
2.5459999999999998
 31
0.0
  0
LINE
  5
FF
100
AcDbEntity
100
AcDbLine
  8
0
 62
256
370
-1
  6
ByLayer
 10
-10.3140000000000001
 20
2.5459999999999998
 30
0.0
 11
-10.391
 21
2.5979999999999999
 31
0.0
  0
LINE
  5
100
100
AcDbEntity
100
AcDbLine
  8
0
 62
256
370
-1
  6
ByLayer
 10
-10.391
 20
2.5979999999999999
 30
0.0
 11
-10.4640000000000004
 21
2.6549999999999998
 31
0.0
  0
LINE
  5
101
100
AcDbEntity
100
AcDbLine
  8
0
 62
256
370
-1
  6
ByLayer
 10
-10.4640000000000004
 20
2.6549999999999998
 30
0.0
 11
-10.5329999999999995
 21
2.7160000000000002
 31
0.0
  0
LINE
  5
102
100
AcDbEntity
100
AcDbLine
  8
0
 62
256
370
-1
  6
ByLayer
 10
-10.5329999999999995
 20
2.7160000000000002
 30
0.0
 11
-10.5990000000000002
 21
2.7810000000000001
 31
0.0
  0
LINE
  5
103
100
AcDbEntity
100
AcDbLine
  8
0
 62
256
370
-1
  6
ByLayer
 10
-10.5990000000000002
 20
2.7810000000000001
 30
0.0
 11
-10.6600000000000001
 21
2.851
 31
0.0
  0
LINE
  5
104
100
AcDbEntity
100
AcDbLine
  8
0
 62
256
370
-1
  6
ByLayer
 10
-10.6600000000000001
 20
2.851
 30
0.0
 11
-10.7170000000000005
 21
2.9239999999999999
 31
0.0
  0
LINE
  5
105
100
AcDbEntity
100
AcDbLine
  8
0
 62
256
370
-1
  6
ByLayer
 10
-10.7170000000000005
 20
2.9239999999999999
 30
0.0
 11
-10.7690000000000001
 21
3.0
 31
0.0
  0
LINE
  5
106
100
AcDbEntity
100
AcDbLine
  8
0
 62
256
370
-1
  6
ByLayer
 10
-10.7690000000000001
 20
3.0
 30
0.0
 11
-10.8160000000000007
 21
3.0800000000000001
 31
0.0
  0
LINE
  5
107
100
AcDbEntity
100
AcDbLine
  8
0
 62
256
370
-1
  6
ByLayer
 10
-10.8160000000000007
 20
3.0800000000000001
 30
0.0
 11
-10.8580000000000005
 21
3.1619999999999999
 31
0.0
  0
LINE
  5
108
100
AcDbEntity
100
AcDbLine
  8
0
 62
256
370
-1
  6
ByLayer
 10
-10.8580000000000005
 20
3.1619999999999999
 30
0.0
 11
-10.8949999999999996
 21
3.2469999999999999
 31
0.0
  0
LINE
  5
109
100
AcDbEntity
100
AcDbLine
  8
0
 62
256
370
-1
  6
ByLayer
 10
-10.8949999999999996
 20
3.2469999999999999
 30
0.0
 11
-10.9260000000000002
 21
3.3340000000000001
 31
0.0
  0
LINE
  5
10A
100
AcDbEntity
100
AcDbLine
  8
0
 62
256
370
-1
  6
ByLayer
 10
-10.9260000000000002
 20
3.3340000000000001
 30
0.0
 11
-10.952
 21
3.423
 31
0.0
  0
LINE
  5
10B
100
AcDbEntity
100
AcDbLine
  8
0
 62
256
370
-1
  6
ByLayer
 10
-10.952
 20
3.423
 30
0.0
 11
-10.9719999999999995
 21
3.5139999999999998
 31
0.0
  0
LINE
  5
10C
100
AcDbEntity
100
AcDbLine
  8
0
 62
256
370
-1
  6
ByLayer
 10
-10.9719999999999995
 20
3.5139999999999998
 30
0.0
 11
-10.9870000000000001
 21
3.605
 31
0.0
  0
LINE
  5
10D
100
AcDbEntity
100
AcDbLine
  8
0
 62
256
370
-1
  6
ByLayer
 10
-10.9870000000000001
 20
3.605
 30
0.0
 11
-10.9949999999999992
 21
3.6970000000000001
 31
0.0
  0
LINE
  5
10E
100
AcDbEntity
100
AcDbLine
  8
0
 62
256
370
-1
  6
ByLayer
 10
-10.9949999999999992
 20
3.6970000000000001
 30
0.0
 11
-10.9979999999999993
 21
3.79
 31
0.0
  0
LINE
  5
10F
100
AcDbEntity
100
AcDbLine
  8
0
 62
256
370
-1
  6
ByLayer
 10
-4.0
 20
-3.556
 30
0.0
 11
-3.9969999999999999
 21
-3.444
 31
0.0
  0
LINE
  5
110
100
AcDbEntity
100
AcDbLine
  8
0
 62
256
370
-1
  6
ByLayer
 10
-3.9969999999999999
 20
-3.444
 30
0.0
 11
-3.9860000000000002
 21
-3.3330000000000002
 31
0.0
  0
LINE
  5
111
100
AcDbEntity
100
AcDbLine
  8
0
 62
256
370
-1
  6
ByLayer
 10
-3.9860000000000002
 20
-3.3330000000000002
 30
0.0
 11
-3.9689999999999999
 21
-3.2229999999999999
 31
0.0
  0
LINE
  5
112
100
AcDbEntity
100
AcDbLine
  8
0
 62
256
370
-1
  6
ByLayer
 10
-3.9689999999999999
 20
-3.2229999999999999
 30
0.0
 11
-3.9449999999999998
 21
-3.1139999999999999
 31
0.0
  0
LINE
  5
113
100
AcDbEntity
100
AcDbLine
  8
0
 62
256
370
-1
  6
ByLayer
 10
-3.9449999999999998
 20
-3.1139999999999999
 30
0.0
 11
-3.9129999999999998
 21
-3.0070000000000001
 31
0.0
  0
LINE
  5
114
100
AcDbEntity
100
AcDbLine
  8
0
 62
256
370
-1
  6
ByLayer
 10
-3.9129999999999998
 20
-3.0070000000000001
 30
0.0
 11
-3.8759999999999999
 21
-2.9009999999999998
 31
0.0
  0
LINE
  5
115
100
AcDbEntity
100
AcDbLine
  8
0
 62
256
370
-1
  6
ByLayer
 10
-3.8759999999999999
 20
-2.9009999999999998
 30
0.0
 11
-3.831
 21
-2.7989999999999999
 31
0.0
  0
LINE
  5
116
100
AcDbEntity
100
AcDbLine
  8
0
 62
256
370
-1
  6
ByLayer
 10
-3.831
 20
-2.7989999999999999
 30
0.0
 11
-3.7810000000000001
 21
-2.6989999999999998
 31
0.0
  0
LINE
  5
117
100
AcDbEntity
100
AcDbLine
  8
0
 62
256
370
-1
  6
ByLayer
 10
-3.7810000000000001
 20
-2.6989999999999998
 30
0.0
 11
-3.7240000000000002
 21
-2.6030000000000002
 31
0.0
  0
LINE
  5
118
100
AcDbEntity
100
AcDbLine
  8
0
 62
256
370
-1
  6
ByLayer
 10
-3.7240000000000002
 20
-2.6030000000000002
 30
0.0
 11
-3.661
 21
-2.5110000000000001
 31
0.0
  0
LINE
  5
119
100
AcDbEntity
100
AcDbLine
  8
0
 62
256
370
-1
  6
ByLayer
 10
-3.661
 20
-2.5110000000000001
 30
0.0
 11
-3.5920000000000001
 21
-2.423
 31
0.0
  0
LINE
  5
11A
100
AcDbEntity
100
AcDbLine
  8
0
 62
256
370
-1
  6
ByLayer
 10
-3.5920000000000001
 20
-2.423
 30
0.0
 11
-3.5190000000000001
 21
-2.339
 31
0.0
  0
LINE
  5
11B
100
AcDbEntity
100
AcDbLine
  8
0
 62
256
370
-1
  6
ByLayer
 10
-3.5190000000000001
 20
-2.339
 30
0.0
 11
-3.4399999999999999
 21
-2.2599999999999998
 31
0.0
  0
LINE
  5
11C
100
AcDbEntity
100
AcDbLine
  8
0
 62
256
370
-1
  6
ByLayer
 10
-3.4399999999999999
 20
-2.2599999999999998
 30
0.0
 11
-3.3559999999999999
 21
-2.1859999999999999
 31
0.0
  0
LINE
  5
11D
100
AcDbEntity
100
AcDbLine
  8
0
 62
256
370
-1
  6
ByLayer
 10
-3.3559999999999999
 20
-2.1859999999999999
 30
0.0
 11
-3.2679999999999998
 21
-2.1179999999999999
 31
0.0
  0
LINE
  5
11E
100
AcDbEntity
100
AcDbLine
  8
0
 62
256
370
-1
  6
ByLayer
 10
-3.2679999999999998
 20
-2.1179999999999999
 30
0.0
 11
-3.1749999999999998
 21
-2.0550000000000002
 31
0.0
  0
LINE
  5
11F
100
AcDbEntity
100
AcDbLine
  8
0
 62
256
370
-1
  6
ByLayer
 10
-3.1749999999999998
 20
-2.0550000000000002
 30
0.0
 11
-3.0790000000000002
 21
-1.998
 31
0.0
  0
LINE
  5
120
100
AcDbEntity
100
AcDbLine
  8
0
 62
256
370
-1
  6
ByLayer
 10
-3.0790000000000002
 20
-1.998
 30
0.0
 11
-2.98
 21
-1.9470000000000001
 31
0.0
  0
LINE
  5
121
100
AcDbEntity
100
AcDbLine
  8
0
 62
256
370
-1
  6
ByLayer
 10
-2.98
 20
-1.9470000000000001
 30
0.0
 11
-2.8769999999999998
 21
-1.903
 31
0.0
  0
LINE
  5
122
100
AcDbEntity
100
AcDbLine
  8
0
 62
256
370
-1
  6
ByLayer
 10
-2.8769999999999998
 20
-1.903
 30
0.0
 11
-2.7719999999999998
 21
-1.865
 31
0.0
  0
LINE
  5
123
100
AcDbEntity
100
AcDbLine
  8
0
 62
256
370
-1
  6
ByLayer
 10
-2.7719999999999998
 20
-1.865
 30
0.0
 11
-2.665
 21
-1.8340000000000001
 31
0.0
  0
LINE
  5
124
100
AcDbEntity
100
AcDbLine
  8
0
 62
256
370
-1
  6
ByLayer
 10
-2.665
 20
-1.8340000000000001
 30
0.0
 11
-2.556
 21
-1.8089999999999999
 31
0.0
  0
LINE
  5
125
100
AcDbEntity
100
AcDbLine
  8
0
 62
256
370
-1
  6
ByLayer
 10
-2.556
 20
-1.8089999999999999
 30
0.0
 11
-2.4449999999999998
 21
-1.792
 31
0.0
  0
LINE
  5
126
100
AcDbEntity
100
AcDbLine
  8
0
 62
256
370
-1
  6
ByLayer
 10
-2.4449999999999998
 20
-1.792
 30
0.0
 11
-2.3340000000000001
 21
-1.782
 31
0.0
  0
LINE
  5
127
100
AcDbEntity
100
AcDbLine
  8
0
 62
256
370
-1
  6
ByLayer
 10
-2.3340000000000001
 20
-1.782
 30
0.0
 11
-2.222
 21
-1.778
 31
0.0
  0
LINE
  5
128
100
AcDbEntity
100
AcDbLine
  8
0
 62
256
370
-1
  6
ByLayer
 10
-2.222
 20
-1.778
 30
0.0
 11
-2.1110000000000002
 21
-1.782
 31
0.0
  0
LINE
  5
129
100
AcDbEntity
100
AcDbLine
  8
0
 62
256
370
-1
  6
ByLayer
 10
-2.1110000000000002
 20
-1.782
 30
0.0
 11
-2.0
 21
-1.792
 31
0.0
  0
LINE
  5
12A
100
AcDbEntity
100
AcDbLine
  8
0
 62
256
370
-1
  6
ByLayer
 10
-2.0
 20
-1.792
 30
0.0
 11
-1.889
 21
-1.8089999999999999
 31
0.0
  0
LINE
  5
12B
100
AcDbEntity
100
AcDbLine
  8
0
 62
256
370
-1
  6
ByLayer
 10
-1.889
 20
-1.8089999999999999
 30
0.0
 11
-1.78
 21
-1.8340000000000001
 31
0.0
  0
LINE
  5
12C
100
AcDbEntity
100
AcDbLine
  8
0
 62
256
370
-1
  6
ByLayer
 10
-1.78
 20
-1.8340000000000001
 30
0.0
 11
-1.673
 21
-1.865
 31
0.0
  0
LINE
  5
12D
100
AcDbEntity
100
AcDbLine
  8
0
 62
256
370
-1
  6
ByLayer
 10
-1.673
 20
-1.865
 30
0.0
 11
-1.5680000000000001
 21
-1.903
 31
0.0
  0
LINE
  5
12E
100
AcDbEntity
100
AcDbLine
  8
0
 62
256
370
-1
  6
ByLayer
 10
-1.5680000000000001
 20
-1.903
 30
0.0
 11
-1.4650000000000001
 21
-1.9470000000000001
 31
0.0
  0
LINE
  5
12F
100
AcDbEntity
100
AcDbLine
  8
0
 62
256
370
-1
  6
ByLayer
 10
-1.4650000000000001
 20
-1.9470000000000001
 30
0.0
 11
-1.3660000000000001
 21
-1.998
 31
0.0
  0
LINE
  5
130
100
AcDbEntity
100
AcDbLine
  8
0
 62
256
370
-1
  6
ByLayer
 10
-1.3660000000000001
 20
-1.998
 30
0.0
 11
-1.27
 21
-2.0550000000000002
 31
0.0
  0
LINE
  5
131
100
AcDbEntity
100
AcDbLine
  8
0
 62
256
370
-1
  6
ByLayer
 10
-1.27
 20
-2.0550000000000002
 30
0.0
 11
-1.177
 21
-2.1179999999999999
 31
0.0
  0
LINE
  5
132
100
AcDbEntity
100
AcDbLine
  8
0
 62
256
370
-1
  6
ByLayer
 10
-1.177
 20
-2.1179999999999999
 30
0.0
 11
-1.089
 21
-2.1859999999999999
 31
0.0
  0
LINE
  5
133
100
AcDbEntity
100
AcDbLine
  8
0
 62
256
370
-1
  6
ByLayer
 10
-1.089
 20
-2.1859999999999999
 30
0.0
 11
-1.0049999999999999
 21
-2.2599999999999998
 31
0.0
  0
LINE
  5
134
100
AcDbEntity
100
AcDbLine
  8
0
 62
256
370
-1
  6
ByLayer
 10
-1.0049999999999999
 20
-2.2599999999999998
 30
0.0
 11
-0.926
 21
-2.339
 31
0.0
  0
LINE
  5
135
100
AcDbEntity
100
AcDbLine
  8
0
 62
256
370
-1
  6
ByLayer
 10
-0.926
 20
-2.339
 30
0.0
 11
-0.853
 21
-2.423
 31
0.0
  0
LINE
  5
136
100
AcDbEntity
100
AcDbLine
  8
0
 62
256
370
-1
  6
ByLayer
 10
-0.853
 20
-2.423
 30
0.0
 11
-0.784
 21
-2.5110000000000001
 31
0.0
  0
LINE
  5
137
100
AcDbEntity
100
AcDbLine
  8
0
 62
256
370
-1
  6
ByLayer
 10
-0.784
 20
-2.5110000000000001
 30
0.0
 11
-0.721
 21
-2.6030000000000002
 31
0.0
  0
LINE
  5
138
100
AcDbEntity
100
AcDbLine
  8
0
 62
256
370
-1
  6
ByLayer
 10
-0.721
 20
-2.6030000000000002
 30
0.0
 11
-0.664
 21
-2.6989999999999998
 31
0.0
  0
LINE
  5
139
100
AcDbEntity
100
AcDbLine
  8
0
 62
256
370
-1
  6
ByLayer
 10
-0.664
 20
-2.6989999999999998
 30
0.0
 11
-0.614
 21
-2.7989999999999999
 31
0.0
  0
LINE
  5
13A
100
AcDbEntity
100
AcDbLine
  8
0
 62
256
370
-1
  6
ByLayer
 10
-0.614
 20
-2.7989999999999999
 30
0.0
 11
-0.569
 21
-2.9009999999999998
 31
0.0
  0
LINE
  5
13B
100
AcDbEntity
100
AcDbLine
  8
0
 62
256
370
-1
  6
ByLayer
 10
-0.569
 20
-2.9009999999999998
 30
0.0
 11
-0.532
 21
-3.0070000000000001
 31
0.0
  0
LINE
  5
13C
100
AcDbEntity
100
AcDbLine
  8
0
 62
256
370
-1
  6
ByLayer
 10
-0.532
 20
-3.0070000000000001
 30
0.0
 11
-0.5
 21
-3.1139999999999999
 31
0.0
  0
LINE
  5
13D
100
AcDbEntity
100
AcDbLine
  8
0
 62
256
370
-1
  6
ByLayer
 10
-0.5
 20
-3.1139999999999999
 30
0.0
 11
-0.476
 21
-3.2229999999999999
 31
0.0
  0
LINE
  5
13E
100
AcDbEntity
100
AcDbLine
  8
0
 62
256
370
-1
  6
ByLayer
 10
-0.476
 20
-3.2229999999999999
 30
0.0
 11
-0.459
 21
-3.3330000000000002
 31
0.0
  0
LINE
  5
13F
100
AcDbEntity
100
AcDbLine
  8
0
 62
256
370
-1
  6
ByLayer
 10
-0.459
 20
-3.3330000000000002
 30
0.0
 11
-0.448
 21
-3.444
 31
0.0
  0
LINE
  5
140
100
AcDbEntity
100
AcDbLine
  8
0
 62
256
370
-1
  6
ByLayer
 10
-0.448
 20
-3.444
 30
0.0
 11
-0.445
 21
-3.556
 31
0.0
  0
LINE
  5
141
100
AcDbEntity
100
AcDbLine
  8
0
 62
256
370
-1
  6
ByLayer
 10
-0.445
 20
-3.556
 30
0.0
 11
-0.448
 21
-3.6680000000000001
 31
0.0
  0
LINE
  5
142
100
AcDbEntity
100
AcDbLine
  8
0
 62
256
370
-1
  6
ByLayer
 10
-0.448
 20
-3.6680000000000001
 30
0.0
 11
-0.459
 21
-3.7789999999999999
 31
0.0
  0
LINE
  5
143
100
AcDbEntity
100
AcDbLine
  8
0
 62
256
370
-1
  6
ByLayer
 10
-0.459
 20
-3.7789999999999999
 30
0.0
 11
-0.476
 21
-3.8889999999999998
 31
0.0
  0
LINE
  5
144
100
AcDbEntity
100
AcDbLine
  8
0
 62
256
370
-1
  6
ByLayer
 10
-0.476
 20
-3.8889999999999998
 30
0.0
 11
-0.5
 21
-3.9980000000000002
 31
0.0
  0
LINE
  5
145
100
AcDbEntity
100
AcDbLine
  8
0
 62
256
370
-1
  6
ByLayer
 10
-0.5
 20
-3.9980000000000002
 30
0.0
 11
-0.532
 21
-4.1050000000000004
 31
0.0
  0
LINE
  5
146
100
AcDbEntity
100
AcDbLine
  8
0
 62
256
370
-1
  6
ByLayer
 10
-0.532
 20
-4.1050000000000004
 30
0.0
 11
-0.569
 21
-4.2110000000000003
 31
0.0
  0
LINE
  5
147
100
AcDbEntity
100
AcDbLine
  8
0
 62
256
370
-1
  6
ByLayer
 10
-0.569
 20
-4.2110000000000003
 30
0.0
 11
-0.614
 21
-4.3129999999999997
 31
0.0
  0
LINE
  5
148
100
AcDbEntity
100
AcDbLine
  8
0
 62
256
370
-1
  6
ByLayer
 10
-0.614
 20
-4.3129999999999997
 30
0.0
 11
-0.664
 21
-4.4130000000000003
 31
0.0
  0
LINE
  5
149
100
AcDbEntity
100
AcDbLine
  8
0
 62
256
370
-1
  6
ByLayer
 10
-0.664
 20
-4.4130000000000003
 30
0.0
 11
-0.721
 21
-4.5090000000000003
 31
0.0
  0
LINE
  5
14A
100
AcDbEntity
100
AcDbLine
  8
0
 62
256
370
-1
  6
ByLayer
 10
-0.721
 20
-4.5090000000000003
 30
0.0
 11
-0.784
 21
-4.601
 31
0.0
  0
LINE
  5
14B
100
AcDbEntity
100
AcDbLine
  8
0
 62
256
370
-1
  6
ByLayer
 10
-0.784
 20
-4.601
 30
0.0
 11
-0.853
 21
-4.6890000000000001
 31
0.0
  0
LINE
  5
14C
100
AcDbEntity
100
AcDbLine
  8
0
 62
256
370
-1
  6
ByLayer
 10
-0.853
 20
-4.6890000000000001
 30
0.0
 11
-0.926
 21
-4.7729999999999997
 31
0.0
  0
LINE
  5
14D
100
AcDbEntity
100
AcDbLine
  8
0
 62
256
370
-1
  6
ByLayer
 10
-0.926
 20
-4.7729999999999997
 30
0.0
 11
-1.0049999999999999
 21
-4.8520000000000003
 31
0.0
  0
LINE
  5
14E
100
AcDbEntity
100
AcDbLine
  8
0
 62
256
370
-1
  6
ByLayer
 10
-1.0049999999999999
 20
-4.8520000000000003
 30
0.0
 11
-1.089
 21
-4.9260000000000002
 31
0.0
  0
LINE
  5
14F
100
AcDbEntity
100
AcDbLine
  8
0
 62
256
370
-1
  6
ByLayer
 10
-1.089
 20
-4.9260000000000002
 30
0.0
 11
-1.177
 21
-4.9939999999999998
 31
0.0
  0
LINE
  5
150
100
AcDbEntity
100
AcDbLine
  8
0
 62
256
370
-1
  6
ByLayer
 10
-1.177
 20
-4.9939999999999998
 30
0.0
 11
-1.27
 21
-5.0570000000000004
 31
0.0
  0
LINE
  5
151
100
AcDbEntity
100
AcDbLine
  8
0
 62
256
370
-1
  6
ByLayer
 10
-1.27
 20
-5.0570000000000004
 30
0.0
 11
-1.3660000000000001
 21
-5.1139999999999999
 31
0.0
  0
LINE
  5
152
100
AcDbEntity
100
AcDbLine
  8
0
 62
256
370
-1
  6
ByLayer
 10
-1.3660000000000001
 20
-5.1139999999999999
 30
0.0
 11
-1.4650000000000001
 21
-5.165
 31
0.0
  0
LINE
  5
153
100
AcDbEntity
100
AcDbLine
  8
0
 62
256
370
-1
  6
ByLayer
 10
-1.4650000000000001
 20
-5.165
 30
0.0
 11
-1.5680000000000001
 21
-5.2089999999999996
 31
0.0
  0
LINE
  5
154
100
AcDbEntity
100
AcDbLine
  8
0
 62
256
370
-1
  6
ByLayer
 10
-1.5680000000000001
 20
-5.2089999999999996
 30
0.0
 11
-1.673
 21
-5.2469999999999999
 31
0.0
  0
LINE
  5
155
100
AcDbEntity
100
AcDbLine
  8
0
 62
256
370
-1
  6
ByLayer
 10
-1.673
 20
-5.2469999999999999
 30
0.0
 11
-1.78
 21
-5.2779999999999996
 31
0.0
  0
LINE
  5
156
100
AcDbEntity
100
AcDbLine
  8
0
 62
256
370
-1
  6
ByLayer
 10
-1.78
 20
-5.2779999999999996
 30
0.0
 11
-1.889
 21
-5.3029999999999999
 31
0.0
  0
LINE
  5
157
100
AcDbEntity
100
AcDbLine
  8
0
 62
256
370
-1
  6
ByLayer
 10
-1.889
 20
-5.3029999999999999
 30
0.0
 11
-2.0
 21
-5.3200000000000003
 31
0.0
  0
LINE
  5
158
100
AcDbEntity
100
AcDbLine
  8
0
 62
256
370
-1
  6
ByLayer
 10
-2.0
 20
-5.3200000000000003
 30
0.0
 11
-2.1110000000000002
 21
-5.3300000000000001
 31
0.0
  0
LINE
  5
159
100
AcDbEntity
100
AcDbLine
  8
0
 62
256
370
-1
  6
ByLayer
 10
-2.1110000000000002
 20
-5.3300000000000001
 30
0.0
 11
-2.222
 21
-5.3339999999999996
 31
0.0
  0
LINE
  5
15A
100
AcDbEntity
100
AcDbLine
  8
0
 62
256
370
-1
  6
ByLayer
 10
-2.222
 20
-5.3339999999999996
 30
0.0
 11
-2.3340000000000001
 21
-5.3300000000000001
 31
0.0
  0
LINE
  5
15B
100
AcDbEntity
100
AcDbLine
  8
0
 62
256
370
-1
  6
ByLayer
 10
-2.3340000000000001
 20
-5.3300000000000001
 30
0.0
 11
-2.4449999999999998
 21
-5.3200000000000003
 31
0.0
  0
LINE
  5
15C
100
AcDbEntity
100
AcDbLine
  8
0
 62
256
370
-1
  6
ByLayer
 10
-2.4449999999999998
 20
-5.3200000000000003
 30
0.0
 11
-2.556
 21
-5.3029999999999999
 31
0.0
  0
LINE
  5
15D
100
AcDbEntity
100
AcDbLine
  8
0
 62
256
370
-1
  6
ByLayer
 10
-2.556
 20
-5.3029999999999999
 30
0.0
 11
-2.665
 21
-5.2779999999999996
 31
0.0
  0
LINE
  5
15E
100
AcDbEntity
100
AcDbLine
  8
0
 62
256
370
-1
  6
ByLayer
 10
-2.665
 20
-5.2779999999999996
 30
0.0
 11
-2.7719999999999998
 21
-5.2469999999999999
 31
0.0
  0
LINE
  5
15F
100
AcDbEntity
100
AcDbLine
  8
0
 62
256
370
-1
  6
ByLayer
 10
-2.7719999999999998
 20
-5.2469999999999999
 30
0.0
 11
-2.8769999999999998
 21
-5.2089999999999996
 31
0.0
  0
LINE
  5
160
100
AcDbEntity
100
AcDbLine
  8
0
 62
256
370
-1
  6
ByLayer
 10
-2.8769999999999998
 20
-5.2089999999999996
 30
0.0
 11
-2.98
 21
-5.165
 31
0.0
  0
LINE
  5
161
100
AcDbEntity
100
AcDbLine
  8
0
 62
256
370
-1
  6
ByLayer
 10
-2.98
 20
-5.165
 30
0.0
 11
-3.0790000000000002
 21
-5.1139999999999999
 31
0.0
  0
LINE
  5
162
100
AcDbEntity
100
AcDbLine
  8
0
 62
256
370
-1
  6
ByLayer
 10
-3.0790000000000002
 20
-5.1139999999999999
 30
0.0
 11
-3.1749999999999998
 21
-5.0570000000000004
 31
0.0
  0
LINE
  5
163
100
AcDbEntity
100
AcDbLine
  8
0
 62
256
370
-1
  6
ByLayer
 10
-3.1749999999999998
 20
-5.0570000000000004
 30
0.0
 11
-3.2679999999999998
 21
-4.9939999999999998
 31
0.0
  0
LINE
  5
164
100
AcDbEntity
100
AcDbLine
  8
0
 62
256
370
-1
  6
ByLayer
 10
-3.2679999999999998
 20
-4.9939999999999998
 30
0.0
 11
-3.3559999999999999
 21
-4.9260000000000002
 31
0.0
  0
LINE
  5
165
100
AcDbEntity
100
AcDbLine
  8
0
 62
256
370
-1
  6
ByLayer
 10
-3.3559999999999999
 20
-4.9260000000000002
 30
0.0
 11
-3.4399999999999999
 21
-4.8520000000000003
 31
0.0
  0
LINE
  5
166
100
AcDbEntity
100
AcDbLine
  8
0
 62
256
370
-1
  6
ByLayer
 10
-3.4399999999999999
 20
-4.8520000000000003
 30
0.0
 11
-3.5190000000000001
 21
-4.7729999999999997
 31
0.0
  0
LINE
  5
167
100
AcDbEntity
100
AcDbLine
  8
0
 62
256
370
-1
  6
ByLayer
 10
-3.5190000000000001
 20
-4.7729999999999997
 30
0.0
 11
-3.5920000000000001
 21
-4.6890000000000001
 31
0.0
  0
LINE
  5
168
100
AcDbEntity
100
AcDbLine
  8
0
 62
256
370
-1
  6
ByLayer
 10
-3.5920000000000001
 20
-4.6890000000000001
 30
0.0
 11
-3.661
 21
-4.601
 31
0.0
  0
LINE
  5
169
100
AcDbEntity
100
AcDbLine
  8
0
 62
256
370
-1
  6
ByLayer
 10
-3.661
 20
-4.601
 30
0.0
 11
-3.7240000000000002
 21
-4.5090000000000003
 31
0.0
  0
LINE
  5
16A
100
AcDbEntity
100
AcDbLine
  8
0
 62
256
370
-1
  6
ByLayer
 10
-3.7240000000000002
 20
-4.5090000000000003
 30
0.0
 11
-3.7810000000000001
 21
-4.4130000000000003
 31
0.0
  0
LINE
  5
16B
100
AcDbEntity
100
AcDbLine
  8
0
 62
256
370
-1
  6
ByLayer
 10
-3.7810000000000001
 20
-4.4130000000000003
 30
0.0
 11
-3.831
 21
-4.3129999999999997
 31
0.0
  0
LINE
  5
16C
100
AcDbEntity
100
AcDbLine
  8
0
 62
256
370
-1
  6
ByLayer
 10
-3.831
 20
-4.3129999999999997
 30
0.0
 11
-3.8759999999999999
 21
-4.2110000000000003
 31
0.0
  0
LINE
  5
16D
100
AcDbEntity
100
AcDbLine
  8
0
 62
256
370
-1
  6
ByLayer
 10
-3.8759999999999999
 20
-4.2110000000000003
 30
0.0
 11
-3.9129999999999998
 21
-4.1050000000000004
 31
0.0
  0
LINE
  5
16E
100
AcDbEntity
100
AcDbLine
  8
0
 62
256
370
-1
  6
ByLayer
 10
-3.9129999999999998
 20
-4.1050000000000004
 30
0.0
 11
-3.9449999999999998
 21
-3.9980000000000002
 31
0.0
  0
LINE
  5
16F
100
AcDbEntity
100
AcDbLine
  8
0
 62
256
370
-1
  6
ByLayer
 10
-3.9449999999999998
 20
-3.9980000000000002
 30
0.0
 11
-3.9689999999999999
 21
-3.8889999999999998
 31
0.0
  0
LINE
  5
170
100
AcDbEntity
100
AcDbLine
  8
0
 62
256
370
-1
  6
ByLayer
 10
-3.9689999999999999
 20
-3.8889999999999998
 30
0.0
 11
-3.9860000000000002
 21
-3.7789999999999999
 31
0.0
  0
LINE
  5
171
100
AcDbEntity
100
AcDbLine
  8
0
 62
256
370
-1
  6
ByLayer
 10
-3.9860000000000002
 20
-3.7789999999999999
 30
0.0
 11
-3.9969999999999999
 21
-3.6680000000000001
 31
0.0
  0
LINE
  5
172
100
AcDbEntity
100
AcDbLine
  8
0
 62
256
370
-1
  6
ByLayer
 10
-3.9969999999999999
 20
-3.6680000000000001
 30
0.0
 11
-4.0
 21
-3.556
 31
0.0
  0
LINE
  5
173
100
AcDbEntity
100
AcDbLine
  8
0
 62
256
370
-1
  6
ByLayer
 10
3.9369999999999998
 20
-3.556
 30
0.0
 11
3.9420000000000002
 21
-3.4079999999999999
 31
0.0
  0
LINE
  5
174
100
AcDbEntity
100
AcDbLine
  8
0
 62
256
370
-1
  6
ByLayer
 10
3.9420000000000002
 20
-3.4079999999999999
 30
0.0
 11
3.956
 21
-3.262
 31
0.0
  0
LINE
  5
175
100
AcDbEntity
100
AcDbLine
  8
0
 62
256
370
-1
  6
ByLayer
 10
3.956
 20
-3.262
 30
0.0
 11
3.9790000000000001
 21
-3.1160000000000001
 31
0.0
  0
LINE
  5
176
100
AcDbEntity
100
AcDbLine
  8
0
 62
256
370
-1
  6
ByLayer
 10
3.9790000000000001
 20
-3.1160000000000001
 30
0.0
 11
4.0110000000000001
 21
-2.972
 31
0.0
  0
LINE
  5
177
100
AcDbEntity
100
AcDbLine
  8
0
 62
256
370
-1
  6
ByLayer
 10
4.0110000000000001
 20
-2.972
 30
0.0
 11
4.0519999999999996
 21
-2.8300000000000001
 31
0.0
  0
LINE
  5
178
100
AcDbEntity
100
AcDbLine
  8
0
 62
256
370
-1
  6
ByLayer
 10
4.0519999999999996
 20
-2.8300000000000001
 30
0.0
 11
4.1020000000000003
 21
-2.6909999999999998
 31
0.0
  0
LINE
  5
179
100
AcDbEntity
100
AcDbLine
  8
0
 62
256
370
-1
  6
ByLayer
 10
4.1020000000000003
 20
-2.6909999999999998
 30
0.0
 11
4.1609999999999996
 21
-2.556
 31
0.0
  0
LINE
  5
17A
100
AcDbEntity
100
AcDbLine
  8
0
 62
256
370
-1
  6
ByLayer
 10
4.1609999999999996
 20
-2.556
 30
0.0
 11
4.2279999999999998
 21
-2.4239999999999999
 31
0.0
  0
LINE
  5
17B
100
AcDbEntity
100
AcDbLine
  8
0
 62
256
370
-1
  6
ByLayer
 10
4.2279999999999998
 20
-2.4239999999999999
 30
0.0
 11
4.3029999999999999
 21
-2.2970000000000002
 31
0.0
  0
LINE
  5
17C
100
AcDbEntity
100
AcDbLine
  8
0
 62
256
370
-1
  6
ByLayer
 10
4.3029999999999999
 20
-2.2970000000000002
 30
0.0
 11
4.3860000000000001
 21
-2.1749999999999998
 31
0.0
  0
LINE
  5
17D
100
AcDbEntity
100
AcDbLine
  8
0
 62
256
370
-1
  6
ByLayer
 10
4.3860000000000001
 20
-2.1749999999999998
 30
0.0
 11
4.476
 21
-2.0579999999999998
 31
0.0
  0
LINE
  5
17E
100
AcDbEntity
100
AcDbLine
  8
0
 62
256
370
-1
  6
ByLayer
 10
4.476
 20
-2.0579999999999998
 30
0.0
 11
4.5739999999999998
 21
-1.948
 31
0.0
  0
LINE
  5
17F
100
AcDbEntity
100
AcDbLine
  8
0
 62
256
370
-1
  6
ByLayer
 10
4.5739999999999998
 20
-1.948
 30
0.0
 11
4.6779999999999999
 21
-1.843
 31
0.0
  0
LINE
  5
180
100
AcDbEntity
100
AcDbLine
  8
0
 62
256
370
-1
  6
ByLayer
 10
4.6779999999999999
 20
-1.843
 30
0.0
 11
4.7889999999999997
 21
-1.746
 31
0.0
  0
LINE
  5
181
100
AcDbEntity
100
AcDbLine
  8
0
 62
256
370
-1
  6
ByLayer
 10
4.7889999999999997
 20
-1.746
 30
0.0
 11
4.9050000000000002
 21
-1.655
 31
0.0
  0
LINE
  5
182
100
AcDbEntity
100
AcDbLine
  8
0
 62
256
370
-1
  6
ByLayer
 10
4.9050000000000002
 20
-1.655
 30
0.0
 11
5.0279999999999996
 21
-1.5720000000000001
 31
0.0
  0
LINE
  5
183
100
AcDbEntity
100
AcDbLine
  8
0
 62
256
370
-1
  6
ByLayer
 10
5.0279999999999996
 20
-1.5720000000000001
 30
0.0
 11
5.1550000000000002
 21
-1.4970000000000001
 31
0.0
  0
LINE
  5
184
100
AcDbEntity
100
AcDbLine
  8
0
 62
256
370
-1
  6
ByLayer
 10
5.1550000000000002
 20
-1.4970000000000001
 30
0.0
 11
5.2859999999999996
 21
-1.4299999999999999
 31
0.0
  0
LINE
  5
185
100
AcDbEntity
100
AcDbLine
  8
0
 62
256
370
-1
  6
ByLayer
 10
5.2859999999999996
 20
-1.4299999999999999
 30
0.0
 11
5.4219999999999997
 21
-1.371
 31
0.0
  0
LINE
  5
186
100
AcDbEntity
100
AcDbLine
  8
0
 62
256
370
-1
  6
ByLayer
 10
5.4219999999999997
 20
-1.371
 30
0.0
 11
5.5599999999999996
 21
-1.321
 31
0.0
  0
LINE
  5
187
100
AcDbEntity
100
AcDbLine
  8
0
 62
256
370
-1
  6
ByLayer
 10
5.5599999999999996
 20
-1.321
 30
0.0
 11
5.702
 21
-1.28
 31
0.0
  0
LINE
  5
188
100
AcDbEntity
100
AcDbLine
  8
0
 62
256
370
-1
  6
ByLayer
 10
5.702
 20
-1.28
 30
0.0
 11
5.8460000000000001
 21
-1.248
 31
0.0
  0
LINE
  5
189
100
AcDbEntity
100
AcDbLine
  8
0
 62
256
370
-1
  6
ByLayer
 10
5.8460000000000001
 20
-1.248
 30
0.0
 11
5.992
 21
-1.2250000000000001
 31
0.0
  0
LINE
  5
18A
100
AcDbEntity
100
AcDbLine
  8
0
 62
256
370
-1
  6
ByLayer
 10
5.992
 20
-1.2250000000000001
 30
0.0
 11
6.1390000000000002
 21
-1.2110000000000001
 31
0.0
  0
LINE
  5
18B
100
AcDbEntity
100
AcDbLine
  8
0
 62
256
370
-1
  6
ByLayer
 10
6.1390000000000002
 20
-1.2110000000000001
 30
0.0
 11
6.2859999999999996
 21
-1.206
 31
0.0
  0
LINE
  5
18C
100
AcDbEntity
100
AcDbLine
  8
0
 62
256
370
-1
  6
ByLayer
 10
6.2859999999999996
 20
-1.206
 30
0.0
 11
6.4340000000000002
 21
-1.2110000000000001
 31
0.0
  0
LINE
  5
18D
100
AcDbEntity
100
AcDbLine
  8
0
 62
256
370
-1
  6
ByLayer
 10
6.4340000000000002
 20
-1.2110000000000001
 30
0.0
 11
6.5810000000000004
 21
-1.2250000000000001
 31
0.0
  0
LINE
  5
18E
100
AcDbEntity
100
AcDbLine
  8
0
 62
256
370
-1
  6
ByLayer
 10
6.5810000000000004
 20
-1.2250000000000001
 30
0.0
 11
6.7270000000000003
 21
-1.248
 31
0.0
  0
LINE
  5
18F
100
AcDbEntity
100
AcDbLine
  8
0
 62
256
370
-1
  6
ByLayer
 10
6.7270000000000003
 20
-1.248
 30
0.0
 11
6.8710000000000004
 21
-1.28
 31
0.0
  0
LINE
  5
190
100
AcDbEntity
100
AcDbLine
  8
0
 62
256
370
-1
  6
ByLayer
 10
6.8710000000000004
 20
-1.28
 30
0.0
 11
7.0129999999999999
 21
-1.321
 31
0.0
  0
LINE
  5
191
100
AcDbEntity
100
AcDbLine
  8
0
 62
256
370
-1
  6
ByLayer
 10
7.0129999999999999
 20
-1.321
 30
0.0
 11
7.1509999999999998
 21
-1.371
 31
0.0
  0
LINE
  5
192
100
AcDbEntity
100
AcDbLine
  8
0
 62
256
370
-1
  6
ByLayer
 10
7.1509999999999998
 20
-1.371
 30
0.0
 11
7.2869999999999999
 21
-1.4299999999999999
 31
0.0
  0
LINE
  5
193
100
AcDbEntity
100
AcDbLine
  8
0
 62
256
370
-1
  6
ByLayer
 10
7.2869999999999999
 20
-1.4299999999999999
 30
0.0
 11
7.4180000000000001
 21
-1.4970000000000001
 31
0.0
  0
LINE
  5
194
100
AcDbEntity
100
AcDbLine
  8
0
 62
256
370
-1
  6
ByLayer
 10
7.4180000000000001
 20
-1.4970000000000001
 30
0.0
 11
7.5449999999999999
 21
-1.5720000000000001
 31
0.0
  0
LINE
  5
195
100
AcDbEntity
100
AcDbLine
  8
0
 62
256
370
-1
  6
ByLayer
 10
7.5449999999999999
 20
-1.5720000000000001
 30
0.0
 11
7.6680000000000001
 21
-1.655
 31
0.0
  0
LINE
  5
196
100
AcDbEntity
100
AcDbLine
  8
0
 62
256
370
-1
  6
ByLayer
 10
7.6680000000000001
 20
-1.655
 30
0.0
 11
7.7839999999999998
 21
-1.746
 31
0.0
  0
LINE
  5
197
100
AcDbEntity
100
AcDbLine
  8
0
 62
256
370
-1
  6
ByLayer
 10
7.7839999999999998
 20
-1.746
 30
0.0
 11
7.8949999999999996
 21
-1.843
 31
0.0
  0
LINE
  5
198
100
AcDbEntity
100
AcDbLine
  8
0
 62
256
370
-1
  6
ByLayer
 10
7.8949999999999996
 20
-1.843
 30
0.0
 11
7.9989999999999997
 21
-1.948
 31
0.0
  0
LINE
  5
199
100
AcDbEntity
100
AcDbLine
  8
0
 62
256
370
-1
  6
ByLayer
 10
7.9989999999999997
 20
-1.948
 30
0.0
 11
8.0969999999999995
 21
-2.0579999999999998
 31
0.0
  0
LINE
  5
19A
100
AcDbEntity
100
AcDbLine
  8
0
 62
256
370
-1
  6
ByLayer
 10
8.0969999999999995
 20
-2.0579999999999998
 30
0.0
 11
8.1869999999999994
 21
-2.1749999999999998
 31
0.0
  0
LINE
  5
19B
100
AcDbEntity
100
AcDbLine
  8
0
 62
256
370
-1
  6
ByLayer
 10
8.1869999999999994
 20
-2.1749999999999998
 30
0.0
 11
8.2699999999999996
 21
-2.2970000000000002
 31
0.0
  0
LINE
  5
19C
100
AcDbEntity
100
AcDbLine
  8
0
 62
256
370
-1
  6
ByLayer
 10
8.2699999999999996
 20
-2.2970000000000002
 30
0.0
 11
8.3450000000000006
 21
-2.4239999999999999
 31
0.0
  0
LINE
  5
19D
100
AcDbEntity
100
AcDbLine
  8
0
 62
256
370
-1
  6
ByLayer
 10
8.3450000000000006
 20
-2.4239999999999999
 30
0.0
 11
8.4120000000000008
 21
-2.556
 31
0.0
  0
LINE
  5
19E
100
AcDbEntity
100
AcDbLine
  8
0
 62
256
370
-1
  6
ByLayer
 10
8.4120000000000008
 20
-2.556
 30
0.0
 11
8.4710000000000001
 21
-2.6909999999999998
 31
0.0
  0
LINE
  5
19F
100
AcDbEntity
100
AcDbLine
  8
0
 62
256
370
-1
  6
ByLayer
 10
8.4710000000000001
 20
-2.6909999999999998
 30
0.0
 11
8.5210000000000008
 21
-2.8300000000000001
 31
0.0
  0
LINE
  5
1A0
100
AcDbEntity
100
AcDbLine
  8
0
 62
256
370
-1
  6
ByLayer
 10
8.5210000000000008
 20
-2.8300000000000001
 30
0.0
 11
8.5619999999999994
 21
-2.972
 31
0.0
  0
LINE
  5
1A1
100
AcDbEntity
100
AcDbLine
  8
0
 62
256
370
-1
  6
ByLayer
 10
8.5619999999999994
 20
-2.972
 30
0.0
 11
8.5939999999999994
 21
-3.1160000000000001
 31
0.0
  0
LINE
  5
1A2
100
AcDbEntity
100
AcDbLine
  8
0
 62
256
370
-1
  6
ByLayer
 10
8.5939999999999994
 20
-3.1160000000000001
 30
0.0
 11
8.6170000000000009
 21
-3.262
 31
0.0
  0
LINE
  5
1A3
100
AcDbEntity
100
AcDbLine
  8
0
 62
256
370
-1
  6
ByLayer
 10
8.6170000000000009
 20
-3.262
 30
0.0
 11
8.6310000000000002
 21
-3.4079999999999999
 31
0.0
  0
LINE
  5
1A4
100
AcDbEntity
100
AcDbLine
  8
0
 62
256
370
-1
  6
ByLayer
 10
8.6310000000000002
 20
-3.4079999999999999
 30
0.0
 11
8.6359999999999992
 21
-3.556
 31
0.0
  0
LINE
  5
1A5
100
AcDbEntity
100
AcDbLine
  8
0
 62
256
370
-1
  6
ByLayer
 10
8.6359999999999992
 20
-3.556
 30
0.0
 11
8.6310000000000002
 21
-3.7040000000000002
 31
0.0
  0
LINE
  5
1A6
100
AcDbEntity
100
AcDbLine
  8
0
 62
256
370
-1
  6
ByLayer
 10
8.6310000000000002
 20
-3.7040000000000002
 30
0.0
 11
8.6170000000000009
 21
-3.8500000000000001
 31
0.0
  0
LINE
  5
1A7
100
AcDbEntity
100
AcDbLine
  8
0
 62
256
370
-1
  6
ByLayer
 10
8.6170000000000009
 20
-3.8500000000000001
 30
0.0
 11
8.5939999999999994
 21
-3.996
 31
0.0
  0
LINE
  5
1A8
100
AcDbEntity
100
AcDbLine
  8
0
 62
256
370
-1
  6
ByLayer
 10
8.5939999999999994
 20
-3.996
 30
0.0
 11
8.5619999999999994
 21
-4.1399999999999997
 31
0.0
  0
LINE
  5
1A9
100
AcDbEntity
100
AcDbLine
  8
0
 62
256
370
-1
  6
ByLayer
 10
8.5619999999999994
 20
-4.1399999999999997
 30
0.0
 11
8.5210000000000008
 21
-4.282
 31
0.0
  0
LINE
  5
1AA
100
AcDbEntity
100
AcDbLine
  8
0
 62
256
370
-1
  6
ByLayer
 10
8.5210000000000008
 20
-4.282
 30
0.0
 11
8.4710000000000001
 21
-4.4210000000000003
 31
0.0
  0
LINE
  5
1AB
100
AcDbEntity
100
AcDbLine
  8
0
 62
256
370
-1
  6
ByLayer
 10
8.4710000000000001
 20
-4.4210000000000003
 30
0.0
 11
8.4120000000000008
 21
-4.556
 31
0.0
  0
LINE
  5
1AC
100
AcDbEntity
100
AcDbLine
  8
0
 62
256
370
-1
  6
ByLayer
 10
8.4120000000000008
 20
-4.556
 30
0.0
 11
8.3450000000000006
 21
-4.6879999999999997
 31
0.0
  0
LINE
  5
1AD
100
AcDbEntity
100
AcDbLine
  8
0
 62
256
370
-1
  6
ByLayer
 10
8.3450000000000006
 20
-4.6879999999999997
 30
0.0
 11
8.2699999999999996
 21
-4.8150000000000004
 31
0.0
  0
LINE
  5
1AE
100
AcDbEntity
100
AcDbLine
  8
0
 62
256
370
-1
  6
ByLayer
 10
8.2699999999999996
 20
-4.8150000000000004
 30
0.0
 11
8.1869999999999994
 21
-4.9370000000000003
 31
0.0
  0
LINE
  5
1AF
100
AcDbEntity
100
AcDbLine
  8
0
 62
256
370
-1
  6
ByLayer
 10
8.1869999999999994
 20
-4.9370000000000003
 30
0.0
 11
8.0969999999999995
 21
-5.0540000000000003
 31
0.0
  0
LINE
  5
1B0
100
AcDbEntity
100
AcDbLine
  8
0
 62
256
370
-1
  6
ByLayer
 10
8.0969999999999995
 20
-5.0540000000000003
 30
0.0
 11
7.9989999999999997
 21
-5.1639999999999997
 31
0.0
  0
LINE
  5
1B1
100
AcDbEntity
100
AcDbLine
  8
0
 62
256
370
-1
  6
ByLayer
 10
7.9989999999999997
 20
-5.1639999999999997
 30
0.0
 11
7.8949999999999996
 21
-5.2690000000000001
 31
0.0
  0
LINE
  5
1B2
100
AcDbEntity
100
AcDbLine
  8
0
 62
256
370
-1
  6
ByLayer
 10
7.8949999999999996
 20
-5.2690000000000001
 30
0.0
 11
7.7839999999999998
 21
-5.3659999999999997
 31
0.0
  0
LINE
  5
1B3
100
AcDbEntity
100
AcDbLine
  8
0
 62
256
370
-1
  6
ByLayer
 10
7.7839999999999998
 20
-5.3659999999999997
 30
0.0
 11
7.6680000000000001
 21
-5.4569999999999999
 31
0.0
  0
LINE
  5
1B4
100
AcDbEntity
100
AcDbLine
  8
0
 62
256
370
-1
  6
ByLayer
 10
7.6680000000000001
 20
-5.4569999999999999
 30
0.0
 11
7.5449999999999999
 21
-5.54
 31
0.0
  0
LINE
  5
1B5
100
AcDbEntity
100
AcDbLine
  8
0
 62
256
370
-1
  6
ByLayer
 10
7.5449999999999999
 20
-5.54
 30
0.0
 11
7.4180000000000001
 21
-5.6150000000000002
 31
0.0
  0
LINE
  5
1B6
100
AcDbEntity
100
AcDbLine
  8
0
 62
256
370
-1
  6
ByLayer
 10
7.4180000000000001
 20
-5.6150000000000002
 30
0.0
 11
7.2869999999999999
 21
-5.6820000000000004
 31
0.0
  0
LINE
  5
1B7
100
AcDbEntity
100
AcDbLine
  8
0
 62
256
370
-1
  6
ByLayer
 10
7.2869999999999999
 20
-5.6820000000000004
 30
0.0
 11
7.1509999999999998
 21
-5.7409999999999997
 31
0.0
  0
LINE
  5
1B8
100
AcDbEntity
100
AcDbLine
  8
0
 62
256
370
-1
  6
ByLayer
 10
7.1509999999999998
 20
-5.7409999999999997
 30
0.0
 11
7.0129999999999999
 21
-5.7910000000000004
 31
0.0
  0
LINE
  5
1B9
100
AcDbEntity
100
AcDbLine
  8
0
 62
256
370
-1
  6
ByLayer
 10
7.0129999999999999
 20
-5.7910000000000004
 30
0.0
 11
6.8710000000000004
 21
-5.8319999999999999
 31
0.0
  0
LINE
  5
1BA
100
AcDbEntity
100
AcDbLine
  8
0
 62
256
370
-1
  6
ByLayer
 10
6.8710000000000004
 20
-5.8319999999999999
 30
0.0
 11
6.7270000000000003
 21
-5.8639999999999999
 31
0.0
  0
LINE
  5
1BB
100
AcDbEntity
100
AcDbLine
  8
0
 62
256
370
-1
  6
ByLayer
 10
6.7270000000000003
 20
-5.8639999999999999
 30
0.0
 11
6.5810000000000004
 21
-5.8869999999999996
 31
0.0
  0
LINE
  5
1BC
100
AcDbEntity
100
AcDbLine
  8
0
 62
256
370
-1
  6
ByLayer
 10
6.5810000000000004
 20
-5.8869999999999996
 30
0.0
 11
6.4340000000000002
 21
-5.9009999999999998
 31
0.0
  0
LINE
  5
1BD
100
AcDbEntity
100
AcDbLine
  8
0
 62
256
370
-1
  6
ByLayer
 10
6.4340000000000002
 20
-5.9009999999999998
 30
0.0
 11
6.2859999999999996
 21
-5.9059999999999997
 31
0.0
  0
LINE
  5
1BE
100
AcDbEntity
100
AcDbLine
  8
0
 62
256
370
-1
  6
ByLayer
 10
6.2859999999999996
 20
-5.9059999999999997
 30
0.0
 11
6.1390000000000002
 21
-5.9009999999999998
 31
0.0
  0
LINE
  5
1BF
100
AcDbEntity
100
AcDbLine
  8
0
 62
256
370
-1
  6
ByLayer
 10
6.1390000000000002
 20
-5.9009999999999998
 30
0.0
 11
5.992
 21
-5.8869999999999996
 31
0.0
  0
LINE
  5
1C0
100
AcDbEntity
100
AcDbLine
  8
0
 62
256
370
-1
  6
ByLayer
 10
5.992
 20
-5.8869999999999996
 30
0.0
 11
5.8460000000000001
 21
-5.8639999999999999
 31
0.0
  0
LINE
  5
1C1
100
AcDbEntity
100
AcDbLine
  8
0
 62
256
370
-1
  6
ByLayer
 10
5.8460000000000001
 20
-5.8639999999999999
 30
0.0
 11
5.702
 21
-5.8319999999999999
 31
0.0
  0
LINE
  5
1C2
100
AcDbEntity
100
AcDbLine
  8
0
 62
256
370
-1
  6
ByLayer
 10
5.702
 20
-5.8319999999999999
 30
0.0
 11
5.5599999999999996
 21
-5.7910000000000004
 31
0.0
  0
LINE
  5
1C3
100
AcDbEntity
100
AcDbLine
  8
0
 62
256
370
-1
  6
ByLayer
 10
5.5599999999999996
 20
-5.7910000000000004
 30
0.0
 11
5.4219999999999997
 21
-5.7409999999999997
 31
0.0
  0
LINE
  5
1C4
100
AcDbEntity
100
AcDbLine
  8
0
 62
256
370
-1
  6
ByLayer
 10
5.4219999999999997
 20
-5.7409999999999997
 30
0.0
 11
5.2859999999999996
 21
-5.6820000000000004
 31
0.0
  0
LINE
  5
1C5
100
AcDbEntity
100
AcDbLine
  8
0
 62
256
370
-1
  6
ByLayer
 10
5.2859999999999996
 20
-5.6820000000000004
 30
0.0
 11
5.1550000000000002
 21
-5.6150000000000002
 31
0.0
  0
LINE
  5
1C6
100
AcDbEntity
100
AcDbLine
  8
0
 62
256
370
-1
  6
ByLayer
 10
5.1550000000000002
 20
-5.6150000000000002
 30
0.0
 11
5.0279999999999996
 21
-5.54
 31
0.0
  0
LINE
  5
1C7
100
AcDbEntity
100
AcDbLine
  8
0
 62
256
370
-1
  6
ByLayer
 10
5.0279999999999996
 20
-5.54
 30
0.0
 11
4.9050000000000002
 21
-5.4569999999999999
 31
0.0
  0
LINE
  5
1C8
100
AcDbEntity
100
AcDbLine
  8
0
 62
256
370
-1
  6
ByLayer
 10
4.9050000000000002
 20
-5.4569999999999999
 30
0.0
 11
4.7889999999999997
 21
-5.3659999999999997
 31
0.0
  0
LINE
  5
1C9
100
AcDbEntity
100
AcDbLine
  8
0
 62
256
370
-1
  6
ByLayer
 10
4.7889999999999997
 20
-5.3659999999999997
 30
0.0
 11
4.6779999999999999
 21
-5.2690000000000001
 31
0.0
  0
LINE
  5
1CA
100
AcDbEntity
100
AcDbLine
  8
0
 62
256
370
-1
  6
ByLayer
 10
4.6779999999999999
 20
-5.2690000000000001
 30
0.0
 11
4.5739999999999998
 21
-5.1639999999999997
 31
0.0
  0
LINE
  5
1CB
100
AcDbEntity
100
AcDbLine
  8
0
 62
256
370
-1
  6
ByLayer
 10
4.5739999999999998
 20
-5.1639999999999997
 30
0.0
 11
4.476
 21
-5.0540000000000003
 31
0.0
  0
LINE
  5
1CC
100
AcDbEntity
100
AcDbLine
  8
0
 62
256
370
-1
  6
ByLayer
 10
4.476
 20
-5.0540000000000003
 30
0.0
 11
4.3860000000000001
 21
-4.9370000000000003
 31
0.0
  0
LINE
  5
1CD
100
AcDbEntity
100
AcDbLine
  8
0
 62
256
370
-1
  6
ByLayer
 10
4.3860000000000001
 20
-4.9370000000000003
 30
0.0
 11
4.3029999999999999
 21
-4.8150000000000004
 31
0.0
  0
LINE
  5
1CE
100
AcDbEntity
100
AcDbLine
  8
0
 62
256
370
-1
  6
ByLayer
 10
4.3029999999999999
 20
-4.8150000000000004
 30
0.0
 11
4.2279999999999998
 21
-4.6879999999999997
 31
0.0
  0
LINE
  5
1CF
100
AcDbEntity
100
AcDbLine
  8
0
 62
256
370
-1
  6
ByLayer
 10
4.2279999999999998
 20
-4.6879999999999997
 30
0.0
 11
4.1609999999999996
 21
-4.556
 31
0.0
  0
LINE
  5
1D0
100
AcDbEntity
100
AcDbLine
  8
0
 62
256
370
-1
  6
ByLayer
 10
4.1609999999999996
 20
-4.556
 30
0.0
 11
4.1020000000000003
 21
-4.4210000000000003
 31
0.0
  0
LINE
  5
1D1
100
AcDbEntity
100
AcDbLine
  8
0
 62
256
370
-1
  6
ByLayer
 10
4.1020000000000003
 20
-4.4210000000000003
 30
0.0
 11
4.0519999999999996
 21
-4.282
 31
0.0
  0
LINE
  5
1D2
100
AcDbEntity
100
AcDbLine
  8
0
 62
256
370
-1
  6
ByLayer
 10
4.0519999999999996
 20
-4.282
 30
0.0
 11
4.0110000000000001
 21
-4.1399999999999997
 31
0.0
  0
LINE
  5
1D3
100
AcDbEntity
100
AcDbLine
  8
0
 62
256
370
-1
  6
ByLayer
 10
4.0110000000000001
 20
-4.1399999999999997
 30
0.0
 11
3.9790000000000001
 21
-3.996
 31
0.0
  0
LINE
  5
1D4
100
AcDbEntity
100
AcDbLine
  8
0
 62
256
370
-1
  6
ByLayer
 10
3.9790000000000001
 20
-3.996
 30
0.0
 11
3.956
 21
-3.8500000000000001
 31
0.0
  0
LINE
  5
1D5
100
AcDbEntity
100
AcDbLine
  8
0
 62
256
370
-1
  6
ByLayer
 10
3.956
 20
-3.8500000000000001
 30
0.0
 11
3.9420000000000002
 21
-3.7040000000000002
 31
0.0
  0
LINE
  5
1D6
100
AcDbEntity
100
AcDbLine
  8
0
 62
256
370
-1
  6
ByLayer
 10
3.9420000000000002
 20
-3.7040000000000002
 30
0.0
 11
3.9369999999999998
 21
-3.556
 31
0.0
  0
LINE
  5
1D7
100
AcDbEntity
100
AcDbLine
  8
0
 62
256
370
-1
  6
ByLayer
 10
8.0519999999999996
 20
3.79
 30
0.0
 11
8.0549999999999997
 21
3.8820000000000001
 31
0.0
  0
LINE
  5
1D8
100
AcDbEntity
100
AcDbLine
  8
0
 62
256
370
-1
  6
ByLayer
 10
8.0549999999999997
 20
3.8820000000000001
 30
0.0
 11
8.0630000000000006
 21
3.9740000000000002
 31
0.0
  0
LINE
  5
1D9
100
AcDbEntity
100
AcDbLine
  8
0
 62
256
370
-1
  6
ByLayer
 10
8.0630000000000006
 20
3.9740000000000002
 30
0.0
 11
8.0779999999999994
 21
4.0659999999999998
 31
0.0
  0
LINE
  5
1DA
100
AcDbEntity
100
AcDbLine
  8
0
 62
256
370
-1
  6
ByLayer
 10
8.0779999999999994
 20
4.0659999999999998
 30
0.0
 11
8.0980000000000008
 21
4.1559999999999997
 31
0.0
  0
LINE
  5
1DB
100
AcDbEntity
100
AcDbLine
  8
0
 62
256
370
-1
  6
ByLayer
 10
8.0980000000000008
 20
4.1559999999999997
 30
0.0
 11
8.1240000000000006
 21
4.2450000000000001
 31
0.0
  0
LINE
  5
1DC
100
AcDbEntity
100
AcDbLine
  8
0
 62
256
370
-1
  6
ByLayer
 10
8.1240000000000006
 20
4.2450000000000001
 30
0.0
 11
8.1549999999999994
 21
4.3319999999999999
 31
0.0
  0
LINE
  5
1DD
100
AcDbEntity
100
AcDbLine
  8
0
 62
256
370
-1
  6
ByLayer
 10
8.1549999999999994
 20
4.3319999999999999
 30
0.0
 11
8.1920000000000002
 21
4.4169999999999998
 31
0.0
  0
LINE
  5
1DE
100
AcDbEntity
100
AcDbLine
  8
0
 62
256
370
-1
  6
ByLayer
 10
8.1920000000000002
 20
4.4169999999999998
 30
0.0
 11
8.234
 21
4.4989999999999997
 31
0.0
  0
LINE
  5
1DF
100
AcDbEntity
100
AcDbLine
  8
0
 62
256
370
-1
  6
ByLayer
 10
8.234
 20
4.4989999999999997
 30
0.0
 11
8.2810000000000006
 21
4.5789999999999997
 31
0.0
  0
LINE
  5
1E0
100
AcDbEntity
100
AcDbLine
  8
0
 62
256
370
-1
  6
ByLayer
 10
8.2810000000000006
 20
4.5789999999999997
 30
0.0
 11
8.3330000000000002
 21
4.6559999999999997
 31
0.0
  0
LINE
  5
1E1
100
AcDbEntity
100
AcDbLine
  8
0
 62
256
370
-1
  6
ByLayer
 10
8.3330000000000002
 20
4.6559999999999997
 30
0.0
 11
8.3900000000000006
 21
4.7290000000000001
 31
0.0
  0
LINE
  5
1E2
100
AcDbEntity
100
AcDbLine
  8
0
 62
256
370
-1
  6
ByLayer
 10
8.3900000000000006
 20
4.7290000000000001
 30
0.0
 11
8.4510000000000005
 21
4.798
 31
0.0
  0
LINE
  5
1E3
100
AcDbEntity
100
AcDbLine
  8
0
 62
256
370
-1
  6
ByLayer
 10
8.4510000000000005
 20
4.798
 30
0.0
 11
8.5169999999999995
 21
4.8639999999999999
 31
0.0
  0
LINE
  5
1E4
100
AcDbEntity
100
AcDbLine
  8
0
 62
256
370
-1
  6
ByLayer
 10
8.5169999999999995
 20
4.8639999999999999
 30
0.0
 11
8.5860000000000003
 21
4.9249999999999998
 31
0.0
  0
LINE
  5
1E5
100
AcDbEntity
100
AcDbLine
  8
0
 62
256
370
-1
  6
ByLayer
 10
8.5860000000000003
 20
4.9249999999999998
 30
0.0
 11
8.6590000000000007
 21
4.9820000000000002
 31
0.0
  0
LINE
  5
1E6
100
AcDbEntity
100
AcDbLine
  8
0
 62
256
370
-1
  6
ByLayer
 10
8.6590000000000007
 20
4.9820000000000002
 30
0.0
 11
8.7360000000000007
 21
5.0339999999999998
 31
0.0
  0
LINE
  5
1E7
100
AcDbEntity
100
AcDbLine
  8
0
 62
256
370
-1
  6
ByLayer
 10
8.7360000000000007
 20
5.0339999999999998
 30
0.0
 11
8.8149999999999995
 21
5.0810000000000004
 31
0.0
  0
LINE
  5
1E8
100
AcDbEntity
100
AcDbLine
  8
0
 62
256
370
-1
  6
ByLayer
 10
8.8149999999999995
 20
5.0810000000000004
 30
0.0
 11
8.8979999999999997
 21
5.1230000000000002
 31
0.0
  0
LINE
  5
1E9
100
AcDbEntity
100
AcDbLine
  8
0
 62
256
370
-1
  6
ByLayer
 10
8.8979999999999997
 20
5.1230000000000002
 30
0.0
 11
8.9830000000000005
 21
5.1589999999999998
 31
0.0
  0
LINE
  5
1EA
100
AcDbEntity
100
AcDbLine
  8
0
 62
256
370
-1
  6
ByLayer
 10
8.9830000000000005
 20
5.1589999999999998
 30
0.0
 11
9.0700000000000003
 21
5.1909999999999998
 31
0.0
  0
LINE
  5
1EB
100
AcDbEntity
100
AcDbLine
  8
0
 62
256
370
-1
  6
ByLayer
 10
9.0700000000000003
 20
5.1909999999999998
 30
0.0
 11
9.1590000000000007
 21
5.2169999999999996
 31
0.0
  0
LINE
  5
1EC
100
AcDbEntity
100
AcDbLine
  8
0
 62
256
370
-1
  6
ByLayer
 10
9.1590000000000007
 20
5.2169999999999996
 30
0.0
 11
9.2490000000000006
 21
5.2370000000000001
 31
0.0
  0
LINE
  5
1ED
100
AcDbEntity
100
AcDbLine
  8
0
 62
256
370
-1
  6
ByLayer
 10
9.2490000000000006
 20
5.2370000000000001
 30
0.0
 11
9.3399999999999999
 21
5.2510000000000003
 31
0.0
  0
LINE
  5
1EE
100
AcDbEntity
100
AcDbLine
  8
0
 62
256
370
-1
  6
ByLayer
 10
9.3399999999999999
 20
5.2510000000000003
 30
0.0
 11
9.4320000000000004
 21
5.2599999999999998
 31
0.0
  0
LINE
  5
1EF
100
AcDbEntity
100
AcDbLine
  8
0
 62
256
370
-1
  6
ByLayer
 10
9.4320000000000004
 20
5.2599999999999998
 30
0.0
 11
9.5250000000000004
 21
5.2629999999999999
 31
0.0
  0
LINE
  5
1F0
100
AcDbEntity
100
AcDbLine
  8
0
 62
256
370
-1
  6
ByLayer
 10
9.5250000000000004
 20
5.2629999999999999
 30
0.0
 11
9.6180000000000003
 21
5.2599999999999998
 31
0.0
  0
LINE
  5
1F1
100
AcDbEntity
100
AcDbLine
  8
0
 62
256
370
-1
  6
ByLayer
 10
9.6180000000000003
 20
5.2599999999999998
 30
0.0
 11
9.7100000000000009
 21
5.2510000000000003
 31
0.0
  0
LINE
  5
1F2
100
AcDbEntity
100
AcDbLine
  8
0
 62
256
370
-1
  6
ByLayer
 10
9.7100000000000009
 20
5.2510000000000003
 30
0.0
 11
9.8010000000000002
 21
5.2370000000000001
 31
0.0
  0
LINE
  5
1F3
100
AcDbEntity
100
AcDbLine
  8
0
 62
256
370
-1
  6
ByLayer
 10
9.8010000000000002
 20
5.2370000000000001
 30
0.0
 11
9.891
 21
5.2169999999999996
 31
0.0
  0
LINE
  5
1F4
100
AcDbEntity
100
AcDbLine
  8
0
 62
256
370
-1
  6
ByLayer
 10
9.891
 20
5.2169999999999996
 30
0.0
 11
9.9800000000000004
 21
5.1909999999999998
 31
0.0
  0
LINE
  5
1F5
100
AcDbEntity
100
AcDbLine
  8
0
 62
256
370
-1
  6
ByLayer
 10
9.9800000000000004
 20
5.1909999999999998
 30
0.0
 11
10.0670000000000002
 21
5.1589999999999998
 31
0.0
  0
LINE
  5
1F6
100
AcDbEntity
100
AcDbLine
  8
0
 62
256
370
-1
  6
ByLayer
 10
10.0670000000000002
 20
5.1589999999999998
 30
0.0
 11
10.1519999999999992
 21
5.1230000000000002
 31
0.0
  0
LINE
  5
1F7
100
AcDbEntity
100
AcDbLine
  8
0
 62
256
370
-1
  6
ByLayer
 10
10.1519999999999992
 20
5.1230000000000002
 30
0.0
 11
10.2349999999999994
 21
5.0810000000000004
 31
0.0
  0
LINE
  5
1F8
100
AcDbEntity
100
AcDbLine
  8
0
 62
256
370
-1
  6
ByLayer
 10
10.2349999999999994
 20
5.0810000000000004
 30
0.0
 11
10.3140000000000001
 21
5.0339999999999998
 31
0.0
  0
LINE
  5
1F9
100
AcDbEntity
100
AcDbLine
  8
0
 62
256
370
-1
  6
ByLayer
 10
10.3140000000000001
 20
5.0339999999999998
 30
0.0
 11
10.391
 21
4.9820000000000002
 31
0.0
  0
LINE
  5
1FA
100
AcDbEntity
100
AcDbLine
  8
0
 62
256
370
-1
  6
ByLayer
 10
10.391
 20
4.9820000000000002
 30
0.0
 11
10.4640000000000004
 21
4.9249999999999998
 31
0.0
  0
LINE
  5
1FB
100
AcDbEntity
100
AcDbLine
  8
0
 62
256
370
-1
  6
ByLayer
 10
10.4640000000000004
 20
4.9249999999999998
 30
0.0
 11
10.5329999999999995
 21
4.8639999999999999
 31
0.0
  0
LINE
  5
1FC
100
AcDbEntity
100
AcDbLine
  8
0
 62
256
370
-1
  6
ByLayer
 10
10.5329999999999995
 20
4.8639999999999999
 30
0.0
 11
10.5990000000000002
 21
4.798
 31
0.0
  0
LINE
  5
1FD
100
AcDbEntity
100
AcDbLine
  8
0
 62
256
370
-1
  6
ByLayer
 10
10.5990000000000002
 20
4.798
 30
0.0
 11
10.6600000000000001
 21
4.7290000000000001
 31
0.0
  0
LINE
  5
1FE
100
AcDbEntity
100
AcDbLine
  8
0
 62
256
370
-1
  6
ByLayer
 10
10.6600000000000001
 20
4.7290000000000001
 30
0.0
 11
10.7170000000000005
 21
4.6559999999999997
 31
0.0
  0
LINE
  5
1FF
100
AcDbEntity
100
AcDbLine
  8
0
 62
256
370
-1
  6
ByLayer
 10
10.7170000000000005
 20
4.6559999999999997
 30
0.0
 11
10.7690000000000001
 21
4.5789999999999997
 31
0.0
  0
LINE
  5
200
100
AcDbEntity
100
AcDbLine
  8
0
 62
256
370
-1
  6
ByLayer
 10
10.7690000000000001
 20
4.5789999999999997
 30
0.0
 11
10.8160000000000007
 21
4.4989999999999997
 31
0.0
  0
LINE
  5
201
100
AcDbEntity
100
AcDbLine
  8
0
 62
256
370
-1
  6
ByLayer
 10
10.8160000000000007
 20
4.4989999999999997
 30
0.0
 11
10.8580000000000005
 21
4.4169999999999998
 31
0.0
  0
LINE
  5
202
100
AcDbEntity
100
AcDbLine
  8
0
 62
256
370
-1
  6
ByLayer
 10
10.8580000000000005
 20
4.4169999999999998
 30
0.0
 11
10.8949999999999996
 21
4.3319999999999999
 31
0.0
  0
LINE
  5
203
100
AcDbEntity
100
AcDbLine
  8
0
 62
256
370
-1
  6
ByLayer
 10
10.8949999999999996
 20
4.3319999999999999
 30
0.0
 11
10.9260000000000002
 21
4.2450000000000001
 31
0.0
  0
LINE
  5
204
100
AcDbEntity
100
AcDbLine
  8
0
 62
256
370
-1
  6
ByLayer
 10
10.9260000000000002
 20
4.2450000000000001
 30
0.0
 11
10.952
 21
4.1559999999999997
 31
0.0
  0
LINE
  5
205
100
AcDbEntity
100
AcDbLine
  8
0
 62
256
370
-1
  6
ByLayer
 10
10.952
 20
4.1559999999999997
 30
0.0
 11
10.9719999999999995
 21
4.0659999999999998
 31
0.0
  0
LINE
  5
206
100
AcDbEntity
100
AcDbLine
  8
0
 62
256
370
-1
  6
ByLayer
 10
10.9719999999999995
 20
4.0659999999999998
 30
0.0
 11
10.9870000000000001
 21
3.9740000000000002
 31
0.0
  0
LINE
  5
207
100
AcDbEntity
100
AcDbLine
  8
0
 62
256
370
-1
  6
ByLayer
 10
10.9870000000000001
 20
3.9740000000000002
 30
0.0
 11
10.9949999999999992
 21
3.8820000000000001
 31
0.0
  0
LINE
  5
208
100
AcDbEntity
100
AcDbLine
  8
0
 62
256
370
-1
  6
ByLayer
 10
10.9949999999999992
 20
3.8820000000000001
 30
0.0
 11
10.9979999999999993
 21
3.79
 31
0.0
  0
LINE
  5
209
100
AcDbEntity
100
AcDbLine
  8
0
 62
256
370
-1
  6
ByLayer
 10
10.9979999999999993
 20
3.79
 30
0.0
 11
10.9949999999999992
 21
3.6970000000000001
 31
0.0
  0
LINE
  5
20A
100
AcDbEntity
100
AcDbLine
  8
0
 62
256
370
-1
  6
ByLayer
 10
10.9949999999999992
 20
3.6970000000000001
 30
0.0
 11
10.9870000000000001
 21
3.605
 31
0.0
  0
LINE
  5
20B
100
AcDbEntity
100
AcDbLine
  8
0
 62
256
370
-1
  6
ByLayer
 10
10.9870000000000001
 20
3.605
 30
0.0
 11
10.9719999999999995
 21
3.5139999999999998
 31
0.0
  0
LINE
  5
20C
100
AcDbEntity
100
AcDbLine
  8
0
 62
256
370
-1
  6
ByLayer
 10
10.9719999999999995
 20
3.5139999999999998
 30
0.0
 11
10.952
 21
3.423
 31
0.0
  0
LINE
  5
20D
100
AcDbEntity
100
AcDbLine
  8
0
 62
256
370
-1
  6
ByLayer
 10
10.952
 20
3.423
 30
0.0
 11
10.9260000000000002
 21
3.3340000000000001
 31
0.0
  0
LINE
  5
20E
100
AcDbEntity
100
AcDbLine
  8
0
 62
256
370
-1
  6
ByLayer
 10
10.9260000000000002
 20
3.3340000000000001
 30
0.0
 11
10.8949999999999996
 21
3.2469999999999999
 31
0.0
  0
LINE
  5
20F
100
AcDbEntity
100
AcDbLine
  8
0
 62
256
370
-1
  6
ByLayer
 10
10.8949999999999996
 20
3.2469999999999999
 30
0.0
 11
10.8580000000000005
 21
3.1619999999999999
 31
0.0
  0
LINE
  5
210
100
AcDbEntity
100
AcDbLine
  8
0
 62
256
370
-1
  6
ByLayer
 10
10.8580000000000005
 20
3.1619999999999999
 30
0.0
 11
10.8160000000000007
 21
3.0800000000000001
 31
0.0
  0
LINE
  5
211
100
AcDbEntity
100
AcDbLine
  8
0
 62
256
370
-1
  6
ByLayer
 10
10.8160000000000007
 20
3.0800000000000001
 30
0.0
 11
10.7690000000000001
 21
3.0
 31
0.0
  0
LINE
  5
212
100
AcDbEntity
100
AcDbLine
  8
0
 62
256
370
-1
  6
ByLayer
 10
10.7690000000000001
 20
3.0
 30
0.0
 11
10.7170000000000005
 21
2.9239999999999999
 31
0.0
  0
LINE
  5
213
100
AcDbEntity
100
AcDbLine
  8
0
 62
256
370
-1
  6
ByLayer
 10
10.7170000000000005
 20
2.9239999999999999
 30
0.0
 11
10.6600000000000001
 21
2.851
 31
0.0
  0
LINE
  5
214
100
AcDbEntity
100
AcDbLine
  8
0
 62
256
370
-1
  6
ByLayer
 10
10.6600000000000001
 20
2.851
 30
0.0
 11
10.5990000000000002
 21
2.7810000000000001
 31
0.0
  0
LINE
  5
215
100
AcDbEntity
100
AcDbLine
  8
0
 62
256
370
-1
  6
ByLayer
 10
10.5990000000000002
 20
2.7810000000000001
 30
0.0
 11
10.5329999999999995
 21
2.7160000000000002
 31
0.0
  0
LINE
  5
216
100
AcDbEntity
100
AcDbLine
  8
0
 62
256
370
-1
  6
ByLayer
 10
10.5329999999999995
 20
2.7160000000000002
 30
0.0
 11
10.4640000000000004
 21
2.6549999999999998
 31
0.0
  0
LINE
  5
217
100
AcDbEntity
100
AcDbLine
  8
0
 62
256
370
-1
  6
ByLayer
 10
10.4640000000000004
 20
2.6549999999999998
 30
0.0
 11
10.391
 21
2.5979999999999999
 31
0.0
  0
LINE
  5
218
100
AcDbEntity
100
AcDbLine
  8
0
 62
256
370
-1
  6
ByLayer
 10
10.391
 20
2.5979999999999999
 30
0.0
 11
10.3140000000000001
 21
2.5459999999999998
 31
0.0
  0
LINE
  5
219
100
AcDbEntity
100
AcDbLine
  8
0
 62
256
370
-1
  6
ByLayer
 10
10.3140000000000001
 20
2.5459999999999998
 30
0.0
 11
10.2349999999999994
 21
2.4990000000000001
 31
0.0
  0
LINE
  5
21A
100
AcDbEntity
100
AcDbLine
  8
0
 62
256
370
-1
  6
ByLayer
 10
10.2349999999999994
 20
2.4990000000000001
 30
0.0
 11
10.1519999999999992
 21
2.4569999999999999
 31
0.0
  0
LINE
  5
21B
100
AcDbEntity
100
AcDbLine
  8
0
 62
256
370
-1
  6
ByLayer
 10
10.1519999999999992
 20
2.4569999999999999
 30
0.0
 11
10.0670000000000002
 21
2.4199999999999999
 31
0.0
  0
LINE
  5
21C
100
AcDbEntity
100
AcDbLine
  8
0
 62
256
370
-1
  6
ByLayer
 10
10.0670000000000002
 20
2.4199999999999999
 30
0.0
 11
9.9800000000000004
 21
2.3889999999999998
 31
0.0
  0
LINE
  5
21D
100
AcDbEntity
100
AcDbLine
  8
0
 62
256
370
-1
  6
ByLayer
 10
9.9800000000000004
 20
2.3889999999999998
 30
0.0
 11
9.891
 21
2.363
 31
0.0
  0
LINE
  5
21E
100
AcDbEntity
100
AcDbLine
  8
0
 62
256
370
-1
  6
ByLayer
 10
9.891
 20
2.363
 30
0.0
 11
9.8010000000000002
 21
2.343
 31
0.0
  0
LINE
  5
21F
100
AcDbEntity
100
AcDbLine
  8
0
 62
256
370
-1
  6
ByLayer
 10
9.8010000000000002
 20
2.343
 30
0.0
 11
9.7100000000000009
 21
2.3279999999999998
 31
0.0
  0
LINE
  5
220
100
AcDbEntity
100
AcDbLine
  8
0
 62
256
370
-1
  6
ByLayer
 10
9.7100000000000009
 20
2.3279999999999998
 30
0.0
 11
9.6180000000000003
 21
2.319
 31
0.0
  0
LINE
  5
221
100
AcDbEntity
100
AcDbLine
  8
0
 62
256
370
-1
  6
ByLayer
 10
9.6180000000000003
 20
2.319
 30
0.0
 11
9.5250000000000004
 21
2.3159999999999998
 31
0.0
  0
LINE
  5
222
100
AcDbEntity
100
AcDbLine
  8
0
 62
256
370
-1
  6
ByLayer
 10
9.5250000000000004
 20
2.3159999999999998
 30
0.0
 11
9.4320000000000004
 21
2.319
 31
0.0
  0
LINE
  5
223
100
AcDbEntity
100
AcDbLine
  8
0
 62
256
370
-1
  6
ByLayer
 10
9.4320000000000004
 20
2.319
 30
0.0
 11
9.3399999999999999
 21
2.3279999999999998
 31
0.0
  0
LINE
  5
224
100
AcDbEntity
100
AcDbLine
  8
0
 62
256
370
-1
  6
ByLayer
 10
9.3399999999999999
 20
2.3279999999999998
 30
0.0
 11
9.2490000000000006
 21
2.343
 31
0.0
  0
LINE
  5
225
100
AcDbEntity
100
AcDbLine
  8
0
 62
256
370
-1
  6
ByLayer
 10
9.2490000000000006
 20
2.343
 30
0.0
 11
9.1590000000000007
 21
2.363
 31
0.0
  0
LINE
  5
226
100
AcDbEntity
100
AcDbLine
  8
0
 62
256
370
-1
  6
ByLayer
 10
9.1590000000000007
 20
2.363
 30
0.0
 11
9.0700000000000003
 21
2.3889999999999998
 31
0.0
  0
LINE
  5
227
100
AcDbEntity
100
AcDbLine
  8
0
 62
256
370
-1
  6
ByLayer
 10
9.0700000000000003
 20
2.3889999999999998
 30
0.0
 11
8.9830000000000005
 21
2.4199999999999999
 31
0.0
  0
LINE
  5
228
100
AcDbEntity
100
AcDbLine
  8
0
 62
256
370
-1
  6
ByLayer
 10
8.9830000000000005
 20
2.4199999999999999
 30
0.0
 11
8.8979999999999997
 21
2.4569999999999999
 31
0.0
  0
LINE
  5
229
100
AcDbEntity
100
AcDbLine
  8
0
 62
256
370
-1
  6
ByLayer
 10
8.8979999999999997
 20
2.4569999999999999
 30
0.0
 11
8.8149999999999995
 21
2.4990000000000001
 31
0.0
  0
LINE
  5
22A
100
AcDbEntity
100
AcDbLine
  8
0
 62
256
370
-1
  6
ByLayer
 10
8.8149999999999995
 20
2.4990000000000001
 30
0.0
 11
8.7360000000000007
 21
2.5459999999999998
 31
0.0
  0
LINE
  5
22B
100
AcDbEntity
100
AcDbLine
  8
0
 62
256
370
-1
  6
ByLayer
 10
8.7360000000000007
 20
2.5459999999999998
 30
0.0
 11
8.6590000000000007
 21
2.5979999999999999
 31
0.0
  0
LINE
  5
22C
100
AcDbEntity
100
AcDbLine
  8
0
 62
256
370
-1
  6
ByLayer
 10
8.6590000000000007
 20
2.5979999999999999
 30
0.0
 11
8.5860000000000003
 21
2.6549999999999998
 31
0.0
  0
LINE
  5
22D
100
AcDbEntity
100
AcDbLine
  8
0
 62
256
370
-1
  6
ByLayer
 10
8.5860000000000003
 20
2.6549999999999998
 30
0.0
 11
8.5169999999999995
 21
2.7160000000000002
 31
0.0
  0
LINE
  5
22E
100
AcDbEntity
100
AcDbLine
  8
0
 62
256
370
-1
  6
ByLayer
 10
8.5169999999999995
 20
2.7160000000000002
 30
0.0
 11
8.4510000000000005
 21
2.7810000000000001
 31
0.0
  0
LINE
  5
22F
100
AcDbEntity
100
AcDbLine
  8
0
 62
256
370
-1
  6
ByLayer
 10
8.4510000000000005
 20
2.7810000000000001
 30
0.0
 11
8.3900000000000006
 21
2.851
 31
0.0
  0
LINE
  5
230
100
AcDbEntity
100
AcDbLine
  8
0
 62
256
370
-1
  6
ByLayer
 10
8.3900000000000006
 20
2.851
 30
0.0
 11
8.3330000000000002
 21
2.9239999999999999
 31
0.0
  0
LINE
  5
231
100
AcDbEntity
100
AcDbLine
  8
0
 62
256
370
-1
  6
ByLayer
 10
8.3330000000000002
 20
2.9239999999999999
 30
0.0
 11
8.2810000000000006
 21
3.0
 31
0.0
  0
LINE
  5
232
100
AcDbEntity
100
AcDbLine
  8
0
 62
256
370
-1
  6
ByLayer
 10
8.2810000000000006
 20
3.0
 30
0.0
 11
8.234
 21
3.0800000000000001
 31
0.0
  0
LINE
  5
233
100
AcDbEntity
100
AcDbLine
  8
0
 62
256
370
-1
  6
ByLayer
 10
8.234
 20
3.0800000000000001
 30
0.0
 11
8.1920000000000002
 21
3.1619999999999999
 31
0.0
  0
LINE
  5
234
100
AcDbEntity
100
AcDbLine
  8
0
 62
256
370
-1
  6
ByLayer
 10
8.1920000000000002
 20
3.1619999999999999
 30
0.0
 11
8.1549999999999994
 21
3.2469999999999999
 31
0.0
  0
LINE
  5
235
100
AcDbEntity
100
AcDbLine
  8
0
 62
256
370
-1
  6
ByLayer
 10
8.1549999999999994
 20
3.2469999999999999
 30
0.0
 11
8.1240000000000006
 21
3.3340000000000001
 31
0.0
  0
LINE
  5
236
100
AcDbEntity
100
AcDbLine
  8
0
 62
256
370
-1
  6
ByLayer
 10
8.1240000000000006
 20
3.3340000000000001
 30
0.0
 11
8.0980000000000008
 21
3.423
 31
0.0
  0
LINE
  5
237
100
AcDbEntity
100
AcDbLine
  8
0
 62
256
370
-1
  6
ByLayer
 10
8.0980000000000008
 20
3.423
 30
0.0
 11
8.0779999999999994
 21
3.5139999999999998
 31
0.0
  0
LINE
  5
238
100
AcDbEntity
100
AcDbLine
  8
0
 62
256
370
-1
  6
ByLayer
 10
8.0779999999999994
 20
3.5139999999999998
 30
0.0
 11
8.0630000000000006
 21
3.605
 31
0.0
  0
LINE
  5
239
100
AcDbEntity
100
AcDbLine
  8
0
 62
256
370
-1
  6
ByLayer
 10
8.0630000000000006
 20
3.605
 30
0.0
 11
8.0549999999999997
 21
3.6970000000000001
 31
0.0
  0
LINE
  5
23A
100
AcDbEntity
100
AcDbLine
  8
0
 62
256
370
-1
  6
ByLayer
 10
8.0549999999999997
 20
3.6970000000000001
 30
0.0
 11
8.0519999999999996
 21
3.79
 31
0.0
  0
ENDSEC
  0
SECTION
  2
OBJECTS
  0
DICTIONARY
  5
C
100
AcDbDictionary
280
0
281
1
  3
ACAD_GROUP
350
D
  3
ACAD_LAYOUT
350
1A
  3
ACAD_MLINESTYLE
350
17
  3
ACAD_PLOTSETTINGS
350
19
  3
ACAD_PLOTSTYLENAME
350
E
  3
AcDbVariableDictionary
350
23B
  0
DICTIONARY
  5
D
100
AcDbDictionary
280
0
281
1
  0
ACDBDICTIONARYWDFLT
  5
E
100
AcDbDictionary
281
1
  3
Normal
350
F
100
AcDbDictionaryWithDefault
340
F
  0
ACDBPLACEHOLDER
  5
F
  0
DICTIONARY
  5
17
100
AcDbDictionary
280
0
281
1
  3
Standard
350
18
  0
MLINESTYLE
  5
18
100
AcDbMlineStyle
  2
STANDARD
 70
0
  3

 62
256
 51
90.0
 52
90.0
 71
2
 49
0.5
 62
256
  6
BYLAYER
 49
-0.5
 62
256
  6
BYLAYER
  0
DICTIONARY
  5
19
100
AcDbDictionary
280
0
281
1
  0
DICTIONARY
  5
1A
100
AcDbDictionary
281
1
  3
Layout1
350
1E
  3
Layout2
350
26
  3
Model
350
22
  0
LAYOUT
  5
1E
100
AcDbPlotSettings
  1

  2
C:\Program Files\AutoCAD 2002\plotters\DWF ePlot (optimized for plotting).pc3
  4

  6

 40
0.0
 41
0.0
 42
0.0
 43
0.0
 44
0.0
 45
0.0
 46
0.0
 47
0.0
 48
0.0
 49
0.0
140
0.0
141
0.0
142
1.0
143
1.0
 70
688
 72
0
 73
0
 74
5
  7

 75
16
147
1.0
148
0.0
149
0.0
100
AcDbLayout
  1
Layout1
 70
1
 71
1
 10
0.0
 20
0.0
 11
420.0
 21
297.0
 12
0.0
 22
0.0
 32
0.0
 14
100000000000000000000.0
 24
100000000000000000000.0
 34
100000000000000000000.0
 15
-100000000000000000000.0
 25
-100000000000000000000.0
 35
-100000000000000000000.0
146
0.0
 13
0.0
 23
0.0
 33
0.0
 16
1.0
 26
0.0
 36
0.0
 17
0.0
 27
1.0
 37
0.0
 76
0
330
1B
  0
LAYOUT
  5
22
100
AcDbPlotSettings
  1

  2
C:\Program Files\AutoCAD 2002\plotters\DWF ePlot (optimized for plotting).pc3
  4

  6

 40
0.0
 41
0.0
 42
0.0
 43
0.0
 44
0.0
 45
0.0
 46
0.0
 47
0.0
 48
0.0
 49
0.0
140
0.0
141
0.0
142
1.0
143
1.0
 70
1712
 72
0
 73
0
 74
0
  7

 75
0
147
1.0
148
0.0
149
0.0
100
AcDbLayout
  1
Model
 70
1
 71
0
 10
0.0
 20
0.0
 11
12.0
 21
9.0
 12
0.0
 22
0.0
 32
0.0
 14
0.0
 24
0.0
 34
0.0
 15
0.0
 25
0.0
 35
0.0
146
0.0
 13
0.0
 23
0.0
 33
0.0
 16
1.0
 26
0.0
 36
0.0
 17
0.0
 27
1.0
 37
0.0
 76
0
330
1F
  0
LAYOUT
  5
26
100
AcDbPlotSettings
  1

  2
C:\Program Files\AutoCAD 2002\plotters\DWF ePlot (optimized for plotting).pc3
  4

  6

 40
0.0
 41
0.0
 42
0.0
 43
0.0
 44
0.0
 45
0.0
 46
0.0
 47
0.0
 48
0.0
 49
0.0
140
0.0
141
0.0
142
1.0
143
1.0
 70
688
 72
0
 73
0
 74
5
  7

 75
16
147
1.0
148
0.0
149
0.0
100
AcDbLayout
  1
Layout2
 70
1
 71
2
 10
0.0
 20
0.0
 11
12.0
 21
9.0
 12
0.0
 22
0.0
 32
0.0
 14
0.0
 24
0.0
 34
0.0
 15
0.0
 25
0.0
 35
0.0
146
0.0
 13
0.0
 23
0.0
 33
0.0
 16
1.0
 26
0.0
 36
0.0
 17
0.0
 27
1.0
 37
0.0
 76
0
330
23
  0
DICTIONARY
  5
23B
100
AcDbDictionary
281
1
  3
DIMASSOC
350
23D
  3
HIDETEXT
350
23C
  0
DICTIONARYVAR
  5
23C
100
DictionaryVariables
280
0
  1
2
  0
DICTIONARYVAR
  5
23D
100
DictionaryVariables
280
0
  1
1
  0
ENDSEC
  0
EOF
